<svg width="1042" height="810" viewBox="0 0 1042 810" fill="none" xmlns="http://www.w3.org/2000/svg">
<g filter="url(#filter0_f_5_2576)">
<circle cx="630" cy="352" r="130" fill="#8605E2"/>
</g>
<path d="M915.468 316.397C915.468 320.103 912.464 323.106 908.759 323.106C905.053 323.106 902.049 320.103 902.049 316.397C902.049 312.691 905.053 309.688 908.759 309.688C912.464 309.688 915.468 312.691 915.468 316.397Z" fill="#FFE2C8"/>
<path d="M406.007 434.275C406.007 437.981 403.003 440.985 399.297 440.985C395.592 440.985 392.588 437.981 392.588 434.275C392.588 430.57 395.592 427.566 399.297 427.566C403.003 427.566 406.007 430.57 406.007 434.275Z" fill="#FFD0A4"/>
<path d="M973.56 358.443C973.56 362.149 970.556 365.153 966.85 365.153C963.145 365.153 960.141 362.149 960.141 358.443C960.141 354.737 963.145 351.734 966.85 351.734C970.556 351.734 973.56 354.738 973.56 358.443Z" fill="#FFE2C8"/>
<path d="M698.317 607.461C815.19 607.461 909.935 604.402 909.935 600.629C909.935 596.855 815.19 593.797 698.317 593.797C581.444 593.797 486.7 596.855 486.7 600.629C486.7 604.402 581.444 607.461 698.317 607.461Z" fill="#E0B5FF"/>
<path d="M517.92 329.383C517.92 329.383 477.268 339.341 479.529 368.862C481.218 390.905 525.586 458.936 557.41 480.768C574.264 492.33 595.531 490.237 612.207 490.535C634.178 490.928 652.195 473.215 652.195 451.24V442.091C652.195 442.091 613.617 441.248 591.562 435.207C561.857 427.071 537.053 369.419 517.92 329.383Z" fill="#21181E"/>
<path d="M670.659 490.142H582.903C566.76 490.142 553.672 477.055 553.672 460.911V448.672H670.659C680.658 448.672 688.764 456.778 688.764 466.777V472.035C688.765 482.035 680.659 490.142 670.659 490.142Z" fill="#21181E"/>
<path d="M621.921 527.875H620.328C617.297 527.875 614.841 525.419 614.841 522.388V483.208H627.409V522.388C627.408 525.419 624.952 527.875 621.921 527.875Z" fill="#21181E"/>
<path d="M658.418 578.88V586.859H652.637V583.253C652.637 582.236 651.812 581.412 650.795 581.412H626.033C625.178 581.412 624.486 582.105 624.486 582.959V586.858H617.762V582.959C617.762 582.104 617.069 581.412 616.214 581.412H591.641C590.624 581.412 589.8 582.236 589.8 583.253V586.859H584.019V578.88C584.019 577.086 585.473 575.631 587.267 575.631H617.762V472.788H624.486V575.631H655.169C656.963 575.631 658.418 577.086 658.418 578.88Z" fill="#21181E"/>
<path d="M586.989 600.629C591.743 600.629 595.597 596.775 595.597 592.021C595.597 587.266 591.743 583.412 586.989 583.412C582.235 583.412 578.38 587.266 578.38 592.021C578.38 596.775 582.235 600.629 586.989 600.629Z" fill="#21181E"/>
<path d="M586.989 596.951C584.27 596.951 582.059 594.739 582.059 592.021C582.059 589.302 584.271 587.091 586.989 587.091C589.708 587.091 591.919 589.303 591.919 592.021C591.919 594.739 589.708 596.951 586.989 596.951Z" fill="#5E5B4D"/>
<path d="M621.219 600.629C625.973 600.629 629.827 596.775 629.827 592.021C629.827 587.266 625.973 583.412 621.219 583.412C616.464 583.412 612.61 587.266 612.61 592.021C612.61 596.775 616.464 600.629 621.219 600.629Z" fill="#21181E"/>
<path d="M621.219 596.951C618.5 596.951 616.289 594.739 616.289 592.021C616.289 589.302 618.501 587.091 621.219 587.091C623.937 587.091 626.149 589.303 626.149 592.021C626.149 594.739 623.937 596.951 621.219 596.951Z" fill="#5E5B4D"/>
<path d="M655.569 600.629C660.323 600.629 664.178 596.775 664.178 592.021C664.178 587.266 660.323 583.412 655.569 583.412C650.815 583.412 646.961 587.266 646.961 592.021C646.961 596.775 650.815 600.629 655.569 600.629Z" fill="#21181E"/>
<path d="M655.569 596.951C652.851 596.951 650.64 594.739 650.64 592.021C650.64 589.302 652.851 587.091 655.569 587.091C658.288 587.091 660.5 589.303 660.5 592.021C660.5 594.739 658.288 596.951 655.569 596.951Z" fill="#5E5B4D"/>
<path d="M627.903 421.723C621.251 441.657 592.972 465.698 561.857 467.084C555.152 461.176 537.881 436.463 532.812 429.028C531.801 427.55 530.823 426.05 529.866 424.537C525.269 417.26 521.246 409.6 517.289 401.447C517.073 401.003 516.859 400.559 516.643 400.113C515.289 397.3 513.94 394.43 512.575 391.495C512.44 391.207 512.307 390.919 512.173 390.628C510.409 386.827 508.613 382.919 506.743 378.897C499.895 364.146 499.88 352.773 507.437 346.964C510.949 344.264 513.402 341.529 515.07 339.252C515.275 338.974 515.463 338.705 515.646 338.44C517.573 335.632 521.742 327.442 521.742 327.442L536.863 323.563C539.708 325.017 542.502 325.385 545.212 325.243C545.512 325.229 545.813 325.207 546.114 325.18C554.195 324.449 561.525 319.74 567.39 326.779C571.072 331.2 572.817 343.461 584.45 363.923C585.303 365.425 586.208 366.969 587.174 368.558C588.077 370.047 589.028 371.572 590.038 373.14C590.974 374.597 591.964 376.093 592.999 377.616C593.906 378.952 594.851 380.313 595.838 381.698C596.849 383.122 597.901 384.57 599.001 386.045C604.898 393.971 619.072 412.208 627.903 421.723Z" fill="#8606E2"/>
<path d="M595.79 418.614C594.159 419.5 592.416 420.257 590.561 420.883C585.991 422.427 580.748 423.18 574.977 423.121C565.171 423.022 557.112 420.573 557.032 420.548C556.782 420.471 556.625 420.201 556.682 419.943C556.738 419.687 556.987 419.541 557.237 419.618C557.315 419.642 565.267 422.055 574.946 422.15C583.834 422.236 596.046 420.327 603.754 410.744C603.914 410.545 604.206 410.532 604.406 410.712C604.607 410.894 604.64 411.2 604.481 411.398C602.111 414.347 599.2 416.761 595.79 418.614Z" fill="#560094"/>
<path d="M587.173 368.557L522.486 410.563L519.616 406.026L584.451 363.922C585.301 365.423 586.208 366.967 587.173 368.557Z" fill="#560094"/>
<path d="M593 377.615L527.645 420.056L524.774 415.519L590.039 373.139C590.975 374.597 591.963 376.091 593 377.615Z" fill="#560094"/>
<path d="M599 386.044L532.812 429.027C531.8 427.547 530.822 426.051 529.868 424.537L595.837 381.697C596.848 383.12 597.901 384.569 599 386.044Z" fill="#560094"/>
<path d="M549.897 350.089C546.774 351.785 542.966 352.757 538.573 352.978C531.019 353.357 524.236 351.349 524.167 351.328C523.917 351.254 523.758 350.984 523.813 350.727C523.868 350.469 524.116 350.321 524.366 350.396C524.432 350.416 531.084 352.383 538.488 352.006C548.327 351.506 554.756 347.325 557.597 339.582C557.686 339.338 557.954 339.23 558.194 339.341C558.434 339.452 558.557 339.739 558.466 339.984C556.829 344.448 553.993 347.823 550.036 350.013C549.99 350.038 549.943 350.064 549.897 350.089Z" fill="#560094"/>
<path d="M543.386 339.82C538.707 341.422 531.885 339.262 531.509 339.14C531.263 339.061 531.114 338.786 531.175 338.528C531.238 338.269 531.487 338.124 531.733 338.203C531.848 338.24 543.247 341.849 546.124 336.437C546.247 336.206 546.525 336.135 546.748 336.278C546.97 336.42 547.051 336.722 546.928 336.952C546.151 338.415 544.878 339.308 543.386 339.82Z" fill="#560094"/>
<path d="M544.43 354.88C539.335 354.88 533.841 351.204 528.316 344.036C523.097 337.267 519.615 329.666 519.581 329.59C519.465 329.338 519.578 329.039 519.83 328.925C520.083 328.81 520.381 328.921 520.495 329.175C520.631 329.472 534.186 358.849 548.07 353.147C550.688 352.072 552.296 350.351 552.849 348.036C554.792 339.898 543.607 326.824 543.494 326.693C543.313 326.483 543.336 326.166 543.546 325.984C543.756 325.802 544.073 325.825 544.255 326.035C544.732 326.587 555.89 339.63 553.828 348.268C553.195 350.917 551.386 352.871 548.452 354.076C547.145 354.614 545.802 354.88 544.43 354.88Z" fill="white"/>
<path d="M556.826 415.601L545.153 417.947C532.428 420.016 510.912 423.217 496.926 421.3C491.821 420.603 487.72 419.221 485.415 416.855C482.09 413.438 481.007 409.318 481.219 404.604C481.397 400.635 482.49 396.243 483.933 391.494C487.155 380.887 503.701 351.736 503.701 351.736C522.347 351.91 528.859 382.287 528.859 382.287L517.96 396.339C517.96 396.339 526.046 397.002 541.15 396.597C556.252 396.193 557.451 397.554 557.451 397.554C564.187 405.721 556.826 415.601 556.826 415.601Z" fill="#8606E2"/>
<path d="M496.927 421.3C491.822 420.603 487.721 419.221 485.416 416.855C482.091 413.438 481.008 409.318 481.22 404.604C486.931 406.676 496.872 411.66 496.927 421.3Z" fill="#560094"/>
<path d="M529.952 396.885C525.874 396.885 521.252 396.759 516.113 396.508C515.923 396.498 515.753 396.386 515.671 396.215C515.588 396.043 515.605 395.841 515.717 395.686C523.507 384.836 527.537 373.091 527.576 372.974C527.669 372.702 527.964 372.555 528.235 372.648C528.507 372.74 528.653 373.035 528.56 373.308C528.521 373.424 524.63 384.765 517.111 395.516C526.909 395.972 534.757 395.957 540.449 395.472C540.729 395.448 540.987 395.66 541.011 395.945C541.035 396.231 540.823 396.483 540.536 396.507C537.576 396.759 534.037 396.885 529.952 396.885Z" fill="#560094"/>
<path d="M502.257 399.259C502.066 399.259 501.883 399.154 501.792 398.971C501.663 398.715 501.768 398.402 502.024 398.274C505.827 396.373 511.542 395.753 514.392 395.557C512.159 394.564 509.187 394.282 509.15 394.278C508.864 394.252 508.654 393.999 508.68 393.713C508.706 393.427 508.959 393.215 509.244 393.243C509.444 393.261 514.151 393.709 516.465 395.584C516.634 395.722 516.701 395.949 516.63 396.156C516.56 396.362 516.368 396.502 516.151 396.508C516.065 396.51 507.41 396.744 502.491 399.204C502.415 399.241 502.336 399.259 502.257 399.259Z" fill="#560094"/>
<path d="M525.44 380.141C525.209 380.141 524.998 379.985 524.937 379.75C524.865 379.472 525.033 379.188 525.311 379.117C529.122 378.136 531.465 377.092 531.488 377.081C531.75 376.964 532.058 377.08 532.176 377.342C532.294 377.604 532.177 377.912 531.916 378.03C531.818 378.074 529.475 379.119 525.571 380.124C525.527 380.135 525.484 380.141 525.44 380.141Z" fill="#560094"/>
<path d="M780.374 410.189L795.666 409.954L798.895 394.404L784.227 394.632L780.374 410.189Z" fill="#FF8C7E"/>
<path d="M831.483 364.673L817.759 420.311C816.905 420.54 815.783 420.502 814.488 420.281C809.697 419.468 802.555 416.115 798.001 414.212C797.47 413.987 796.972 413.783 796.52 413.607C795.753 413.31 795.109 413.084 794.626 412.965C790.762 412.012 792.268 408.755 792.268 408.755C799.177 404.487 792.47 396.069 796.104 393.016C796.104 393.016 797.649 391.696 802.713 388.26C807.776 384.826 812.252 377.958 816.506 372.223C821.993 364.817 826.018 363.327 828.506 363.455C830.476 363.558 831.483 364.673 831.483 364.673Z" fill="#FAB655"/>
<path d="M831.483 364.673L817.758 420.311C816.905 420.54 815.783 420.502 814.488 420.281L828.505 363.454C830.476 363.558 831.483 364.673 831.483 364.673Z" fill="#E29817"/>
<path d="M819.159 414.635L818.751 416.288C817.274 414.174 814.763 411.917 810.58 411.1C805.016 410.012 800.497 412.397 798.001 414.212C797.47 413.987 796.972 413.783 796.52 413.608C799.016 411.603 804.177 408.459 810.841 409.759C814.836 410.54 817.461 412.561 819.159 414.635Z" fill="#E29817"/>
<path d="M805.762 390.012C805.661 390.422 805.289 390.729 804.847 390.729C804.325 390.73 803.902 390.307 803.901 389.786L803.895 386.098C803.893 385.576 804.317 385.152 804.838 385.152C805.359 385.151 805.783 385.574 805.784 386.095L805.789 389.783C805.79 389.862 805.781 389.939 805.762 390.012Z" fill="#E29817"/>
<path d="M802.018 392.752C801.916 393.163 801.545 393.469 801.102 393.469C800.58 393.47 800.157 393.047 800.156 392.526L800.15 388.838C800.148 388.316 800.572 387.893 801.093 387.892C801.614 387.891 802.038 388.314 802.039 388.835L802.044 392.523C802.044 392.602 802.036 392.679 802.018 392.752Z" fill="#E29817"/>
<path d="M808.641 387.035C808.539 387.445 808.168 387.752 807.725 387.752C807.204 387.753 806.78 387.33 806.779 386.809L806.773 383.121C806.772 382.599 807.195 382.176 807.716 382.175C808.237 382.174 808.662 382.596 808.662 383.118L808.668 386.806C808.668 386.885 808.659 386.961 808.641 387.035Z" fill="#E29817"/>
<path d="M811.44 384.037C811.338 384.448 810.967 384.755 810.524 384.755C810.003 384.756 809.579 384.333 809.579 383.812L809.573 380.124C809.571 379.601 809.994 379.179 810.515 379.178C811.037 379.177 811.46 379.599 811.461 380.121L811.467 383.809C811.467 383.888 811.458 383.965 811.44 384.037Z" fill="#E29817"/>
<path d="M814.17 380.691C814.068 381.102 813.698 381.408 813.254 381.408C812.733 381.409 812.31 380.987 812.309 380.465L812.303 376.777C812.302 376.256 812.724 375.833 813.246 375.832C813.767 375.831 814.19 376.253 814.191 376.774L814.197 380.463C814.198 380.541 814.188 380.618 814.17 380.691Z" fill="#E29817"/>
<path d="M816.716 376.959C816.614 377.37 816.244 377.676 815.8 377.676C815.279 377.677 814.856 377.255 814.855 376.734L814.849 373.045C814.847 372.523 815.27 372.101 815.792 372.1C816.313 372.099 816.736 372.521 816.737 373.043L816.743 376.731C816.743 376.81 816.734 376.886 816.716 376.959Z" fill="#E29817"/>
<path d="M785.896 410.549C785.896 410.549 720.016 419.295 696.187 407.231C696.187 407.231 657.017 454.132 611.937 460.706L600.971 419.535C600.971 419.535 644.237 381.561 681.821 376.4C681.904 376.388 681.98 376.376 682.064 376.364L682.856 376.494L788.096 393.351C788.096 393.351 787.785 400.263 785.896 410.549Z" fill="#21181E"/>
<path d="M682.856 376.493C682.323 380.635 682.06 383.152 682.047 383.226C682.014 383.516 681.76 383.718 681.47 383.693C681.189 383.66 680.979 383.406 681.012 383.117C681.025 383.043 681.288 380.534 681.82 376.4C681.903 376.388 681.979 376.376 682.064 376.364L682.856 376.493Z" fill="#5E5B4D"/>
<path d="M611.665 455.762C611.466 455.751 611.283 455.624 611.208 455.425C611.107 455.156 611.244 454.857 611.513 454.756C611.655 454.703 625.954 449.331 643.255 439.944C659.201 431.292 681.032 417.362 694.474 400.135C694.627 399.938 694.899 399.879 695.121 399.993C695.286 400.077 711.829 408.457 732.495 408.826C756.353 409.251 780.761 406.768 781.005 406.743C781.291 406.715 781.546 406.922 781.575 407.207C781.605 407.493 781.397 407.749 781.112 407.777C780.867 407.802 756.396 410.292 732.477 409.865C713.322 409.525 697.66 402.374 695.032 401.107C689.069 408.672 681.042 416.225 671.169 423.563C663.166 429.511 653.937 435.332 643.737 440.866C626.375 450.284 612.02 455.677 611.877 455.73C611.807 455.756 611.735 455.767 611.665 455.762Z" fill="#5E5B4D"/>
<path d="M781.002 410.97C780.993 410.969 780.983 410.969 780.973 410.967C780.688 410.935 780.483 410.678 780.515 410.392L782.476 393.107C782.508 392.822 782.76 392.613 783.051 392.649C783.336 392.681 783.541 392.939 783.509 393.224L781.548 410.51C781.517 410.786 781.276 410.987 781.002 410.97Z" fill="#5E5B4D"/>
<path d="M696.378 408.723L707.512 419.207L720.66 410.299L709.978 400.246L696.378 408.723Z" fill="#FF8C7E"/>
<path d="M764.752 411.672L716.148 442.029C715.376 441.598 714.598 440.79 713.823 439.729C710.952 435.807 708.164 428.427 706.223 423.889C705.999 423.357 705.784 422.864 705.581 422.424C705.239 421.676 704.934 421.066 704.67 420.644C702.561 417.268 705.912 415.98 705.912 415.98C713.842 417.731 714.894 407.02 719.627 407.362C719.627 407.362 721.655 407.491 727.683 408.552C733.707 409.615 741.703 407.806 748.75 406.655C757.845 405.165 761.771 406.899 763.467 408.724C764.807 410.169 764.752 411.672 764.752 411.672Z" fill="#FAB655"/>
<path d="M764.752 411.672L716.148 442.029C715.376 441.598 714.598 440.79 713.823 439.729L763.467 408.724C764.807 410.17 764.752 411.672 764.752 411.672Z" fill="#E29817"/>
<path d="M721.106 438.931L719.663 439.832C720.075 437.287 719.846 433.919 717.414 430.419C714.18 425.763 709.277 424.325 706.222 423.889C705.998 423.357 705.783 422.864 705.58 422.424C708.768 422.725 714.66 424.064 718.536 429.638C720.857 432.982 721.332 436.26 721.106 438.931Z" fill="#E29817"/>
<path d="M728.648 411.933C728.289 412.158 727.809 412.118 727.491 411.81C727.117 411.447 727.106 410.85 727.47 410.475L730.035 407.825C730.397 407.45 730.995 407.44 731.371 407.803C731.745 408.166 731.755 408.764 731.392 409.138L728.827 411.788C728.772 411.845 728.712 411.893 728.648 411.933Z" fill="#E29817"/>
<path d="M724.053 411.29C723.693 411.515 723.214 411.475 722.896 411.167C722.522 410.804 722.512 410.207 722.875 409.832L725.44 407.182C725.802 406.807 726.401 406.797 726.775 407.16C727.15 407.523 727.16 408.121 726.797 408.495L724.231 411.145C724.177 411.202 724.116 411.25 724.053 411.29Z" fill="#E29817"/>
<path d="M732.787 411.802C732.428 412.026 731.949 411.986 731.63 411.679C731.256 411.316 731.245 410.718 731.608 410.343L734.174 407.693C734.536 407.317 735.134 407.308 735.509 407.671C735.884 408.034 735.894 408.632 735.53 409.006L732.965 411.656C732.911 411.713 732.85 411.761 732.787 411.802Z" fill="#E29817"/>
<path d="M736.882 411.602C736.523 411.826 736.044 411.787 735.725 411.479C735.351 411.116 735.34 410.518 735.704 410.144L738.269 407.494C738.632 407.119 739.23 407.11 739.605 407.472C739.979 407.835 739.99 408.433 739.626 408.807L737.061 411.458C737.006 411.513 736.946 411.561 736.882 411.602Z" fill="#E29817"/>
<path d="M741.172 411.104C740.813 411.328 740.334 411.289 740.016 410.981C739.641 410.618 739.632 410.02 739.995 409.645L742.56 406.996C742.923 406.621 743.521 406.611 743.895 406.974C744.269 407.336 744.279 407.935 743.916 408.309L741.351 410.96C741.297 411.015 741.237 411.063 741.172 411.104Z" fill="#E29817"/>
<path d="M745.599 410.199C745.24 410.424 744.761 410.385 744.442 410.075C744.068 409.714 744.057 409.114 744.421 408.74L746.986 406.09C747.349 405.714 747.947 405.705 748.322 406.067C748.696 406.43 748.706 407.028 748.343 407.403L745.778 410.052C745.723 410.111 745.662 410.159 745.599 410.199Z" fill="#E29817"/>
<path d="M716.226 401.977L698.243 412.098C698.243 412.098 689.792 408.526 677.93 404.509C664.981 400.123 655.241 398.507 648.906 389.724C648.906 389.724 644.685 445.315 616.999 465.687C599.876 478.285 575.097 467.09 575.097 467.09C575.097 467.09 613.445 371.227 628.078 354.16C628.513 353.646 628.926 353.212 629.32 352.847C629.752 352.441 630.244 352.119 630.795 351.863C631.166 351.694 631.565 351.55 631.995 351.439C632.994 351.189 634.123 351.112 635.382 351.19C657.401 352.497 716.226 401.977 716.226 401.977Z" fill="#21181E"/>
<path d="M631.995 351.439C630.966 355.004 630.393 357.156 630.375 357.226C630.295 357.506 630.01 357.668 629.726 357.599C629.453 357.516 629.284 357.234 629.363 356.955C629.384 356.893 629.882 355.01 630.795 351.864C631.166 351.694 631.565 351.549 631.995 351.439Z" fill="#5E5B4D"/>
<path d="M692.822 409.879C692.593 409.967 692.326 409.882 692.193 409.665C692.044 409.42 692.12 409.099 692.365 408.951L710.67 397.759C710.914 397.609 711.234 397.686 711.384 397.931C711.534 398.176 711.457 398.495 711.212 398.645L692.908 409.837C692.88 409.853 692.851 409.867 692.822 409.879Z" fill="#5E5B4D"/>
<path d="M611.63 463.235C604.434 465.995 597.011 466.262 591.49 465.867C583.66 465.307 577.853 463.329 577.795 463.31C577.523 463.216 577.379 462.92 577.473 462.649C577.567 462.378 577.863 462.234 578.134 462.328C578.19 462.347 583.891 464.287 591.593 464.833C598.67 465.335 608.94 464.73 617.672 458.994C624.58 454.458 631.69 439.373 638.236 415.372C643.2 397.17 646.108 380.124 646.136 379.954C646.174 379.735 646.345 379.565 646.564 379.528C646.782 379.491 646.999 379.598 647.105 379.793C647.159 379.891 652.664 389.752 667.545 395.681C683.625 402.088 694.883 407.568 694.996 407.622C695.254 407.748 695.36 408.06 695.235 408.317C695.108 408.574 694.797 408.682 694.54 408.556C694.428 408.501 683.202 403.037 667.161 396.645C654.813 391.725 648.864 384.325 646.926 381.463C646.138 385.841 643.413 400.336 639.238 415.644C632.53 440.239 625.467 455.116 618.243 459.861C616.105 461.268 613.878 462.373 611.63 463.235Z" fill="#5E5B4D"/>
<path d="M612.53 470.817C612.026 471.011 611.492 471.18 610.928 471.325C603.865 473.141 593.753 470.663 587.909 465.683C587.559 465.385 587.517 464.86 587.815 464.51C588.113 464.16 588.637 464.119 588.987 464.416C594.463 469.083 603.919 471.409 610.514 469.714C612.573 469.184 615.235 468.005 616.223 465.393C622.02 450.069 585.544 433.153 585.175 432.984C584.758 432.793 584.575 432.3 584.766 431.882C584.957 431.464 585.45 431.281 585.868 431.472C585.963 431.515 595.449 435.888 604.055 442.202C609.146 445.936 612.948 449.618 615.358 453.144C618.465 457.692 619.279 462.011 617.778 465.981C616.954 468.158 615.154 469.81 612.53 470.817Z" fill="#FAB655"/>
<path d="M594.112 421.598C594.112 421.598 585.845 436.829 589.773 448.848C593.702 460.867 592.896 474.932 584.751 476.176C579.117 477.035 561.857 467.085 561.857 467.085C561.857 467.085 580.197 429.569 594.112 421.598Z" fill="#8606E2"/>
<path d="M616.603 373.124C603.105 358.614 567.39 326.778 567.39 326.778C574.193 345.899 581.925 364.581 591.072 376.874L602.264 403.147L616.603 373.124Z" fill="#8606E2"/>
<path d="M583.285 365.934C583.108 365.934 582.935 365.843 582.838 365.68C578.337 358.102 572.585 342.145 572.527 341.985C572.43 341.715 572.571 341.417 572.841 341.321C573.111 341.224 573.409 341.364 573.506 341.633C573.563 341.793 579.282 357.658 583.731 365.149C583.877 365.395 583.796 365.714 583.549 365.861C583.467 365.911 583.375 365.934 583.285 365.934Z" fill="#560094"/>
<path d="M574.95 370.763L559.377 414.757C558.529 417.155 560.127 419.726 562.248 419.375L566.459 419.54L594.681 413.999C595.645 413.84 596.478 413.077 596.874 411.993L611.787 371.169C612.625 368.874 611.198 366.347 609.146 366.489L577.374 368.693C576.314 368.769 575.372 369.572 574.95 370.763Z" fill="#E29817"/>
<path d="M579.162 370.928L563.589 414.923C562.74 417.32 564.34 419.892 566.459 419.541L598.893 414.165C599.857 414.005 600.689 413.243 601.085 412.159L615.998 371.336C616.836 369.041 615.41 366.514 613.357 366.656L581.585 368.86C580.524 368.934 579.583 369.737 579.162 370.928Z" fill="#FAB655"/>
<path d="M571.976 409.438C571.976 409.438 580.134 409.544 580.146 411.487C580.154 413.545 572.527 413.082 572.527 413.082C572.527 413.082 576.089 414.386 575.922 415.317C575.501 417.671 565.422 416.725 562.913 416.333C560.404 415.943 553.558 415.446 550.41 414.388C548.275 413.67 547.505 408.001 549.14 404.026C549.654 402.77 551.03 401.382 552.454 400.292C554.327 398.856 557.583 397.28 559.653 396.871C560.98 396.611 563.428 396.225 565.964 395.988L564.664 401.102C564.345 401.307 564.176 401.461 564.176 401.461C564.176 401.461 579.233 399.053 580.384 400.811C581.924 403.162 575.33 403.997 572.384 404.184C572.384 404.184 580.835 404.998 581.526 406.213C582.914 408.649 571.976 409.438 571.976 409.438Z" fill="#F28F79"/>
<path d="M608.472 392.097L609.58 388.998C609.58 388.998 611.068 392.22 609.611 395.557C608.155 398.894 606.955 403.222 606.304 405.276C605.653 407.329 605.151 411.825 603.715 412.772C602.28 413.72 600.129 413.274 597.595 412.103C595.061 410.932 594.929 409.456 596.537 409.18C598.146 408.903 603.047 408.508 603.047 408.508C603.047 408.508 601.296 407.611 597.91 407.051C594.523 406.49 594.692 405.149 597.042 404.143C599.391 403.136 604.504 403.477 604.504 403.477C604.504 403.477 600.473 402.288 598.095 401.605C595.717 400.922 597.274 398.246 601.249 398.746C605.223 399.245 605.985 399.089 605.985 399.089C605.985 399.089 604.593 397.399 601.667 396.696C598.741 395.993 597.15 394.504 598.737 393.363C600.323 392.221 607.612 394.473 607.612 394.473L608.472 392.097Z" fill="#F28F79"/>
<path d="M595.677 393.112C595.155 395.384 592.89 397.226 590.619 397.226C588.347 397.226 586.928 395.385 587.451 393.112C587.973 390.841 590.237 388.999 592.509 388.999C594.78 388.999 596.199 390.84 595.677 393.112Z" fill="#E29817"/>
<path d="M518.67 300.387C518.67 300.387 514.033 287.918 519.903 279.141C524.791 271.833 533.291 274.315 533.291 274.315C533.291 274.315 540.575 269.171 550.682 272.389C556.401 274.212 568.983 283.877 558.21 299.862L555.158 299.632C555.158 299.632 550.121 282.812 541.699 283.695C533.277 284.578 528.768 302.278 528.768 302.278L518.67 300.387Z" fill="#21181E"/>
<path d="M553.966 302.601C553.966 302.601 555.705 298.953 556.389 294.816C557.047 290.827 555.365 289.484 555.365 289.484C555.365 289.484 556.904 284.966 549.969 279.796C544.493 275.713 531.558 273.293 523.421 280.279C518.786 284.258 519.293 291.412 518.488 298.252C517.655 305.334 521.486 314.057 521.486 314.057C521.486 314.057 522.946 320.945 531.142 317.122C537.478 314.164 546.486 301.213 553.966 302.601Z" fill="#21181E"/>
<path d="M521.108 307.94C521.108 307.94 521.396 311.682 518.419 315.378C517.59 316.407 517.825 317.923 518.907 318.683C520.821 320.027 523.762 321.589 526.37 320.867C526.37 320.867 524.346 309.796 521.108 307.94Z" fill="#21181E"/>
<path d="M542.911 326.236L542.403 331.554C541.733 331.998 541.062 332.375 540.394 332.694C530.63 337.358 521.323 329.543 521.323 329.543L523.083 311.103L540.546 324.431L542.911 326.236Z" fill="#F28F79"/>
<path d="M542.925 326.083L542.403 331.554C541.733 331.998 541.062 332.375 540.394 332.694C532.829 328.831 527.892 320.034 527.892 320.034L540.546 324.431L542.925 326.083Z" fill="#21181E"/>
<path d="M551.806 303.3C551.806 303.3 555.167 300.02 556.534 303.752C557.901 307.483 555.898 314.581 551.414 312.96L551.806 303.3Z" fill="#FF6A5F"/>
<path d="M553.833 316.122C553.833 316.122 552.8 327.119 541.365 326.003C530 324.897 523.107 315.231 522.743 314.78C522.736 314.773 522.731 314.769 522.731 314.769L522.827 312.445L523.326 300.389L523.591 293.945C523.591 293.945 523.241 282.263 534.413 281.204C542.575 280.43 549.965 282.478 553.358 287.022C553.468 287.169 553.573 287.318 553.672 287.471C554.726 289.055 555.315 290.919 555.318 293.053L554.574 304.602L554.391 307.432L553.833 316.122Z" fill="#F28F79"/>
<path d="M534.331 293.94C534.789 295.282 536.235 296.01 537.584 295.576C538.372 295.323 539.295 295.089 540.255 294.973C541.617 294.81 542.569 293.548 542.334 292.197C542.334 292.197 537.055 291.201 534.331 293.94Z" fill="#21181E"/>
<path d="M555.014 295.914C554.311 297.144 552.753 297.587 551.51 296.905C550.784 296.508 549.922 296.102 549.002 295.808C547.695 295.39 546.999 293.97 547.486 292.688C547.486 292.688 552.857 292.708 555.014 295.914Z" fill="#21181E"/>
<path d="M528.27 301.322C528.411 302.594 527.44 303.677 526.209 303.325C524.94 302.87 523.327 300.39 523.327 300.39L523.592 293.946C523.592 293.946 523.242 282.264 534.414 281.205C542.576 280.431 549.966 282.479 553.359 287.023C553.469 287.17 553.574 287.319 553.673 287.472C551.939 286.666 550.587 287.133 547.675 288.094C543.464 289.483 539.459 286.762 535.299 285.033C531.833 283.592 529.344 286.521 530.528 288.515C530.528 288.515 531.913 290.563 529.983 294.275C528.052 297.986 527.96 298.537 528.27 301.322Z" fill="#21181E"/>
<path d="M539.523 304.595C539.446 305.395 537.735 305.887 535.702 305.693C533.668 305.499 532.081 304.693 532.158 303.892C532.234 303.091 533.945 302.6 535.978 302.794C538.012 302.989 539.599 303.795 539.523 304.595Z" fill="#FF6A5F"/>
<path d="M554.393 307.433C554.106 307.434 553.806 307.421 553.501 307.391C551.469 307.197 549.882 306.39 549.958 305.59C550.034 304.79 551.745 304.297 553.778 304.491C554.053 304.517 554.32 304.555 554.574 304.602L554.393 307.433Z" fill="#FF6A5F"/>
<path d="M540.744 300.78C540.639 301.879 540.055 302.723 539.44 302.664C538.825 302.606 538.411 301.667 538.517 300.567C538.621 299.467 539.205 298.624 539.82 298.682C540.435 298.742 540.848 299.68 540.744 300.78Z" fill="#21181E"/>
<path d="M551.792 301.834C551.688 302.933 551.104 303.777 550.489 303.718C549.873 303.66 549.46 302.721 549.565 301.621C549.67 300.521 550.253 299.677 550.869 299.736C551.484 299.796 551.898 300.734 551.792 301.834Z" fill="#21181E"/>
<path d="M545.893 311.726C541.875 311.343 538.913 307.582 538.874 307.531C538.72 307.333 538.757 307.048 538.955 306.894C539.154 306.74 539.439 306.777 539.593 306.975C539.786 307.223 544.379 313.035 549.687 309.964C549.904 309.838 550.182 309.912 550.308 310.13C550.434 310.347 550.36 310.625 550.142 310.751C548.656 311.611 547.217 311.851 545.893 311.726Z" fill="#21181E"/>
<path d="M526.749 310.661C526.685 310.778 524.918 313.997 522.743 314.781C522.737 314.774 522.733 314.769 522.733 314.769L522.829 312.446C522.829 312.446 524.664 312.31 526.749 310.661Z" fill="#21181E"/>
<path d="M525.464 302.832C525.464 302.832 521.631 296.506 517.968 300.84C514.949 304.411 519.016 314.855 524.596 311.941L525.464 302.832Z" fill="#F28F79"/>
<path d="M524.164 310.107C523.936 310.085 523.757 309.895 523.753 309.66C523.69 305.145 520.095 303.229 519.942 303.15C519.72 303.035 519.632 302.76 519.748 302.538C519.863 302.315 520.135 302.227 520.359 302.342C520.532 302.431 524.593 304.573 524.663 309.648C524.666 309.899 524.466 310.105 524.214 310.109C524.196 310.11 524.18 310.109 524.164 310.107Z" fill="#21181E"/>
<path d="M520.204 306.962C520.072 306.949 519.946 306.88 519.868 306.761C519.728 306.553 519.785 306.271 519.993 306.131C520.188 306.002 521.933 304.88 523.257 305.356C523.494 305.441 523.616 305.701 523.531 305.938C523.445 306.174 523.185 306.296 522.949 306.211C522.187 305.937 520.921 306.607 520.496 306.888C520.408 306.947 520.303 306.971 520.204 306.962Z" fill="#21181E"/>
<path d="M522.1 304C522.1 304 519.814 303.689 520.056 305.681C520.299 307.673 522.148 307.258 522.148 307.258L522.629 312.29C522.707 313.117 523.46 313.712 524.283 313.598L523.968 307.389C523.968 307.389 523.45 304.865 522.1 304Z" fill="white"/>
<path d="M561.957 302.676L554.721 302.37L554.655 303.339C554.985 303.372 555.193 303.364 555.198 303.364L561.924 303.606C562.182 303.615 562.397 303.414 562.406 303.158C562.416 302.9 562.226 302.678 561.957 302.676Z" fill="white"/>
<path d="M536.386 308.475C532.062 308.169 528.793 304.401 529.1 300.076C529.406 295.751 533.174 292.482 537.499 292.79C541.824 293.096 545.093 296.864 544.785 301.189C544.479 305.512 540.711 308.781 536.386 308.475ZM537.433 293.718C533.621 293.447 530.299 296.329 530.028 300.142C529.758 303.954 532.639 307.276 536.452 307.547C540.264 307.817 543.585 304.935 543.856 301.122C544.127 297.31 541.246 293.989 537.433 293.718Z" fill="white"/>
<path d="M554.91 309.788C550.585 309.482 547.316 305.714 547.623 301.389C547.929 297.064 551.697 293.796 556.022 294.103C560.347 294.409 563.616 298.177 563.309 302.502C563.001 306.826 559.233 310.094 554.91 309.788ZM555.956 295.031C552.144 294.76 548.822 297.642 548.551 301.455C548.281 305.268 551.163 308.589 554.975 308.86C558.787 309.13 562.109 306.248 562.379 302.436C562.65 298.623 559.768 295.302 555.956 295.031Z" fill="white"/>
<path d="M544.58 306.217C544.33 306.193 544.147 305.971 544.171 305.722C544.195 305.472 544.417 305.289 544.666 305.313C546.33 305.471 547.192 304.667 547.487 304.311C546.037 300.42 544.602 296.5 544.588 296.46C544.501 296.225 544.622 295.964 544.858 295.878C545.094 295.791 545.355 295.912 545.441 296.148C545.456 296.189 546.946 300.26 548.423 304.223C548.471 304.351 548.458 304.494 548.389 304.612C548.344 304.687 547.26 306.472 544.58 306.217Z" fill="#21181E"/>
<path d="M519.941 299.439C522.871 295.579 529.852 298.492 529.925 298.522C530.164 298.624 530.271 298.896 530.171 299.132C530.07 299.368 529.799 299.479 529.561 299.379C529.498 299.354 524.087 297.099 521.294 299.376C520.965 299.316 520.464 299.369 519.941 299.439Z" fill="white"/>
<path d="M548.228 300.209C548.108 300.201 547.992 300.146 547.907 300.048C546.712 298.651 544.684 299.621 544.663 299.631C544.432 299.743 544.154 299.648 544.041 299.417C543.928 299.186 544.024 298.908 544.254 298.795C545.183 298.341 547.287 297.893 548.614 299.443C548.781 299.638 548.759 299.932 548.563 300.1C548.467 300.182 548.346 300.218 548.228 300.209Z" fill="white"/>
<path d="M768.644 419.511H661.608C661.37 419.511 661.176 419.318 661.176 419.079C661.176 415.757 663.87 413.063 667.192 413.063H768.644C768.882 413.063 769.076 413.256 769.076 413.495V419.079C769.076 419.318 768.882 419.511 768.644 419.511Z" fill="#5E5B4D"/>
<path d="M804.381 360.37L791.021 416.873C790.665 418.38 789.321 419.442 787.774 419.442H705.475C703.322 419.442 701.731 417.432 702.226 415.338L715.586 358.835C715.942 357.328 717.286 356.266 718.834 356.266H801.133C803.285 356.266 804.876 358.276 804.381 360.37Z" fill="#21181E"/>
<path d="M787.472 393.073L786.921 395.739L789.449 395.74L789.167 398.914L786.242 398.913L785.628 401.812L782.285 401.81L782.899 398.911L780.831 398.91L780.218 401.809L776.875 401.807L777.488 398.908L774.961 398.907L775.243 395.733L778.168 395.734L778.719 393.068L776.191 393.067L776.474 389.893L779.399 389.894L780.012 386.995L783.355 386.997L782.741 389.896L784.809 389.897L785.423 386.998L788.765 387L788.152 389.899L790.68 389.9L790.397 393.074L787.472 393.073ZM784.13 393.071L782.062 393.07L781.511 395.736L783.579 395.737L784.13 393.071Z" fill="#8606E2"/>
<path d="M795.139 372.012C794.31 376.456 790.034 380.059 785.589 380.059C781.144 380.059 778.213 376.456 779.043 372.012C779.872 367.567 784.148 363.964 788.593 363.964C793.038 363.964 795.968 367.567 795.139 372.012Z" fill="#FAB655"/>
<path d="M786.049 370.472C785.883 371.361 785.435 372.082 785.049 372.082C784.662 372.082 784.483 371.361 784.649 370.472C784.815 369.583 785.263 368.862 785.65 368.862C786.035 368.862 786.214 369.583 786.049 370.472Z" fill="black"/>
<path d="M790.247 370.472C790.081 371.361 789.633 372.082 789.247 372.082C788.86 372.082 788.681 371.361 788.847 370.472C789.013 369.583 789.461 368.862 789.848 368.862C790.234 368.862 790.413 369.583 790.247 370.472Z" fill="black"/>
<path d="M786.43 375.93C782.969 375.93 782.822 372.47 782.821 372.436C782.815 372.247 782.97 372.06 783.167 372.019C783.364 371.978 783.527 372.098 783.534 372.286C783.538 372.412 783.673 375.23 786.561 375.23C789.453 375.23 790.638 372.406 790.687 372.286C790.764 372.098 790.974 371.979 791.154 372.02C791.334 372.061 791.42 372.248 791.343 372.436C791.329 372.47 789.891 375.93 786.43 375.93Z" fill="black"/>
<path d="M722.095 356.266L707.87 419.443H705.474C703.321 419.443 701.73 417.433 702.225 415.339L715.585 358.836C715.941 357.329 717.285 356.267 718.833 356.267L722.095 356.266Z" fill="#5E5B4D"/>
<path d="M763.716 390.064C763.301 393.519 760.165 396.32 756.71 396.32C753.255 396.32 750.791 393.519 751.205 390.064C751.62 386.609 754.756 383.809 758.212 383.809C761.667 383.809 764.131 386.61 763.716 390.064Z" fill="#5E5B4D"/>
<path d="M869.191 443.775H525.393C520.037 443.775 515.694 439.433 515.694 434.076V432.668H878.89V434.076C878.89 439.432 874.547 443.775 869.191 443.775Z" fill="#1F6BE6"/>
<path d="M843.402 510.512H549.585V518.126H843.402V510.512Z" fill="#1F6BE6"/>
<path d="M573.328 443.779L572.195 448.474L556.422 513.869L549.779 541.411L535.494 600.634H522.208L543.136 513.869L549.779 486.326L558.602 449.75L560.042 443.779H573.328Z" fill="#6F99FF"/>
<path d="M573.328 443.779L572.195 448.474L558.602 449.75L560.042 443.779H573.328Z" fill="#1F6BE6"/>
<path d="M543.026 514.319L549.777 541.411L545.98 557.157L541.41 521.02L543.026 514.319Z" fill="#1F6BE6"/>
<path d="M577.35 600.634H564.064L549.779 541.411L543.136 513.869L528.352 452.582L526.23 443.779H539.517L541.35 451.363L549.779 486.326L556.422 513.869L577.35 600.634Z" fill="#6F99FF"/>
<path d="M541.35 451.363L528.352 452.582L526.23 443.779H539.517L541.35 451.363Z" fill="#1F6BE6"/>
<path d="M866.953 443.779L865.811 448.512L850.048 513.878L843.405 541.421L829.12 600.634H815.833L836.762 513.878L843.405 486.336L852.218 449.779L853.667 443.779H866.953Z" fill="#6F99FF"/>
<path d="M866.954 443.779L865.811 448.512L852.218 449.779L853.667 443.779H866.954Z" fill="#1F6BE6"/>
<path d="M870.966 600.634H857.68L843.405 541.421L836.762 513.878L821.987 452.611L819.856 443.779H833.142L834.976 451.392L843.405 486.336L850.048 513.878L870.966 600.634Z" fill="#6F99FF"/>
<path d="M834.976 451.392L821.987 452.611L819.856 443.779H833.142L834.976 451.392Z" fill="#1F6BE6"/>
<path d="M850.153 514.319L843.401 541.411L847.199 557.157L851.769 521.02L850.153 514.319Z" fill="#1F6BE6"/>
<path d="M887.688 423.937V428.238C887.688 430.714 885.309 432.719 882.372 432.719H512.636C509.701 432.719 507.322 430.714 507.322 428.238V423.937C507.322 421.463 509.701 419.458 512.636 419.458H882.371C885.309 419.458 887.688 421.463 887.688 423.937Z" fill="#6F99FF"/>
<path d="M887.687 426.087H507.322V428.055H887.687V426.087Z" fill="#1F6BE6"/>
<path d="M848.67 418.053L851.86 410.656L845.711 408.078C845.711 408.078 843.156 412.521 841.506 416.166C840.807 417.709 841.929 419.458 843.624 419.458H846.534C847.462 419.458 848.302 418.905 848.67 418.053Z" fill="#8606E2"/>
<path d="M862.112 418.053L858.923 410.656L865.072 408.078C865.072 408.078 867.626 412.521 869.277 416.166C869.976 417.709 868.853 419.458 867.159 419.458H864.248C863.32 419.458 862.48 418.905 862.112 418.053Z" fill="#8606E2"/>
<path d="M864.95 382.168C864.95 387.616 860.532 392.034 855.084 392.034C849.633 392.034 845.214 387.616 845.214 382.168C845.214 379.993 845.917 377.985 847.109 376.355C847.109 376.355 845.58 369.175 847.109 368.877C848.636 368.579 851.977 372.799 851.977 372.799C852.953 372.474 853.996 372.299 855.083 372.299C856.101 372.299 857.08 372.453 858.005 372.739C858.419 372.228 861.407 368.601 862.826 368.877C864.188 369.142 863.123 374.864 862.876 376.114C864.176 377.786 864.95 379.886 864.95 382.168Z" fill="#8606E2"/>
<path d="M868.445 407.408C867.845 408.872 867.001 410.135 866.024 411.221C860.219 417.675 849.944 417.675 844.139 411.221C843.163 410.135 842.318 408.872 841.718 407.408C838.519 399.597 850.718 389.109 850.718 389.109L855.083 389.629L859.445 389.109C859.445 389.109 871.644 399.598 868.445 407.408Z" fill="#8606E2"/>
<path d="M855.082 412.193C851.99 412.193 849.049 410.896 847.015 408.635C846.266 407.802 845.688 406.896 845.298 405.942C843.988 402.744 848.202 396.859 852.022 393.16L855.084 393.526L858.143 393.16C861.961 396.857 866.177 402.744 864.867 405.942C864.477 406.896 863.899 407.802 863.15 408.635C861.115 410.896 858.174 412.193 855.082 412.193Z" fill="#560094"/>
<path d="M848.624 391.113C848.624 391.113 843.003 393.722 838.668 398.709C835.507 402.346 841.37 406.306 841.37 406.306L848.624 391.113Z" fill="#8606E2"/>
<path d="M861.461 391.113C861.461 391.113 867.083 393.722 871.418 398.709C874.579 402.346 868.716 406.306 868.716 406.306L861.461 391.113Z" fill="#8606E2"/>
<path d="M803.215 540.993L803.156 596.098C803.153 598.265 801.389 600.026 799.222 600.023L709.522 599.927C707.35 599.925 705.594 598.16 705.596 595.993L705.655 540.888C705.656 538.715 707.416 536.96 709.589 536.962L799.288 537.058C801.456 537.061 803.216 538.819 803.215 540.993Z" fill="#752F00"/>
<path d="M803.182 570.876L803.214 540.993C803.216 538.819 801.455 537.061 799.288 537.059L709.589 536.963C707.416 536.96 705.656 538.716 705.655 540.889L705.623 570.772L803.182 570.876Z" fill="#954F1B"/>
<path d="M768.289 528.281L768.279 537.022L763.847 537.021L763.854 528.526L759.547 528.522H759.334L756.717 528.519L756.394 528.52L745.042 528.505L745.031 537.003L740.596 536.997L740.606 528.256C740.609 525.945 742.492 524.065 744.799 524.07L755.447 524.078H756.246L757.729 524.082L758.039 524.08L764.108 524.088C766.414 524.092 768.292 525.97 768.289 528.281Z" fill="#FAB655"/>
<path d="M730.155 566.435L730.145 575.165C730.145 575.636 729.762 576.018 729.291 576.017L724.812 576.013C724.341 576.012 723.959 575.63 723.96 575.158L723.969 566.428C723.97 565.952 724.352 565.569 724.824 565.57L729.302 565.575C729.773 565.575 730.155 565.959 730.155 566.435Z" fill="#E29817"/>
<path d="M730.155 566.435L730.15 570.797L723.964 570.79L723.968 566.428C723.969 565.952 724.351 565.569 724.823 565.57L729.301 565.575C729.773 565.575 730.155 565.959 730.155 566.435Z" fill="#FAB655"/>
<path d="M784.849 566.494L784.839 575.224C784.839 575.696 784.456 576.078 783.985 576.077L779.5 576.072C779.029 576.072 778.647 575.689 778.648 575.218L778.658 566.487C778.659 566.01 779.041 565.628 779.512 565.629L783.996 565.634C784.467 565.634 784.85 566.017 784.849 566.494Z" fill="#E29817"/>
<path d="M784.849 566.494L784.844 570.856L778.652 570.85L778.657 566.487C778.658 566.01 779.04 565.628 779.511 565.629L783.995 565.634C784.468 565.634 784.85 566.017 784.849 566.494Z" fill="#FAB655"/>
<path d="M979.435 292.232H842.505L839.505 284.271H982.855L979.435 292.232Z" fill="#FFD0A4"/>
<path d="M982.855 274.812H839.505V284.272H982.855V274.812Z" fill="#954F1B"/>
<path d="M854.112 284.271L857.944 292.304H866.977L869.548 284.271H854.112Z" fill="#752F00"/>
<path d="M968.248 284.271L964.416 292.304H955.383L952.812 284.271H968.248Z" fill="#752F00"/>
<path d="M882.279 268.226H883.147V266.93H850.329C849.243 266.93 848.255 267.37 847.544 268.084C846.831 268.796 846.39 269.78 846.39 270.87C846.39 273.047 848.153 274.81 850.329 274.81H883.147V273.687H882.279V268.226Z" fill="#8606E2"/>
<path d="M882.504 268.226V273.687H852.391C850.921 273.687 849.73 272.464 849.73 270.958C849.73 270.202 850.029 269.521 850.509 269.026C850.992 268.532 851.655 268.226 852.391 268.226H882.504Z" fill="white"/>
<path d="M882.504 269.609V270.445H853.169C852.941 270.445 852.752 270.256 852.752 270.028V270.025C852.752 269.797 852.941 269.608 853.169 269.608L882.504 269.609Z" fill="#FFE2C8"/>
<path d="M882.504 271.665V272.5H853.169C852.941 272.5 852.752 272.313 852.752 272.083V272.08C852.752 271.852 852.941 271.664 853.169 271.664L882.504 271.665Z" fill="#FFE2C8"/>
<path d="M882.279 260.711H883.147V259.416H850.329C849.243 259.416 848.255 259.856 847.544 260.57C846.831 261.282 846.39 262.266 846.39 263.356C846.39 265.533 848.153 267.296 850.329 267.296H883.147V266.173H882.279V260.711Z" fill="#6F99FF"/>
<path d="M882.504 260.711V266.173H852.391C850.921 266.173 849.73 264.949 849.73 263.444C849.73 262.689 850.029 262.007 850.509 261.512C850.992 261.018 851.655 260.712 852.391 260.712L882.504 260.711Z" fill="white"/>
<path d="M882.504 262.093V262.929H853.169C852.941 262.929 852.752 262.741 852.752 262.512V262.509C852.752 262.281 852.941 262.093 853.169 262.093L882.504 262.093Z" fill="#FFE2C8"/>
<path d="M882.504 264.15V264.985H853.169C852.941 264.985 852.752 264.798 852.752 264.568V264.566C852.752 264.338 852.941 264.15 853.169 264.15H882.504Z" fill="#FFE2C8"/>
<path d="M920.225 268.226H921.093V266.93H888.275C887.188 266.93 886.201 267.37 885.489 268.084C884.777 268.796 884.335 269.78 884.335 270.87C884.335 273.047 886.099 274.81 888.276 274.81H921.094V273.687H920.226L920.225 268.226Z" fill="#018C87"/>
<path d="M920.45 268.226V273.687H890.335C888.866 273.687 887.675 272.464 887.675 270.958C887.675 270.202 887.974 269.521 888.454 269.026C888.937 268.532 889.6 268.226 890.335 268.226H920.45Z" fill="white"/>
<path d="M920.45 269.609V270.445H891.115C890.886 270.445 890.698 270.256 890.698 270.028V270.025C890.698 269.797 890.885 269.608 891.115 269.608L920.45 269.609Z" fill="#FFE2C8"/>
<path d="M920.45 271.665V272.5H891.115C890.886 272.5 890.698 272.313 890.698 272.083V272.08C890.698 271.852 890.885 271.664 891.115 271.664L920.45 271.665Z" fill="#FFE2C8"/>
<path d="M920.225 260.345H921.093V259.05H888.275C887.188 259.05 886.201 259.49 885.489 260.204C884.777 260.917 884.335 261.901 884.335 262.99C884.335 265.167 886.099 266.93 888.276 266.93H921.094V265.808H920.226L920.225 260.345Z" fill="#FAB655"/>
<path d="M920.45 260.345V265.807H890.335C888.866 265.807 887.675 264.584 887.675 263.077C887.675 262.322 887.974 261.64 888.454 261.145C888.937 260.651 889.6 260.345 890.335 260.345H920.45Z" fill="white"/>
<path d="M920.45 261.729V262.564H891.115C890.886 262.564 890.698 262.377 890.698 262.147V262.144C890.698 261.916 890.885 261.728 891.115 261.728L920.45 261.729Z" fill="#FFE2C8"/>
<path d="M920.45 263.784V264.619H891.115C890.886 264.619 890.698 264.432 890.698 264.203V264.2C890.698 263.971 890.885 263.783 891.115 263.783L920.45 263.784Z" fill="#FFE2C8"/>
<path d="M938.754 261.165L939.025 263.478L939.12 264.285L939.398 266.659L939.492 267.466L940.354 274.811H964.747L965.608 267.466L965.702 266.659L965.981 264.285L966.076 263.478L966.346 261.165L966.442 260.358L967.012 255.493H938.089L938.659 260.358L938.754 261.165Z" fill="#FAB655"/>
<path d="M966.442 260.358L966.346 261.165H938.754L938.659 260.358H966.442Z" fill="#E29817"/>
<path d="M966.076 263.478L965.981 264.285H939.12L939.025 263.478H966.076Z" fill="#E29817"/>
<path d="M965.702 266.659L965.608 267.466H939.493L939.398 266.659H965.702Z" fill="#E29817"/>
<path d="M945.734 242.131C945.734 242.131 939.286 234.027 935.855 239.867C932.425 245.709 939.834 250.374 945.048 250.511C950.262 250.648 945.734 242.131 945.734 242.131Z" fill="#3B685F"/>
<path d="M959.003 247.786C959.003 247.786 964.383 241.025 967.244 245.897C970.106 250.77 963.924 254.661 959.576 254.776C955.226 254.89 959.003 247.786 959.003 247.786Z" fill="#3B685F"/>
<path d="M960.478 255.493V238.859C960.478 234.48 956.929 230.932 952.55 230.932C948.173 230.932 944.624 234.481 944.624 238.859V255.494L960.478 255.493Z" fill="#018C87"/>
<path d="M813.678 266.54C827.012 263.787 835.589 250.747 832.836 237.413C830.084 224.079 817.043 215.501 803.709 218.254C790.375 221.007 781.798 234.048 784.55 247.382C787.303 260.715 800.344 269.293 813.678 266.54Z" fill="#FFD0A4"/>
<path d="M808.667 263.857C822.282 263.857 833.318 252.821 833.318 239.206C833.318 225.592 822.282 214.555 808.667 214.555C795.053 214.555 784.016 225.592 784.016 239.206C784.016 252.821 795.053 263.857 808.667 263.857Z" fill="#FAB655"/>
<path d="M808.667 259.246C819.735 259.246 828.707 250.274 828.707 239.206C828.707 228.138 819.735 219.166 808.667 219.166C797.599 219.166 788.627 228.138 788.627 239.206C788.627 250.274 797.599 259.246 808.667 259.246Z" fill="white"/>
<path d="M788.627 239.206C788.627 239.74 788.648 240.268 788.689 240.789C789.499 230.476 798.151 222.331 808.666 222.331C819.184 222.331 827.834 230.476 828.644 240.789C828.685 240.268 828.706 239.74 828.706 239.206C828.706 228.155 819.718 219.166 808.666 219.166C797.618 219.166 788.627 228.156 788.627 239.206Z" fill="#FFDECB"/>
<path d="M807.286 240.167C807.339 240.313 807.458 240.43 807.613 240.476L823.408 245.201C823.673 245.281 823.952 245.13 824.032 244.864C824.112 244.599 823.961 244.32 823.695 244.24L808.282 239.629L809.061 227.749C809.079 227.474 808.87 227.234 808.593 227.217C808.317 227.198 808.079 227.408 808.061 227.684L807.256 239.963C807.252 240.034 807.263 240.103 807.286 240.167Z" fill="#291D2C"/>
<path d="M994.104 601.596C994.104 604.166 968.742 606.249 937.457 606.249C906.172 606.249 880.81 604.166 880.81 601.596C880.81 599.026 906.173 596.943 937.457 596.943C968.742 596.943 994.104 599.026 994.104 601.596Z" fill="#E0B5FF"/>
<path d="M971.703 561.917H901.095C900.645 561.917 900.281 561.552 900.281 561.103V557.01C900.281 556.56 900.646 556.196 901.095 556.196H971.703C972.153 556.196 972.517 556.561 972.517 557.01V561.103C972.518 561.552 972.153 561.917 971.703 561.917Z" fill="#752F00"/>
<path d="M903.456 492.798H969.487C970.585 492.798 971.475 493.688 971.475 494.785V502.897C971.475 503.994 970.585 504.884 969.487 504.884H903.456C902.358 504.884 901.469 503.994 901.469 502.897V494.785C901.468 493.688 902.357 492.798 903.456 492.798Z" fill="#B16B2F"/>
<path d="M935.913 429.343C935.913 429.343 900.19 350.521 935.404 344.393C962.316 339.712 959.337 393.999 935.913 429.343Z" fill="#018C87"/>
<path d="M935.32 480.068C935.317 480.068 935.315 480.068 935.313 480.068C934.989 480.064 934.729 479.799 934.732 479.474C935.015 452.538 936.991 376.943 937.012 376.183C937.02 375.859 937.286 375.601 937.614 375.611C937.939 375.619 938.194 375.889 938.187 376.214C938.166 376.974 936.191 452.56 935.908 479.487C935.904 479.808 935.642 480.068 935.32 480.068Z" fill="#3B685F"/>
<path d="M927.768 450.321C927.768 450.321 874.006 399.302 893.386 379.204C914.76 357.04 931.084 414.041 927.768 450.321Z" fill="#018C87"/>
<path d="M933.513 475.464C933.21 475.464 932.952 475.231 932.928 474.923C931.23 453.319 909.709 406 909.492 405.525C909.358 405.231 909.487 404.882 909.782 404.747C910.077 404.612 910.425 404.742 910.56 405.037C910.778 405.514 932.385 453.02 934.099 474.831C934.124 475.154 933.883 475.436 933.559 475.462C933.545 475.463 933.528 475.464 933.513 475.464Z" fill="#3B685F"/>
<path d="M944.357 448.974C944.357 448.974 1000.53 400.624 982.151 379.61C961.879 356.436 942.806 412.575 944.357 448.974Z" fill="#018C87"/>
<path d="M937.426 473.81C937.401 473.81 937.376 473.808 937.351 473.805C937.03 473.764 936.802 473.47 936.843 473.149C939.614 451.447 963.502 405.046 963.743 404.58C963.891 404.292 964.247 404.179 964.535 404.328C964.823 404.477 964.935 404.831 964.786 405.119C964.546 405.584 940.753 451.801 938.008 473.296C937.97 473.594 937.717 473.81 937.426 473.81Z" fill="#3B685F"/>
<path d="M966.7 460.675L965.869 462.88L965.345 464.276L963.839 468.276L963.312 469.672L961.764 473.78L961.24 475.175L954.602 492.799H918.342L911.705 475.175L911.181 473.78L909.633 469.672L909.106 468.276L907.6 464.276L907.076 462.88L906.244 460.675C905.674 459.164 906.791 457.552 908.405 457.552H964.54C966.152 457.552 967.268 459.164 966.7 460.675Z" fill="#8606E2"/>
<path d="M965.869 462.88L965.345 464.275H907.599L907.075 462.88H965.869Z" fill="#560094"/>
<path d="M963.838 468.276L963.312 469.671H909.632L909.105 468.276H963.838Z" fill="#560094"/>
<path d="M961.764 473.779L961.239 475.174H911.705L911.18 473.779H961.764Z" fill="#560094"/>
<path d="M926.759 504.885L924.748 511.369L896.756 601.596H891.285L909.037 513.21L910.71 504.885H926.759Z" fill="#954F1B"/>
<path d="M910.709 504.885H926.759L924.748 511.369L909.037 513.21L910.709 504.885Z" fill="#752F00"/>
<path d="M981.822 601.596H976.35L947.531 508.699L946.348 504.885H962.395L962.8 506.907H962.803L981.822 601.596Z" fill="#954F1B"/>
<path d="M962.8 506.907L947.531 508.699L946.348 504.885H962.395L962.8 506.907Z" fill="#752F00"/>
<path d="M970.563 549.476H902.237C901.157 549.476 900.282 548.601 900.282 547.521V545.711C900.282 544.631 901.157 543.756 902.237 543.756H970.563C971.643 543.756 972.518 544.631 972.518 545.711V547.521C972.518 548.601 971.643 549.476 970.563 549.476Z" fill="#B16B2F"/>
<path d="M463.925 601.092C463.925 603.218 447.039 604.942 426.211 604.942C405.382 604.942 388.497 603.218 388.497 601.092C388.497 598.965 405.383 597.241 426.211 597.241C447.04 597.241 463.925 598.965 463.925 601.092Z" fill="#E0B5FF"/>
<path d="M453.51 589.712H399.883C399.017 589.712 398.314 589.01 398.314 588.143V587.85C398.314 586.984 399.016 586.282 399.882 586.282H453.51C454.375 586.282 455.077 586.984 455.077 587.85V588.143C455.078 589.009 454.376 589.712 453.51 589.712Z" fill="#752F00"/>
<path d="M393.697 559.925H459.691C460.788 559.925 461.677 560.814 461.677 561.911V570.019C461.677 571.117 460.788 572.006 459.691 572.006H393.697C392.599 572.006 391.71 571.117 391.71 570.019V561.911C391.71 560.815 392.599 559.925 393.697 559.925Z" fill="#B16B2F"/>
<path d="M425.515 527.809H418.959C418.959 527.809 386.476 460.984 395.292 450.668C406.659 437.371 421.42 475.34 425.515 527.809Z" fill="#018C87"/>
<path d="M423.452 527.809H422.381L401.733 460.156C401.651 459.884 401.803 459.6 402.073 459.516C402.344 459.434 402.63 459.586 402.713 459.857L423.452 527.809Z" fill="#3B685F"/>
<path d="M429.378 527.809H435.934C435.934 527.809 468.417 460.984 459.601 450.668C448.233 437.371 433.473 475.34 429.378 527.809Z" fill="#018C87"/>
<path d="M431.441 527.809H432.512L453.16 460.156C453.242 459.884 453.09 459.6 452.82 459.516C452.549 459.434 452.262 459.586 452.18 459.857L431.441 527.809Z" fill="#3B685F"/>
<path d="M431.317 527.809H425.516C412.692 466.369 417.817 414.91 430.806 424.565C443.792 434.219 431.317 527.809 431.317 527.809Z" fill="#018C87"/>
<path d="M427.916 437.068L427.223 527.809H426.199L426.893 437.061C426.896 436.778 427.128 436.558 427.41 436.552C427.69 436.554 427.92 436.787 427.916 437.068Z" fill="#3B685F"/>
<path d="M457.068 527.111L456.22 529.362L455.684 530.789L454.145 534.875L453.607 536.301L452.025 540.497L451.49 541.922L444.709 559.925H407.669L400.888 541.922L400.352 540.497L398.771 536.301L398.234 534.875L396.695 530.789L396.159 529.362L395.311 527.111C394.729 525.568 395.868 523.92 397.518 523.92H454.861C456.509 523.92 457.648 525.568 457.068 527.111Z" fill="#FAB655"/>
<path d="M456.22 529.362L455.684 530.789H396.695L396.159 529.362H456.22Z" fill="#E29817"/>
<path d="M454.145 534.875L453.607 536.301H398.772L398.234 534.875H454.145Z" fill="#E29817"/>
<path d="M452.026 540.497L451.49 541.922H400.889L400.353 540.497H452.026Z" fill="#E29817"/>
<path d="M416.987 572.007L415.932 575.41L407.962 601.092H395.105L400.111 576.169L400.948 572.007H416.987Z" fill="#954F1B"/>
<path d="M416.987 572.007L415.932 575.41L400.111 576.169L400.948 572.007H416.987Z" fill="#752F00"/>
<path d="M458.445 601.092H445.588L437.302 574.385L436.565 572.007H452.604L452.931 573.636L458.445 601.092Z" fill="#954F1B"/>
<path d="M452.931 573.636L437.302 574.385L436.565 572.007H452.604L452.931 573.636Z" fill="#752F00"/>
<path d="M453.51 582.254H399.882C399.016 582.254 398.314 581.552 398.314 580.685V580.392C398.314 579.526 399.016 578.824 399.882 578.824H453.51C454.375 578.824 455.077 579.526 455.077 580.392V580.686C455.078 581.552 454.376 582.254 453.51 582.254Z" fill="#B16B2F"/>
<path d="M715.964 328.998C718.558 317.907 711.669 306.814 700.579 304.221C689.488 301.627 678.395 308.515 675.801 319.606C673.208 330.697 680.096 341.79 691.187 344.383C702.277 346.977 713.371 340.089 715.964 328.998Z" fill="#8606E2"/>
<path d="M706.421 341.147L717.503 343.493L712.705 333.941L706.421 341.147Z" fill="#8606E2"/>
<path d="M697.608 319.852C697.608 318.886 696.672 318.387 695.52 318.387C694.179 318.387 692.932 319.197 692.279 320.507L686.731 317.733C688.32 314.741 691.468 312.685 696.455 312.685C701.348 312.685 704.994 314.742 704.994 318.638C704.994 323.406 700.007 324.247 700.007 326.647H693.588C693.587 322.875 697.608 321.753 697.608 319.852ZM692.684 331.57C692.684 329.482 694.367 327.892 696.797 327.892C699.228 327.892 700.911 329.482 700.911 331.57C700.911 333.627 699.228 335.31 696.797 335.31C694.367 335.31 692.684 333.627 692.684 331.57Z" fill="white"/>
<path d="M847.537 336.048H817.029C811.965 336.048 807.86 331.943 807.86 326.879V315.446C807.86 310.382 811.965 306.277 817.029 306.277H847.537C852.601 306.277 856.706 310.382 856.706 315.446V326.879C856.706 331.943 852.6 336.048 847.537 336.048Z" fill="#8606E2"/>
<path d="M821.142 312.502H827.82L826.707 323.187H822.254L821.142 312.502ZM821.217 327.095C821.217 325.438 822.553 324.177 824.482 324.177C826.412 324.177 827.747 325.438 827.747 327.095C827.747 328.727 826.412 330.063 824.482 330.063C822.553 330.063 821.217 328.727 821.217 327.095Z" fill="white"/>
<path d="M828.909 312.502H835.586L834.473 323.187H830.02L828.909 312.502ZM828.983 327.095C828.983 325.438 830.318 324.177 832.248 324.177C834.177 324.177 835.512 325.438 835.512 327.095C835.512 328.727 834.177 330.063 832.248 330.063C830.318 330.063 828.983 328.727 828.983 327.095Z" fill="white"/>
<path d="M836.674 312.502H843.352L842.239 323.187H837.787L836.674 312.502ZM836.749 327.095C836.749 325.438 838.084 324.177 840.014 324.177C841.944 324.177 843.279 325.438 843.279 327.095C843.279 328.727 841.944 330.063 840.014 330.063C838.084 330.063 836.749 328.727 836.749 327.095Z" fill="white"/>
<path d="M815.582 336.048L803.337 339.644L807.86 328.633L815.582 336.048Z" fill="#8606E2"/>
<path d="M736.209 340.059C736.023 340.059 735.837 340.041 735.656 340.006C735.384 339.953 735.206 339.689 735.259 339.417C735.312 339.144 735.576 338.966 735.848 339.019C735.965 339.042 736.086 339.054 736.208 339.054L737.504 339.052C737.504 339.052 737.504 339.052 737.505 339.052C737.783 339.052 738.007 339.276 738.008 339.554C738.009 339.831 737.784 340.057 737.506 340.057L736.209 340.059ZM740.013 340.053C739.735 340.053 739.511 339.828 739.51 339.551C739.509 339.274 739.734 339.048 740.012 339.048L741.768 339.045C741.768 339.045 741.768 339.045 741.768 339.045C742.046 339.045 742.271 339.27 742.272 339.547C742.272 339.825 742.047 340.05 741.769 340.05L740.013 340.053ZM744.276 340.047C743.999 340.047 743.774 339.823 743.773 339.545C743.773 339.268 743.998 339.042 744.275 339.042L746.031 339.039C746.031 339.039 746.031 339.039 746.032 339.039C746.309 339.039 746.534 339.264 746.535 339.541C746.535 339.819 746.31 340.044 746.033 340.044L744.276 340.047ZM748.539 340.042C748.262 340.042 748.037 339.817 748.036 339.54C748.036 339.262 748.261 339.036 748.538 339.036L750.294 339.034C750.572 339.034 750.797 339.258 750.798 339.536C750.799 339.813 750.574 340.039 750.296 340.039L748.539 340.042ZM752.803 340.035C752.525 340.035 752.301 339.81 752.3 339.533C752.299 339.255 752.524 339.03 752.802 339.03L754.558 339.027C754.558 339.027 754.558 339.027 754.559 339.027C754.836 339.027 755.061 339.252 755.062 339.529C755.063 339.806 754.837 340.032 754.56 340.032L752.803 340.035ZM757.066 340.029C756.789 340.029 756.564 339.804 756.563 339.527C756.563 339.25 756.788 339.024 757.065 339.024L758.821 339.021H758.822C759.099 339.021 759.324 339.246 759.325 339.523C759.325 339.801 759.1 340.026 758.823 340.026L757.066 340.029ZM761.329 340.023C761.052 340.023 760.827 339.799 760.826 339.521C760.825 339.244 761.051 339.018 761.328 339.018L763.084 339.015C763.362 339.015 763.587 339.24 763.588 339.517C763.589 339.795 763.364 340.02 763.086 340.02L761.329 340.023ZM765.593 340.017C765.315 340.017 765.091 339.792 765.09 339.515C765.09 339.237 765.314 339.012 765.592 339.012L767.348 339.009H767.349C767.626 339.009 767.851 339.233 767.852 339.511C767.852 339.788 767.627 340.014 767.35 340.014L765.593 340.017ZM769.856 340.011C769.579 340.011 769.354 339.786 769.353 339.509C769.352 339.231 769.578 339.006 769.855 339.006L771.611 339.003H771.612C771.889 339.003 772.114 339.228 772.115 339.505C772.115 339.782 771.89 340.008 771.613 340.008L769.856 340.011C769.857 340.011 769.857 340.011 769.856 340.011ZM774.12 340.004C773.842 340.004 773.617 339.78 773.616 339.502C773.616 339.225 773.841 338.999 774.119 338.999L775.874 338.996C776.152 338.996 776.377 339.221 776.378 339.498C776.379 339.776 776.154 340.001 775.876 340.001L774.12 340.004C774.121 340.004 774.121 340.004 774.12 340.004ZM778.384 339.998C778.106 339.998 777.882 339.774 777.881 339.496C777.881 339.219 778.105 338.993 778.383 338.993L780.139 338.99H780.14C780.417 338.99 780.642 339.215 780.643 339.492C780.643 339.77 780.418 339.996 780.141 339.996L778.384 339.998ZM782.646 339.993C782.369 339.993 782.144 339.768 782.143 339.491C782.142 339.213 782.368 338.988 782.645 338.988L784.401 338.985C784.401 338.985 784.401 338.985 784.402 338.985C784.68 338.985 784.904 339.209 784.905 339.487C784.906 339.764 784.681 339.99 784.403 339.991L782.646 339.993C782.647 339.993 782.647 339.993 782.646 339.993ZM786.911 339.986C786.633 339.986 786.408 339.761 786.408 339.484C786.408 339.206 786.632 338.981 786.91 338.981L788.665 338.978C788.665 338.978 788.665 338.978 788.666 338.978C788.944 338.978 789.169 339.203 789.169 339.48C789.169 339.757 788.945 339.983 788.667 339.983L786.911 339.986ZM790.922 339.143C790.808 339.143 790.693 339.104 790.599 339.024C790.387 338.844 790.36 338.528 790.539 338.316C790.823 337.98 790.978 337.553 790.978 337.113V337.019C790.977 336.741 791.202 336.516 791.479 336.515H791.48C791.758 336.515 791.982 336.739 791.983 337.016V337.111C791.983 337.789 791.743 338.447 791.307 338.964C791.208 339.083 791.065 339.143 790.922 339.143ZM733.958 338.434C733.747 338.434 733.55 338.299 733.48 338.087C733.386 337.8 733.338 337.5 733.338 337.196L733.337 336.188C733.337 335.911 733.561 335.685 733.839 335.685H733.84C734.117 335.685 734.342 335.91 734.343 336.187L734.344 337.196C734.344 337.394 734.376 337.589 734.436 337.774C734.522 338.038 734.378 338.322 734.115 338.409C734.063 338.425 734.01 338.434 733.958 338.434ZM791.476 335.013C791.199 335.013 790.974 334.788 790.973 334.511L790.97 332.755C790.969 332.478 791.195 332.252 791.472 332.252H791.473C791.751 332.252 791.976 332.477 791.976 332.754L791.979 334.51C791.98 334.787 791.755 335.012 791.476 335.013C791.477 335.013 791.477 335.013 791.476 335.013ZM733.836 334.183C733.559 334.183 733.334 333.958 733.333 333.681L733.33 331.925C733.33 331.647 733.555 331.422 733.832 331.422C733.832 331.422 733.832 331.422 733.833 331.422C734.111 331.422 734.335 331.646 734.336 331.924L734.339 333.68C734.339 333.956 734.114 334.182 733.836 334.183ZM791.471 330.75C791.193 330.75 790.968 330.525 790.968 330.248L790.965 328.492C790.965 328.214 791.189 327.989 791.467 327.989C791.744 327.989 791.97 328.213 791.971 328.491L791.974 330.247C791.974 330.523 791.749 330.749 791.471 330.75ZM733.829 329.918C733.552 329.918 733.327 329.694 733.326 329.416L733.323 327.66C733.322 327.383 733.548 327.157 733.825 327.157C733.825 327.157 733.825 327.157 733.826 327.157C734.104 327.157 734.329 327.382 734.329 327.66L734.332 329.415C734.332 329.693 734.108 329.918 733.829 329.918C733.83 329.918 733.83 329.918 733.829 329.918ZM791.465 326.486C791.187 326.486 790.963 326.262 790.962 325.984L790.959 324.228C790.959 323.951 791.184 323.725 791.461 323.724C791.461 323.724 791.461 323.724 791.462 323.724C791.739 323.724 791.964 323.949 791.965 324.227L791.968 325.982C791.968 326.26 791.743 326.485 791.465 326.486ZM733.824 325.656C733.546 325.656 733.321 325.431 733.321 325.154L733.318 323.398C733.317 323.121 733.542 322.895 733.82 322.895H733.821C734.098 322.895 734.323 323.12 734.324 323.397L734.327 325.153C734.327 325.429 734.102 325.655 733.824 325.656ZM791.458 322.222C791.181 322.222 790.956 321.997 790.955 321.72L790.952 319.964C790.951 319.687 791.177 319.461 791.454 319.461C791.732 319.461 791.957 319.686 791.958 319.963L791.961 321.719C791.961 321.996 791.737 322.222 791.458 322.222C791.459 322.222 791.459 322.222 791.458 322.222ZM733.818 321.392C733.54 321.392 733.316 321.167 733.315 320.89L733.312 319.134C733.312 318.856 733.536 318.631 733.814 318.631C733.814 318.631 733.814 318.631 733.815 318.631C734.092 318.631 734.317 318.855 734.318 319.133L734.321 320.889C734.321 321.166 734.095 321.392 733.818 321.392ZM791.452 317.959C791.175 317.959 790.95 317.734 790.949 317.457L790.946 315.701C790.946 315.423 791.171 315.198 791.448 315.198H791.449C791.727 315.198 791.952 315.422 791.952 315.7L791.955 317.456C791.955 317.733 791.731 317.959 791.452 317.959ZM733.811 317.128C733.534 317.128 733.309 316.904 733.308 316.626L733.305 314.87C733.304 314.593 733.53 314.367 733.807 314.367C733.807 314.367 733.807 314.367 733.808 314.367C734.086 314.367 734.31 314.592 734.311 314.869L734.314 316.625C734.314 316.903 734.089 317.128 733.811 317.128ZM791.446 313.695C791.168 313.695 790.944 313.471 790.943 313.193L790.94 311.437C790.939 311.16 791.164 310.934 791.442 310.934C791.719 310.934 791.945 311.159 791.946 311.436L791.949 313.192C791.949 313.47 791.724 313.695 791.446 313.695C791.447 313.695 791.447 313.695 791.446 313.695ZM733.805 312.865C733.528 312.865 733.303 312.64 733.302 312.363L733.299 310.607C733.298 310.33 733.524 310.104 733.801 310.104C733.801 310.104 733.801 310.104 733.802 310.104C734.08 310.104 734.304 310.329 734.305 310.606L734.308 312.362C734.308 312.639 734.084 312.865 733.805 312.865ZM791.44 309.432C791.162 309.432 790.938 309.207 790.937 308.93L790.934 307.174C790.933 306.897 791.159 306.671 791.436 306.671H791.437C791.714 306.671 791.939 306.896 791.94 307.173L791.943 308.929C791.943 309.206 791.718 309.432 791.44 309.432ZM733.799 308.602C733.521 308.602 733.297 308.377 733.296 308.1L733.293 306.344C733.293 306.066 733.517 305.841 733.795 305.841H733.796C734.073 305.841 734.298 306.065 734.299 306.343L734.302 308.099C734.303 308.376 734.077 308.602 733.799 308.602C733.8 308.602 733.8 308.602 733.799 308.602ZM791.433 305.169C791.156 305.169 790.931 304.944 790.93 304.667L790.927 302.911C790.926 302.633 791.152 302.408 791.429 302.408C791.707 302.408 791.932 302.632 791.933 302.91L791.936 304.666C791.937 304.943 791.712 305.169 791.433 305.169C791.434 305.169 791.434 305.169 791.433 305.169ZM733.793 304.338C733.515 304.338 733.291 304.114 733.29 303.836L733.288 302.08C733.287 301.803 733.512 301.577 733.79 301.577H733.791C734.068 301.577 734.293 301.802 734.294 302.079L734.297 303.835C734.296 304.113 734.071 304.338 733.793 304.338ZM791.427 300.905C791.15 300.905 790.925 300.681 790.924 300.403L790.923 299.849C790.922 299.532 790.841 299.22 790.687 298.945C790.552 298.703 790.638 298.397 790.88 298.26C791.123 298.125 791.429 298.212 791.565 298.453C791.802 298.877 791.928 299.36 791.928 299.847L791.929 300.401C791.93 300.68 791.706 300.905 791.427 300.905ZM733.815 300.077C733.79 300.077 733.765 300.075 733.739 300.071C733.464 300.03 733.275 299.773 733.318 299.499C733.425 298.788 733.793 298.148 734.353 297.696C734.569 297.522 734.886 297.556 735.06 297.772C735.235 297.988 735.2 298.305 734.984 298.478C734.619 298.773 734.38 299.189 734.31 299.649C734.274 299.898 734.059 300.077 733.815 300.077ZM736.148 298.068C735.87 298.068 735.646 297.843 735.645 297.565C735.644 297.288 735.869 297.062 736.147 297.062L737.903 297.06C737.903 297.06 737.903 297.06 737.904 297.06C738.181 297.06 738.406 297.284 738.407 297.562C738.407 297.839 738.182 298.065 737.905 298.065L736.148 298.068ZM740.411 298.061C740.134 298.061 739.909 297.836 739.908 297.559C739.907 297.281 740.133 297.056 740.41 297.056L742.166 297.053C742.166 297.053 742.166 297.053 742.167 297.053C742.444 297.053 742.669 297.277 742.67 297.555C742.67 297.832 742.445 298.058 742.168 298.058L740.411 298.061ZM744.674 298.055C744.397 298.055 744.172 297.83 744.171 297.553C744.17 297.276 744.396 297.05 744.673 297.05L746.429 297.047C746.707 297.047 746.932 297.272 746.933 297.549C746.934 297.827 746.709 298.052 746.431 298.052L744.674 298.055ZM748.938 298.049C748.66 298.049 748.436 297.825 748.435 297.547C748.435 297.27 748.659 297.044 748.937 297.044L750.693 297.041C750.693 297.041 750.693 297.041 750.694 297.041C750.971 297.041 751.196 297.266 751.197 297.543C751.198 297.821 750.972 298.046 750.695 298.046L748.938 298.049ZM753.201 298.043C752.924 298.043 752.699 297.818 752.698 297.54C752.698 297.263 752.923 297.037 753.2 297.037L754.956 297.035H754.957C755.234 297.035 755.459 297.259 755.46 297.537C755.461 297.814 755.235 298.04 754.958 298.04L753.201 298.043ZM757.465 298.037C757.187 298.037 756.962 297.812 756.961 297.535C756.961 297.257 757.186 297.032 757.464 297.032L759.219 297.029C759.497 297.029 759.722 297.253 759.723 297.531C759.724 297.808 759.499 298.034 759.221 298.034L757.465 298.037ZM761.728 298.03C761.45 298.03 761.226 297.805 761.225 297.528C761.225 297.251 761.449 297.025 761.727 297.025L763.483 297.022H763.484C763.761 297.022 763.986 297.247 763.987 297.524C763.988 297.802 763.762 298.027 763.485 298.027L761.728 298.03ZM765.991 298.024C765.714 298.024 765.489 297.8 765.488 297.522C765.488 297.245 765.713 297.019 765.99 297.019L767.746 297.016C767.746 297.016 767.746 297.016 767.747 297.016C768.025 297.016 768.249 297.241 768.25 297.518C768.25 297.796 768.025 298.021 767.748 298.021L765.991 298.024ZM770.255 298.019C769.977 298.019 769.752 297.794 769.752 297.516C769.752 297.239 769.976 297.013 770.254 297.013L772.009 297.011C772.287 297.011 772.513 297.235 772.513 297.513C772.513 297.79 772.289 298.016 772.011 298.016L770.255 298.019C770.256 298.019 770.256 298.019 770.255 298.019ZM774.518 298.012C774.24 298.012 774.016 297.787 774.015 297.51C774.014 297.232 774.24 297.007 774.517 297.007L776.273 297.004H776.274C776.551 297.004 776.776 297.228 776.777 297.506C776.777 297.783 776.552 298.009 776.275 298.009L774.518 298.012C774.519 298.012 774.519 298.012 774.518 298.012ZM778.781 298.006C778.504 298.006 778.279 297.781 778.278 297.504C778.277 297.227 778.503 297.001 778.78 297.001L780.536 296.998C780.536 296.998 780.536 296.998 780.537 296.998C780.815 296.998 781.039 297.223 781.04 297.5C781.041 297.778 780.816 298.003 780.538 298.003L778.781 298.006C778.782 298.006 778.782 298.006 778.781 298.006ZM783.045 297.999C782.767 297.999 782.543 297.775 782.542 297.497C782.541 297.22 782.766 296.994 783.044 296.994L784.8 296.991C784.8 296.991 784.8 296.991 784.801 296.991C785.078 296.991 785.303 297.216 785.304 297.493C785.304 297.771 785.079 297.996 784.801 297.997L783.045 297.999C783.046 297.999 783.046 297.999 783.045 297.999ZM787.309 297.994C787.032 297.994 786.807 297.769 786.806 297.492C786.805 297.214 787.031 296.988 787.308 296.988L789.059 296.986L789.065 297.991L787.309 297.994Z" fill="#E29817"/>
<path d="M787.905 301.029L737.302 301.099L737.351 336.054L787.953 335.983L787.905 301.029Z" fill="#FAB655"/>
<path d="M737.309 301.083L737.312 303.324L762.644 325.712L787.913 303.252L787.91 301.01L762.643 323.548L737.309 301.083Z" fill="#E29817"/>
<path d="M767.509 319.128L786.494 335.965L787.96 335.964L787.959 335.072L768.598 317.901L767.509 319.128Z" fill="#E29817"/>
<path d="M737.356 335.263L737.358 336.036L738.956 336.034L757.893 319.141L756.8 317.918L737.356 335.263Z" fill="#E29817"/>
<path d="M787.911 301.009L762.643 323.548L737.309 301.082L787.911 301.009Z" fill="#FAB655"/>
<path d="M784.445 309.171H782.194C777.913 309.171 774.443 305.701 774.443 301.42V299.169C774.443 294.888 777.913 291.417 782.194 291.417H784.445C788.726 291.417 792.196 294.887 792.196 299.169V301.42C792.196 305.701 788.726 309.171 784.445 309.171Z" fill="#8606E2"/>
<path d="M783.136 301.755V303.62H777.419V302.143L779.998 299.758C780.487 299.299 780.558 299.025 780.558 298.78C780.558 298.433 780.324 298.219 779.865 298.219C779.437 298.219 779.03 298.453 778.816 298.882L777.002 297.974C777.523 296.996 778.552 296.323 780.09 296.323C781.781 296.323 782.974 297.2 782.974 298.555C782.974 299.258 782.79 299.891 781.752 300.828L780.732 301.755H783.136Z" fill="white"/>
<path d="M789.454 301.276C789.454 302.55 788.475 303.783 786.192 303.783C785.214 303.783 784.144 303.568 783.38 303.14L784.195 301.367C784.806 301.724 785.499 301.887 786.1 301.887C786.641 301.887 787.038 301.693 787.038 301.326C787.038 301.021 786.824 300.816 785.958 300.816H783.889L784.246 296.486H788.984V298.299H786.222L786.171 299.002H786.538C788.649 299.004 789.454 300.013 789.454 301.276Z" fill="white"/>
<path d="M750.815 286.282H749.602C749.325 286.282 749.099 286.057 749.099 285.779C749.099 285.501 749.324 285.276 749.602 285.276H750.815C750.982 285.276 751.15 285.269 751.315 285.254C751.591 285.232 751.834 285.437 751.858 285.713C751.881 285.99 751.676 286.233 751.399 286.257C751.206 286.274 751.009 286.282 750.815 286.282ZM747.094 286.282H745.338C745.06 286.282 744.835 286.057 744.835 285.779C744.835 285.501 745.059 285.276 745.338 285.276H747.094C747.371 285.276 747.597 285.5 747.597 285.779C747.597 286.057 747.372 286.282 747.094 286.282ZM742.83 286.282H741.074C740.797 286.282 740.571 286.057 740.571 285.779C740.571 285.501 740.797 285.276 741.074 285.276H742.83C743.108 285.276 743.333 285.5 743.333 285.779C743.333 286.057 743.108 286.282 742.83 286.282ZM738.567 286.282H736.811C736.534 286.282 736.308 286.057 736.308 285.779C736.308 285.501 736.533 285.276 736.811 285.276H738.567C738.844 285.276 739.07 285.5 739.07 285.779C739.07 286.057 738.844 286.282 738.567 286.282ZM734.303 286.282H732.548C732.27 286.282 732.045 286.057 732.045 285.779C732.045 285.501 732.269 285.276 732.548 285.276H734.303C734.581 285.276 734.806 285.5 734.806 285.779C734.806 286.057 734.581 286.282 734.303 286.282ZM730.04 286.282H728.284C728.007 286.282 727.781 286.057 727.781 285.779C727.781 285.501 728.006 285.276 728.284 285.276H730.04C730.318 285.276 730.543 285.5 730.543 285.779C730.543 286.057 730.318 286.282 730.04 286.282ZM725.777 286.282H725.751C725.117 286.282 724.488 286.195 723.882 286.026C723.614 285.951 723.458 285.674 723.533 285.407C723.608 285.14 723.885 284.984 724.152 285.059C724.671 285.204 725.208 285.277 725.751 285.277H725.777C726.054 285.277 726.28 285.501 726.28 285.78C726.279 286.057 726.054 286.282 725.777 286.282ZM753.751 285.572C753.569 285.572 753.393 285.472 753.304 285.3C753.177 285.053 753.274 284.749 753.521 284.623C754.001 284.376 754.445 284.064 754.843 283.696C755.046 283.508 755.364 283.52 755.553 283.724C755.741 283.928 755.73 284.246 755.525 284.435C755.062 284.864 754.541 285.228 753.981 285.517C753.908 285.555 753.829 285.572 753.751 285.572ZM721.794 284.919C721.685 284.919 721.577 284.885 721.485 284.813C720.986 284.424 720.544 283.969 720.168 283.462C720.003 283.238 720.05 282.924 720.274 282.759C720.497 282.594 720.812 282.641 720.978 282.865C721.298 283.299 721.678 283.688 722.104 284.021C722.323 284.192 722.361 284.508 722.19 284.726C722.091 284.853 721.943 284.919 721.794 284.919ZM756.653 282.557C756.582 282.557 756.509 282.541 756.441 282.51C756.19 282.393 756.081 282.093 756.198 281.842C756.427 281.353 756.587 280.835 756.673 280.301C756.719 280.027 756.975 279.841 757.25 279.886C757.524 279.931 757.71 280.189 757.665 280.463C757.563 281.087 757.376 281.694 757.108 282.267C757.024 282.449 756.842 282.557 756.653 282.557ZM719.505 281.415C719.28 281.415 719.076 281.264 719.018 281.035C718.879 280.484 718.809 279.914 718.809 279.34V279.174C718.809 278.896 719.034 278.671 719.312 278.671C719.59 278.671 719.815 278.895 719.815 279.174V279.34C719.815 279.83 719.876 280.318 719.994 280.789C720.062 281.058 719.899 281.332 719.629 281.4C719.588 281.411 719.546 281.415 719.505 281.415ZM757.254 278.381C756.977 278.381 756.751 278.156 756.751 277.878V276.122C756.751 275.845 756.976 275.619 757.254 275.619C757.532 275.619 757.757 275.844 757.757 276.122V277.878C757.756 278.156 757.532 278.381 757.254 278.381ZM719.311 277.168C719.034 277.168 718.808 276.943 718.808 276.665V274.909C718.808 274.632 719.033 274.406 719.311 274.406C719.589 274.406 719.814 274.631 719.814 274.909V276.665C719.814 276.944 719.59 277.168 719.311 277.168ZM757.254 274.117C756.977 274.117 756.751 273.893 756.751 273.614V271.859C756.751 271.581 756.976 271.356 757.254 271.356C757.532 271.356 757.757 271.58 757.757 271.859V273.614C757.756 273.893 757.532 274.117 757.254 274.117ZM719.311 272.905C719.034 272.905 718.808 272.68 718.808 272.402V270.646C718.808 270.369 719.033 270.143 719.311 270.143C719.589 270.143 719.814 270.368 719.814 270.646V272.402C719.814 272.68 719.59 272.905 719.311 272.905ZM757.254 269.854C756.977 269.854 756.751 269.629 756.751 269.351V267.595C756.751 267.318 756.976 267.092 757.254 267.092C757.532 267.092 757.757 267.317 757.757 267.595V269.351C757.756 269.629 757.532 269.854 757.254 269.854ZM719.311 268.642C719.034 268.642 718.808 268.417 718.808 268.139V266.383C718.808 266.105 719.033 265.88 719.311 265.88C719.589 265.88 719.814 266.104 719.814 266.383V268.139C719.814 268.417 719.59 268.642 719.311 268.642ZM757.254 265.591C756.977 265.591 756.751 265.366 756.751 265.088V263.332C756.751 263.054 756.976 262.829 757.254 262.829C757.532 262.829 757.757 263.054 757.757 263.332V265.088C757.756 265.366 757.532 265.591 757.254 265.591ZM719.311 264.378C719.034 264.378 718.808 264.154 718.808 263.875V262.119C718.808 261.842 719.033 261.616 719.311 261.616C719.589 261.616 719.814 261.842 719.814 262.119V263.875C719.814 264.154 719.59 264.378 719.311 264.378ZM757.254 261.327C756.977 261.327 756.751 261.103 756.751 260.824V259.069C756.751 258.791 756.976 258.565 757.254 258.565C757.532 258.565 757.757 258.79 757.757 259.069V260.824C757.756 261.103 757.532 261.327 757.254 261.327ZM719.311 260.115C719.034 260.115 718.808 259.89 718.808 259.612V257.856C718.808 257.579 719.033 257.353 719.311 257.353C719.589 257.353 719.814 257.579 719.814 257.856V259.612C719.814 259.889 719.59 260.115 719.311 260.115ZM757.254 257.064C756.977 257.064 756.751 256.839 756.751 256.561V254.805C756.751 254.528 756.976 254.302 757.254 254.302C757.532 254.302 757.757 254.527 757.757 254.805V256.561C757.756 256.838 757.532 257.064 757.254 257.064ZM719.311 255.852C719.034 255.852 718.808 255.627 718.808 255.349V254.276C718.808 254.03 718.822 253.783 718.846 253.542C718.876 253.266 719.123 253.065 719.399 253.095C719.676 253.125 719.876 253.372 719.847 253.648C719.825 253.855 719.814 254.066 719.814 254.277V255.349C719.814 255.626 719.59 255.852 719.311 255.852ZM756.953 252.832C756.74 252.832 756.542 252.696 756.474 252.482C756.31 251.968 756.077 251.479 755.78 251.027C755.627 250.794 755.691 250.483 755.924 250.331C756.156 250.178 756.467 250.242 756.62 250.475C756.967 251.004 757.24 251.577 757.431 252.178C757.514 252.443 757.368 252.725 757.103 252.809C757.054 252.825 757.004 252.832 756.953 252.832ZM720.086 251.719C720.005 251.719 719.923 251.699 719.847 251.658C719.603 251.526 719.512 251.221 719.644 250.977C719.945 250.422 720.32 249.91 720.76 249.456C720.954 249.256 721.27 249.252 721.471 249.445C721.671 249.637 721.676 249.956 721.483 250.155C721.106 250.544 720.786 250.981 720.528 251.456C720.437 251.623 720.264 251.719 720.086 251.719ZM754.458 249.472C754.36 249.472 754.26 249.444 754.173 249.384C753.727 249.077 753.242 248.833 752.733 248.658C752.47 248.568 752.329 248.283 752.42 248.02C752.51 247.757 752.795 247.617 753.058 247.707C753.655 247.911 754.222 248.197 754.744 248.556C754.972 248.713 755.03 249.026 754.872 249.254C754.774 249.396 754.617 249.472 754.458 249.472ZM723.166 248.882C722.973 248.882 722.788 248.77 722.706 248.581C722.593 248.327 722.71 248.03 722.963 247.919C723.541 247.665 724.152 247.491 724.778 247.403C725.053 247.364 725.307 247.555 725.347 247.831C725.385 248.105 725.194 248.36 724.919 248.398C724.385 248.473 723.863 248.622 723.369 248.84C723.302 248.869 723.233 248.882 723.166 248.882ZM750.425 248.34H748.669C748.391 248.34 748.166 248.115 748.166 247.837C748.166 247.558 748.39 247.333 748.669 247.333H750.425C750.702 247.333 750.928 247.558 750.928 247.837C750.928 248.115 750.703 248.34 750.425 248.34ZM746.162 248.34H744.406C744.129 248.34 743.903 248.115 743.903 247.837C743.903 247.558 744.129 247.333 744.406 247.333H746.162C746.44 247.333 746.665 247.558 746.665 247.837C746.665 248.115 746.44 248.34 746.162 248.34ZM741.898 248.34H740.142C739.865 248.34 739.639 248.115 739.639 247.837C739.639 247.558 739.864 247.333 740.142 247.333H741.898C742.175 247.333 742.401 247.558 742.401 247.837C742.401 248.115 742.176 248.34 741.898 248.34ZM737.635 248.34H735.879C735.601 248.34 735.376 248.115 735.376 247.837C735.376 247.558 735.6 247.333 735.879 247.333H737.635C737.912 247.333 738.138 247.558 738.138 247.837C738.138 248.115 737.913 248.34 737.635 248.34ZM733.371 248.34H731.615C731.338 248.34 731.112 248.115 731.112 247.837C731.112 247.558 731.337 247.333 731.615 247.333H733.371C733.649 247.333 733.874 247.558 733.874 247.837C733.874 248.115 733.649 248.34 733.371 248.34ZM729.108 248.34H727.352C727.075 248.34 726.849 248.115 726.849 247.837C726.849 247.558 727.074 247.333 727.352 247.333H729.108C729.385 247.333 729.611 247.558 729.611 247.837C729.611 248.115 729.385 248.34 729.108 248.34Z" fill="#018C87"/>
<path d="M750.815 282.26H725.751C724.138 282.26 722.831 280.953 722.831 279.34V254.276C722.831 252.663 724.138 251.356 725.751 251.356H750.815C752.427 251.356 753.735 252.663 753.735 254.276V279.34C753.735 280.953 752.427 282.26 750.815 282.26Z" fill="#018C87"/>
<path d="M747.025 260.446C746.974 260.233 746.925 260.019 746.872 259.807C746.685 259.055 746.328 258.395 745.821 257.81C745.46 257.391 745.039 257.034 744.566 256.763C743.912 256.387 743.172 256.547 742.689 257.129C741.827 258.169 740.97 259.211 740.119 260.261C739.597 260.905 739.682 261.785 740.329 262.359C740.793 262.77 741.282 263.152 741.761 263.544C741.822 263.595 741.894 263.632 741.947 263.667C740.805 266.74 738.867 269.112 736.085 270.822C735.748 270.541 735.396 270.247 735.042 269.954C734.86 269.804 734.681 269.651 734.494 269.509C733.935 269.082 733.288 269.039 732.706 269.418C732.523 269.538 732.371 269.717 732.229 269.888C731.45 270.827 730.683 271.776 729.903 272.715C729.655 273.012 729.499 273.342 729.444 273.722C729.457 273.861 729.472 274.001 729.485 274.14C729.62 274.376 729.714 274.654 729.9 274.839C730.356 275.293 730.858 275.699 731.455 275.968C732.155 276.284 732.886 276.477 733.652 276.41C734.157 276.366 734.663 276.259 735.152 276.123C736.411 275.771 737.557 275.171 738.636 274.443C739.704 273.722 740.678 272.884 741.572 271.956C742.778 270.705 743.849 269.341 744.819 267.899C745.584 266.762 746.246 265.572 746.675 264.264C746.891 263.605 747.036 262.932 747.081 262.24C747.099 261.962 747.106 261.683 747.117 261.403C747.089 261.083 747.057 260.765 747.025 260.446Z" fill="white"/>
<path d="M727.144 260.523H724.893C720.612 260.523 717.141 257.053 717.141 252.771V250.52C717.141 246.239 720.611 242.769 724.893 242.769H727.144C731.424 242.769 734.895 246.239 734.895 250.52V252.771C734.895 257.053 731.424 260.523 727.144 260.523Z" fill="#8606E2"/>
<path d="M724.517 247.837V254.97H722.112V249.651H720.89V247.837H724.517Z" fill="white"/>
<path d="M725.394 251.404C725.394 249.039 726.739 247.674 728.624 247.674C730.51 247.674 731.855 249.039 731.855 251.404C731.855 253.768 730.51 255.134 728.624 255.134C726.739 255.134 725.394 253.768 725.394 251.404ZM729.439 251.404C729.439 250.028 729.093 249.6 728.624 249.6C728.156 249.6 727.809 250.028 727.809 251.404C727.809 252.78 728.156 253.208 728.624 253.208C729.093 253.208 729.439 252.78 729.439 251.404Z" fill="white"/>
<defs>
<filter id="filter0_f_5_2576" x="0" y="-278" width="1260" height="1260" filterUnits="userSpaceOnUse" color-interpolation-filters="sRGB">
<feFlood flood-opacity="0" result="BackgroundImageFix"/>
<feBlend mode="normal" in="SourceGraphic" in2="BackgroundImageFix" result="shape"/>
<feGaussianBlur stdDeviation="250" result="effect1_foregroundBlur_5_2576"/>
</filter>
</defs>
</svg>
