<svg width="603" height="603" viewBox="0 0 603 603" fill="none" xmlns="http://www.w3.org/2000/svg">
<path d="M262.133 559.822C290.712 559.822 313.881 546.445 313.881 529.944C313.881 513.443 290.712 500.067 262.133 500.067C233.553 500.067 210.384 513.443 210.384 529.944C210.384 546.445 233.553 559.822 262.133 559.822Z" fill="#E0E0E0"/>
<path d="M348.823 538.339C379.478 538.339 404.328 523.992 404.328 506.293C404.328 488.595 379.478 474.247 348.823 474.247C318.169 474.247 293.318 488.595 293.318 506.293C293.318 523.992 318.169 538.339 348.823 538.339Z" fill="#E0E0E0"/>
<path d="M89.7312 492.434L78.4913 498.922C78.5878 492.784 78.1777 481.158 74.9215 466.047C67.4685 431.41 52.3452 425.392 44.9765 411.909C37.234 397.727 47.1835 389.225 56.5662 390.684C64.9479 391.974 78.226 402.285 84.871 423.571C93.6387 451.635 91.4799 479.638 89.7312 492.434Z" fill="#8606E2"/>
<path opacity="0.5" d="M89.7312 492.434L78.4913 498.922C78.5878 492.784 78.1777 481.158 74.9215 466.047C67.4685 431.41 52.3452 425.392 44.9765 411.909C37.234 397.727 47.1835 389.225 56.5662 390.684C64.9479 391.974 78.226 402.285 84.871 423.571C93.6387 451.635 91.4799 479.638 89.7312 492.434Z" fill="white"/>
<path d="M83.1211 489.69C82.7979 489.644 82.5748 489.347 82.6207 489.023C88.5807 447.331 69.989 411.409 54.8839 399.217C54.6306 399.011 54.5908 398.641 54.7946 398.386C55.002 398.131 55.3711 398.093 55.6255 398.297C70.9466 410.665 89.8132 447.04 83.7881 489.191C83.7422 489.513 83.4443 489.737 83.1211 489.69Z" fill="white"/>
<path d="M84.0992 495.69L78.4913 498.922L77.5748 499.453C75.7296 491.071 70.797 482.328 61.4505 472.957C50.488 461.97 35.208 451.707 37.9094 442.482C40.5988 433.256 52.9362 435.692 61.4505 441.155C69.4451 446.292 86.475 465.239 84.0992 495.69Z" fill="#8606E2"/>
<path opacity="0.65" d="M84.0992 495.69L78.4913 498.922L77.5748 499.453C75.7296 491.071 70.797 482.328 61.4505 472.957C50.488 461.97 35.208 451.707 37.9094 442.482C40.5988 433.256 52.9362 435.692 61.4505 441.155C69.4451 446.292 86.475 465.239 84.0992 495.69Z" fill="white"/>
<path d="M81.1095 493.094C80.8334 493.054 80.6151 492.822 80.6042 492.533C79.8215 472.101 57.4008 445.655 46.7241 441.315C46.4214 441.194 46.2766 440.849 46.3997 440.547C46.5203 440.244 46.8616 440.096 47.1679 440.223C58.3632 444.772 80.9709 471.252 81.7837 492.487C81.797 492.814 81.5425 493.088 81.2169 493.1C81.1807 493.102 81.1457 493.1 81.1095 493.094Z" fill="white"/>
<path d="M125.735 554.907L223.05 407.139L157.408 369.24L60.0938 517.01L125.735 554.907Z" fill="#8606E2"/>
<path opacity="0.2" d="M125.735 554.907L223.05 407.139L157.408 369.24L60.0938 517.01L125.735 554.907Z" fill="white"/>
<path d="M223.048 407.139L125.735 554.907L165.119 532.168L236.091 424.823L223.048 407.139Z" fill="#8606E2"/>
<path opacity="0.2" d="M223.048 407.139L125.735 554.907L165.119 532.168L236.091 424.823L223.048 407.139Z" fill="black"/>
<path d="M399.644 86.7188L406.076 115.502L432.51 130.969L425.931 101.895L399.644 86.7188Z" fill="#8606E2"/>
<path opacity="0.2" d="M399.644 86.7188L406.076 115.502L432.51 130.969L425.931 101.895L399.644 86.7188Z" fill="black"/>
<path d="M342.658 228.67L425.931 101.895L399.644 86.7187L499.593 58.5212L517.798 154.935L491.573 139.794L408.299 266.568L342.658 228.67Z" fill="#8606E2"/>
<path opacity="0.2" d="M342.658 228.67L425.931 101.895L399.644 86.7187L499.593 58.5212L517.798 154.935L491.573 139.794L408.299 266.568L342.658 228.67Z" fill="white"/>
<path d="M491.573 139.793L408.342 266.567L423.083 283.321L498.253 168.916L524.41 184.026L517.798 154.935L491.573 139.793Z" fill="#8606E2"/>
<path opacity="0.2" d="M491.573 139.793L408.342 266.567L423.083 283.321L498.253 168.916L524.41 184.026L517.798 154.935L491.573 139.793Z" fill="black"/>
<path d="M357.399 245.546L342.658 228.793L408.342 266.567L423.083 283.321L357.399 245.546Z" fill="#8606E2"/>
<path opacity="0.4" d="M357.399 245.546L342.658 228.793L408.342 266.567L423.083 283.321L357.399 245.546Z" fill="black"/>
<path opacity="0.2" d="M498.253 168.916L491.573 139.793L517.798 154.935L524.41 184.026L498.253 168.916Z" fill="black"/>
<path d="M396.68 477.12C396.68 484.087 396.624 493.514 396.661 499.516C396.67 500.822 396.679 502.429 396.679 504.566C396.688 504.576 396.688 504.584 396.679 504.594C395.72 510.869 391.08 516.997 382.76 521.801C363.947 532.66 333.442 532.66 314.627 521.801C304.927 516.203 300.234 508.805 300.544 501.47V501.416C300.599 500.795 300.663 500.146 300.745 499.471C300.745 499.443 300.753 499.417 300.753 499.397C301.566 492.264 302.152 485.128 302.554 478.433C303.193 467.812 303.104 463.135 303.017 457.418C302.91 450.363 299.978 444.817 292.535 438.562C285.091 432.297 270.296 410.907 270.296 410.907L368.431 360.465L396.333 448.837C396.333 448.835 396.68 470.152 396.68 477.12Z" fill="#FFA8A7"/>
<path d="M369.185 342.178C369.185 342.178 367.333 349.612 358.564 339.779C349.795 329.945 335.449 314.913 320.331 300.452C313.085 293.52 284.049 270.162 264.567 252.512C258.361 246.11 249.542 241.626 243.48 246.285C237.419 250.943 237.401 262.388 241.219 268.061C244.598 273.083 251.839 280.055 257.367 285.062C257.332 285.365 257.299 285.663 257.262 285.968C256.217 295.093 254.349 305.356 253.462 316.422C252.934 323.01 244.989 331.317 245.096 338.084C247.434 347.695 260.203 358.074 269.233 365.284C278.264 372.495 282.195 375.43 282.094 377.706C281.937 381.196 267.313 368.505 260.807 364.038C261.169 384.749 247.935 387.242 247.935 387.242C249.923 391.229 261.208 400.01 277.249 420.547C283.582 428.653 348.031 375.304 348.031 375.304L363.335 365.48L374.105 347.661L369.185 342.178Z" fill="#FFA8A7"/>
<path d="M363.832 360.454C357.786 368.044 334.04 392.293 352.726 424.431C350.717 422.522 349.658 421.062 349.229 420.485C346.543 416.942 344.443 412.95 342.945 408.768C342.89 408.612 342.845 408.466 342.79 408.32C338.543 396.082 339.995 383.634 347.913 373.112C354.15 364.846 365.504 356.819 367.02 347.905C367.075 347.575 367.111 347.256 367.129 346.936C367.393 349.714 367.705 355.605 363.832 360.454Z" fill="#F28F8F"/>
<path opacity="0.5" d="M240.03 250.86C237.649 256.31 238.355 263.808 241.218 268.063C244.597 273.084 251.838 280.056 257.366 285.063C257.339 285.305 257.311 285.545 257.283 285.786C259.72 287.877 262.341 290.095 265.216 292.625C272.137 298.717 281.291 306.574 288.2 312.676C291.659 315.731 308.102 328.957 314.064 334.279C304.883 324.213 284.269 305.938 273.895 295.725C266.062 288.013 254.519 277.257 250.757 272.973C246.996 268.69 244.801 265.755 243.479 264.138C238.868 258.487 239.883 251.962 240.03 250.86Z" fill="#F28F8F"/>
<path d="M257.622 396.171C260.872 395.876 265.045 393.468 266.731 390.675C269.157 386.654 269.617 383.531 268.962 377.261C268.794 375.657 268.396 372.764 267.19 368.619C265.039 367.071 262.801 365.408 260.806 364.04C261.168 384.75 247.934 387.243 247.934 387.243C248.835 389.048 251.647 391.844 255.94 396.263C256.503 396.251 257.065 396.222 257.622 396.171Z" fill="#F28F8F"/>
<path d="M247.022 312.497C246.504 312.973 253.835 320.034 254.606 320.465C257.32 321.977 262.511 320.093 264.755 318.217C266.173 317.032 267.207 315.437 267.924 313.735C270.366 307.937 269.173 301.325 267.934 295.157C267.74 294.191 267.464 293.106 266.604 292.625C266.461 295.851 263.613 297.26 261.505 299.196C259.494 301.043 257.483 302.891 255.472 304.737C252.654 307.323 249.838 309.91 247.022 312.497Z" fill="#F28F8F"/>
<path d="M263.691 316.294L302.069 355.031L257.263 317.474L263.691 316.294Z" fill="#F28F8F"/>
<path d="M258.447 349.389C262.163 348.189 265.262 345.195 266.552 341.509C267.652 338.367 267.463 334.94 267.251 331.619C267.07 328.794 266.871 325.915 265.828 323.284L247.875 329.378C246.318 332.388 245.051 335.362 245.094 338.085C246.047 342.003 248.537 345.975 252.05 349.793C254.1 350.139 256.468 350.028 258.447 349.389Z" fill="#F28F8F"/>
<path d="M253.67 284.772C261.56 284.052 265.699 287.514 267.463 294.586C268.131 297.262 268.201 301.502 267.463 306.762C266.725 312.021 261.744 318.321 255.332 317.378C255.229 317.362 255.126 317.347 255.022 317.33C244.655 315.645 243.48 310.076 243.48 301.088C243.48 292.099 246.651 285.412 253.67 284.772Z" fill="#FFA8A7"/>
<path opacity="0.5" d="M262.984 286.857C263.556 287.351 266.901 290.628 266.931 299.698C266.964 309.614 261.989 311.67 256.498 312.553C251.007 313.436 243.601 310.018 243.601 305.052L243.597 305.053C244.073 311.723 246.276 315.909 255.022 317.33C255.127 317.347 255.23 317.362 255.333 317.378C261.745 318.321 266.726 312.02 267.464 306.762C268.202 301.502 268.132 297.261 267.464 294.586C266.597 291.116 265.155 288.521 262.984 286.857Z" fill="#F28F8F"/>
<path d="M253.848 316.379C261.054 315.721 264.836 318.883 266.449 325.344C267.058 327.789 267.123 331.662 266.449 336.467C265.775 341.27 261.224 347.027 255.367 346.164C255.273 346.15 255.179 346.135 255.083 346.121C245.614 344.582 244.541 339.495 244.541 331.284C244.541 323.072 247.437 316.964 253.848 316.379Z" fill="#FFA8A7"/>
<path opacity="0.5" d="M263.892 319.798C264.907 321.304 265.644 325.012 265.047 330.629C264.265 337.988 262.69 341.565 256.25 342.028C249.578 342.508 245.479 339.419 244.775 336.169C245.409 341.523 247.667 344.914 255.083 346.12C255.179 346.135 255.274 346.15 255.367 346.163C261.224 347.025 265.775 341.269 266.449 336.466C267.123 331.662 267.059 327.787 266.449 325.344C265.883 323.079 265.044 321.229 263.892 319.798Z" fill="#F28F8F"/>
<path d="M254.236 360.961C261.714 360.278 267.311 363.832 267.311 370.265V381.808C267.311 387.952 261.89 392.767 255.811 391.872C255.713 391.857 255.615 391.843 255.516 391.826C245.689 390.229 245.807 381.252 245.689 376.537C245.571 371.824 247.582 361.567 254.236 360.961Z" fill="#FFA8A7"/>
<path opacity="0.5" d="M263.669 363.016C266.936 366.436 265.664 373.395 265.412 380.258C265.237 385.019 262.758 388.965 256.25 388.965C249.741 388.965 246.826 384.988 245.942 381.095L245.938 381.086C246.477 385.582 248.356 390.662 255.516 391.826C255.615 391.842 255.714 391.857 255.811 391.872C261.89 392.765 267.311 387.952 267.311 381.808V370.265C267.311 367.092 265.945 364.625 263.669 363.016Z" fill="#F28F8F"/>
<path d="M171.335 358.689L332.206 236.72L397.89 274.617L236.977 396.587L171.335 358.689Z" fill="#8606E2"/>
<path d="M397.89 274.617L412.63 291.37L250.019 414.272L236.977 396.587L397.89 274.617Z" fill="#8606E2"/>
<path opacity="0.2" d="M397.89 274.617L412.63 291.37L250.019 414.272L236.977 396.587L397.89 274.617Z" fill="black"/>
<path d="M171.335 358.692L184.378 376.377L250.019 414.272L236.977 396.587L171.335 358.692Z" fill="#8606E2"/>
<path opacity="0.4" d="M171.335 358.692L184.378 376.377L250.019 414.272L236.977 396.587L171.335 358.692Z" fill="black"/>
<path d="M396.33 448.836C396.33 431.732 397.577 408.782 400.406 388.996C403.236 369.211 402.689 352.275 401.823 347.491C400.958 342.707 400.713 335.753 393.328 326.927C389.849 322.768 382.218 316.703 375.853 309.229C369.433 301.688 363.44 293.315 360.044 288.736C356.647 284.156 348.212 291.529 348.622 306.129C348.957 318.055 357.107 328.49 360.257 332.95C364.099 338.392 366.828 343.647 367.134 346.929C367.393 349.706 367.707 355.59 363.832 360.455C357.789 368.043 334.039 392.292 352.73 424.432V453.919L396.33 448.836Z" fill="#FFA8A7"/>
<path d="M361.57 297.662C361.57 297.662 368.818 307.495 371.133 308.759C373.448 310.023 374.107 307.14 374.107 307.14L374.099 307.127C370.77 302.45 364.561 293.943 360.043 288.736C360.624 289.716 361.95 293.314 361.57 297.662Z" fill="#FFA8A7"/>
<path opacity="0.6" d="M361.57 297.662C361.57 297.662 368.817 307.499 371.133 308.759C373.299 309.937 374.107 307.14 374.107 307.14L374.099 307.127C370.77 302.45 364.561 293.943 360.043 288.736C360.624 289.716 361.95 293.314 361.57 297.662Z" fill="white"/>
<path d="M374.107 307.14L374.099 307.127C374.107 307.14 373.402 306.024 373.022 305.621C373.352 307.926 371.681 308.993 371.681 308.993C373.587 309.551 374.107 307.14 374.107 307.14Z" fill="#F28F8F"/>
<path d="M302.941 518.766C300.878 515.284 297.447 512.013 292.636 509.236C275.789 499.51 248.475 499.51 231.627 509.236C226.816 512.013 223.385 515.284 221.321 518.766H218.991V527.58H219.022C219.332 533.708 223.525 539.783 231.627 544.46C248.473 554.186 275.788 554.186 292.636 544.46C300.737 539.783 304.961 533.708 305.271 527.579V527.58V518.766H302.941Z" fill="#8606E2"/>
<path opacity="0.25" d="M302.941 518.766C300.878 515.284 297.447 512.013 292.636 509.236C275.789 499.51 248.475 499.51 231.627 509.236C226.816 512.013 223.385 515.284 221.321 518.766H218.991V527.58H219.022C219.332 533.708 223.525 539.783 231.627 544.46C248.473 554.186 275.788 554.186 292.636 544.46C300.737 539.783 304.961 533.708 305.271 527.579V527.58V518.766H302.941Z" fill="black"/>
<path opacity="0.1" d="M262.135 501.941C251.094 501.941 240.052 504.372 231.628 509.236C226.817 512.013 223.386 515.284 221.324 518.766H218.992V527.58H219.023C219.334 533.708 223.527 539.783 231.628 544.46C240.052 549.323 251.094 551.755 262.135 551.755V501.941Z" fill="black"/>
<path opacity="0.1" d="M238.572 505.985C236.117 506.911 233.785 507.991 231.629 509.236C226.818 512.013 223.387 515.284 221.325 518.766H218.994V527.58H219.024C219.335 533.708 223.528 539.783 231.629 544.46C233.785 545.704 236.118 546.785 238.572 547.711V505.985Z" fill="black"/>
<path opacity="0.5" d="M285.693 505.985C288.148 506.911 290.479 507.991 292.636 509.236C297.447 512.013 300.878 515.284 302.94 518.766H305.271V527.58V527.579C304.96 533.707 300.737 539.782 292.636 544.46C290.479 545.704 288.147 546.785 285.693 547.711V505.985Z" fill="#8606E2"/>
<path d="M231.628 501.157C214.78 510.883 214.782 526.654 231.628 536.381C246.369 544.891 269.122 545.956 285.868 539.574L285.87 539.573C286.093 539.487 286.315 539.402 286.538 539.312C288.683 538.46 290.727 537.484 292.637 536.381C306.686 528.269 309.021 515.957 299.635 506.449C299.633 506.445 299.631 506.444 299.631 506.444C297.765 504.552 295.433 502.772 292.636 501.157C275.792 491.432 248.476 491.431 231.628 501.157Z" fill="#8606E2"/>
<path opacity="0.2" d="M231.628 501.157C214.78 510.883 214.782 526.654 231.628 536.381C246.369 544.891 269.122 545.956 285.868 539.574L285.87 539.573C286.093 539.487 286.315 539.402 286.538 539.312C288.683 538.46 290.727 537.484 292.637 536.381C306.686 528.269 309.021 515.957 299.635 506.449C299.633 506.445 299.631 506.444 299.631 506.444C297.765 504.552 295.433 502.772 292.636 501.157C275.792 491.432 248.476 491.431 231.628 501.157Z" fill="black"/>
<path opacity="0.5" d="M299.635 506.45C299.816 506.654 305.709 512.871 304.147 521.817C302.655 530.377 290.669 537.582 286.538 539.314C288.682 538.461 290.727 537.485 292.637 536.382C306.686 528.269 309.02 515.957 299.635 506.45Z" fill="#F5F5F5"/>
<path opacity="0.5" d="M224.629 531.09C224.449 530.886 218.556 524.669 220.118 515.724C221.61 507.164 233.596 499.959 237.728 498.228C235.584 499.08 233.539 500.056 231.629 501.159C217.58 509.27 215.246 521.583 224.629 531.09Z" fill="#F5F5F5"/>
<path d="M290.504 535.107C306.165 526.066 306.165 511.406 290.504 502.364C274.843 493.323 249.451 493.323 233.79 502.364C218.129 511.406 218.129 526.066 233.79 535.107C249.451 544.148 274.843 544.148 290.504 535.107Z" fill="#8606E2"/>
<path opacity="0.4" d="M290.504 535.107C306.165 526.066 306.165 511.406 290.504 502.364C274.843 493.323 249.451 493.323 233.79 502.364C218.129 511.406 218.129 526.066 233.79 535.107C249.451 544.148 274.843 544.148 290.504 535.107Z" fill="white"/>
<path opacity="0.2" d="M300.428 525.65C303.651 519.692 302.6 513.124 297.279 507.554C296.295 506.524 295.16 505.529 293.882 504.578C292.89 503.836 291.804 503.122 290.635 502.439C289.995 502.064 289.337 501.707 288.66 501.368C290.326 504.11 289.716 507.05 280.271 507.601C261.788 508.68 285.211 526.343 285.211 526.343C285.211 526.343 297.125 520.59 300.428 525.65Z" fill="white"/>
<path opacity="0.5" d="M298.521 520.764C301.295 520.453 302.67 517.601 301.592 514.393C300.513 511.185 297.391 508.836 294.617 509.147C291.843 509.458 290.469 512.31 291.547 515.518C292.625 518.726 295.747 521.074 298.521 520.764Z" fill="white"/>
<path d="M269.286 535.485C268.376 528.621 238.373 509.62 238.373 509.62C238.373 509.62 231.72 506.949 233.929 502.299C232.775 502.961 231.705 503.653 230.721 504.373C230.028 504.874 229.379 505.388 228.772 505.917C219.841 513.651 219.828 523.81 228.776 531.554C229.379 532.081 230.031 532.597 230.721 533.1C231.641 533.771 232.629 534.415 233.696 535.036C234.714 535.633 235.778 536.185 236.875 536.701C237.75 537.115 238.659 537.505 239.579 537.866C240.496 538.229 241.434 538.567 242.391 538.881C245.242 539.817 248.251 540.53 251.342 541.031C252.009 541.137 252.685 541.236 253.356 541.323C256.305 541.702 259.302 541.891 262.307 541.885C265.995 541.878 269.682 541.579 273.257 540.986C273.254 540.984 268.428 539.999 269.286 535.485Z" fill="#8606E2"/>
<path opacity="0.3" d="M269.286 535.485C268.376 528.621 238.373 509.62 238.373 509.62C238.373 509.62 231.72 506.949 233.929 502.299C232.775 502.961 231.705 503.653 230.721 504.373C230.028 504.874 229.379 505.388 228.772 505.917C219.841 513.651 219.828 523.81 228.776 531.554C229.379 532.081 230.031 532.597 230.721 533.1C231.641 533.771 232.629 534.415 233.696 535.036C234.714 535.633 235.778 536.185 236.875 536.701C237.75 537.115 238.659 537.505 239.579 537.866C240.496 538.229 241.434 538.567 242.391 538.881C245.242 539.817 248.251 540.53 251.342 541.031C252.009 541.137 252.685 541.236 253.356 541.323C256.305 541.702 259.302 541.891 262.307 541.885C265.995 541.878 269.682 541.579 273.257 540.986C273.254 540.984 268.428 539.999 269.286 535.485Z" fill="white"/>
<path d="M241.008 506.537C229.816 512.999 229.363 523.308 239.643 530.084C240.08 530.371 240.538 530.656 241.013 530.931C252.681 537.667 271.591 537.667 283.259 530.931C294.927 524.195 294.931 513.274 283.263 506.538C282.788 506.263 282.294 505.999 281.796 505.747C270.06 499.811 252.2 500.076 241.008 506.537Z" fill="#8606E2"/>
<path opacity="0.2" d="M241.008 506.537C229.816 512.999 229.363 523.308 239.643 530.084C240.08 530.371 240.538 530.656 241.013 530.931C252.681 537.667 271.591 537.667 283.259 530.931C294.927 524.195 294.931 513.274 283.263 506.538C282.788 506.263 282.294 505.999 281.796 505.747C270.06 499.811 252.2 500.076 241.008 506.537Z" fill="black"/>
<path d="M262.149 535.222C277.921 535.222 290.706 527.84 290.706 518.734C290.706 509.629 277.921 502.247 262.149 502.247C246.378 502.247 233.593 509.629 233.593 518.734C233.593 527.84 246.378 535.222 262.149 535.222Z" fill="#8606E2"/>
<path opacity="0.5" d="M262.149 535.222C277.921 535.222 290.706 527.84 290.706 518.734C290.706 509.629 277.921 502.247 262.149 502.247C246.378 502.247 233.593 509.629 233.593 518.734C233.593 527.84 246.378 535.222 262.149 535.222Z" fill="black"/>
<path d="M241.956 511.674C253.108 505.236 271.19 505.236 282.343 511.674C286.904 514.307 289.597 517.609 290.426 521.033C289.596 524.457 286.903 527.759 282.343 530.392C271.191 536.83 253.109 536.83 241.957 530.392C237.396 527.759 234.703 524.457 233.874 521.033C234.703 517.609 237.396 514.307 241.956 511.674Z" fill="#8606E2"/>
<path opacity="0.35" d="M241.956 511.674C253.108 505.236 271.19 505.236 282.343 511.674C286.904 514.307 289.597 517.609 290.426 521.033C289.596 524.457 286.903 527.759 282.343 530.392C271.191 536.83 253.109 536.83 241.957 530.392C237.396 527.759 234.703 524.457 233.874 521.033C234.703 517.609 237.396 514.307 241.956 511.674Z" fill="black"/>
<path d="M280.131 523.701C280.128 523.145 280.138 520.876 280.133 520.293C280.122 518.895 279.165 517.539 277.084 516.321C277.062 516.304 277.035 516.289 277.012 516.275C273.177 514.061 269.215 514.351 265.685 515.239C265.675 515.242 265.666 515.242 265.655 515.244C264.155 515.623 262.729 516.11 261.428 516.556C259.63 517.181 258.155 517.689 256.892 517.96C256.889 517.963 256.889 517.963 256.885 517.965C256.096 518.133 255.389 518.211 254.729 518.17C254.098 518.133 253.512 517.976 252.943 517.696C252.991 517.663 253.034 517.63 253.085 517.597C253.225 517.503 253.376 517.411 253.534 517.321C253.933 517.091 254.33 516.892 254.729 516.726C256.953 515.786 259.095 515.829 261.078 516.583L264.74 512.889V509.5C261.486 508.397 258.104 508.281 254.729 509.137C253.665 509.407 252.603 509.777 251.546 510.238L247.885 508.124L243.514 510.647V514.036L245.011 514.899C244.583 515.564 244.366 516.226 244.368 516.876C244.371 517.439 244.374 519.691 244.373 520.259C244.369 521.659 245.376 523.008 247.484 524.225C249.52 525.401 251.545 525.891 253.517 525.963L253.52 525.961C253.92 525.979 254.327 525.974 254.726 525.956C257.012 525.847 259.202 525.236 261.207 524.556C261.637 524.412 262.055 524.266 262.469 524.122L258.783 527.817V531.206C263.986 533.291 269.066 532.301 272.904 530.594L276.52 532.682L280.889 530.159V526.77L279.389 525.904C279.881 525.167 280.134 524.428 280.131 523.701ZM270.917 523.409C270.582 523.602 270.242 523.772 269.903 523.917C267.305 525.029 264.628 524.791 262.758 524.023C266.18 522.817 269.037 521.76 271.472 523.057C271.301 523.175 271.118 523.293 270.917 523.409Z" fill="#8606E2"/>
<path d="M265.687 515.239C265.676 515.242 265.667 515.242 265.656 515.244C264.156 515.623 262.731 516.11 261.429 516.556C259.631 517.181 258.156 517.689 256.894 517.96C256.89 517.963 256.89 517.963 256.886 517.965C256.098 518.133 255.39 518.211 254.73 518.17C253.991 518.127 253.312 517.93 252.652 517.55C251.246 516.738 251.042 515.549 253.086 514.208C253.226 514.114 253.377 514.024 253.535 513.932C253.934 513.702 254.331 513.503 254.73 513.338C256.954 512.397 259.096 512.44 261.08 513.194L264.741 509.5C261.487 508.397 258.104 508.281 254.73 509.137C253.666 509.407 252.604 509.777 251.547 510.238L247.886 508.124L243.516 510.647L247.135 512.737C247.135 512.737 247.124 512.748 247.101 512.765C243.429 515.555 243.353 518.451 247.486 520.836C249.521 522.012 251.546 522.502 253.518 522.573L253.522 522.571C253.921 522.588 254.328 522.584 254.728 522.566C257.013 522.457 259.203 521.845 261.209 521.166C265.402 519.763 268.799 518.111 271.623 519.741C273.516 520.834 272.991 522.208 270.913 523.408C270.578 523.601 270.238 523.771 269.899 523.915C267.241 525.054 264.496 524.78 262.622 523.967L258.783 527.816C263.986 529.901 269.066 528.911 272.905 527.204L276.52 529.292L280.891 526.769L277.275 524.681C280.91 521.869 281.328 518.806 277.083 516.32C277.06 516.303 277.034 516.287 277.012 516.274C273.179 514.061 269.217 514.351 265.687 515.239Z" fill="#8606E2"/>
<g opacity="0.3">
<path d="M265.687 515.239C265.676 515.242 265.667 515.242 265.656 515.244C264.156 515.623 262.731 516.11 261.429 516.556C259.631 517.181 258.156 517.689 256.894 517.96C256.89 517.963 256.89 517.963 256.886 517.965C256.098 518.133 255.39 518.211 254.73 518.17C253.991 518.127 253.312 517.93 252.652 517.55C251.246 516.738 251.042 515.549 253.086 514.208C253.226 514.114 253.377 514.024 253.535 513.932C253.934 513.702 254.331 513.503 254.73 513.338C256.954 512.397 259.096 512.44 261.08 513.194L264.741 509.5C261.487 508.397 258.104 508.281 254.73 509.137C253.666 509.407 252.604 509.777 251.547 510.238L247.886 508.124L243.516 510.647L247.135 512.737C247.135 512.737 247.124 512.748 247.101 512.765C243.429 515.555 243.353 518.451 247.486 520.836C249.521 522.012 251.546 522.502 253.518 522.573L253.522 522.571C253.921 522.588 254.328 522.584 254.728 522.566C257.013 522.457 259.203 521.845 261.209 521.166C265.402 519.763 268.799 518.111 271.623 519.741C273.516 520.834 272.991 522.208 270.913 523.408C270.578 523.601 270.238 523.771 269.899 523.915C267.241 525.054 264.496 524.78 262.622 523.967L258.783 527.816C263.986 529.901 269.066 528.911 272.905 527.204L276.52 529.292L280.891 526.769L277.275 524.681C280.91 521.869 281.328 518.806 277.083 516.32C277.06 516.303 277.034 516.287 277.012 516.274C273.179 514.061 269.217 514.351 265.687 515.239Z" fill="white"/>
</g>
<path opacity="0.45" d="M243.519 510.646L247.93 508.646L251.549 510.237L247.887 508.124L243.519 510.646Z" fill="#F5F5F5"/>
<path opacity="0.45" d="M254.224 509.275C256.58 508.764 260.392 508.62 263.616 509.592L261.08 513.193L264.741 509.5C260.843 508.257 257.392 508.341 254.224 509.275Z" fill="#F5F5F5"/>
<path opacity="0.45" d="M277.013 516.275C277.036 516.289 277.063 516.303 277.085 516.321C281.33 518.807 280.911 521.87 277.276 524.682C280.496 521.173 279.916 518.726 276.416 516.706C272.925 514.69 268.453 514.711 265.685 515.238C269.217 514.351 273.18 514.061 277.013 516.275Z" fill="#F5F5F5"/>
<path opacity="0.45" d="M277.277 524.682L280.05 526.812L276.524 529.293L280.893 526.77L277.277 524.682Z" fill="#F5F5F5"/>
<path opacity="0.45" d="M269.903 523.915C266.064 525.735 262.939 524.523 262.939 524.523L258.788 527.817L262.627 523.968C264.5 524.78 267.245 525.055 269.903 523.915Z" fill="#F5F5F5"/>
<path opacity="0.45" d="M256.887 517.965C255.234 518.614 252.856 518.504 251.652 517.469C250.39 516.383 251.2 515.219 253.085 514.208C251.041 515.549 251.245 516.738 252.651 517.55C253.311 517.931 253.99 518.127 254.729 518.17C255.39 518.211 256.099 518.133 256.887 517.965Z" fill="#F5F5F5"/>
<path opacity="0.45" d="M247.102 512.764C246.793 513.037 244.163 515.489 245.323 517.941C246.556 520.556 250.413 522.233 253.523 522.571L253.519 522.573C251.548 522.502 249.523 522.011 247.487 520.837C243.354 518.45 243.43 515.554 247.102 512.764Z" fill="#F5F5F5"/>
<path d="M311.102 506.35C309.039 502.868 305.608 499.598 300.797 496.82C283.95 487.094 256.636 487.094 239.788 496.82C234.977 499.598 231.546 502.868 229.482 506.35H227.152V515.165H227.183C227.493 521.292 231.687 527.367 239.788 532.044C256.634 541.77 283.949 541.77 300.797 532.044C308.898 527.367 313.122 521.292 313.432 515.163V515.165V506.35H311.102Z" fill="#8606E2"/>
<path opacity="0.25" d="M311.102 506.35C309.039 502.868 305.608 499.598 300.797 496.82C283.95 487.094 256.636 487.094 239.788 496.82C234.977 499.598 231.546 502.868 229.482 506.35H227.152V515.165H227.183C227.493 521.292 231.687 527.367 239.788 532.044C256.634 541.77 283.949 541.77 300.797 532.044C308.898 527.367 313.122 521.292 313.432 515.163V515.165V506.35H311.102Z" fill="black"/>
<path opacity="0.1" d="M270.296 489.526C259.255 489.526 248.213 491.957 239.789 496.821C234.978 499.599 231.547 502.869 229.485 506.351H227.153V515.166H227.184C227.495 521.293 231.688 527.368 239.789 532.045C248.213 536.909 259.255 539.34 270.296 539.34V489.526Z" fill="black"/>
<path opacity="0.1" d="M246.732 493.569C244.276 494.495 241.945 495.576 239.789 496.82C234.978 499.598 231.547 502.868 229.485 506.35H227.154V515.165H227.184C227.495 521.292 231.688 527.367 239.789 532.044C241.945 533.288 244.276 534.369 246.732 535.295V493.569Z" fill="black"/>
<path opacity="0.5" d="M293.854 493.569C296.309 494.495 298.641 495.576 300.797 496.82C305.608 499.598 309.039 502.868 311.101 506.35H313.432V515.165V515.163C313.121 521.291 308.898 527.367 300.797 532.044C298.641 533.288 296.309 534.369 293.854 535.295V493.569Z" fill="#8606E2"/>
<path d="M239.788 488.742C222.94 498.47 222.942 514.24 239.788 523.966C254.529 532.477 277.282 533.542 294.028 527.158L294.03 527.157C294.253 527.071 294.475 526.986 294.698 526.897C296.842 526.044 298.887 525.068 300.797 523.965C314.846 515.853 317.18 503.541 307.795 494.033C307.793 494.029 307.79 494.028 307.79 494.028C305.925 492.136 303.592 490.356 300.797 488.741C283.951 479.017 256.635 479.016 239.788 488.742Z" fill="#8606E2"/>
<path opacity="0.2" d="M239.788 488.742C222.94 498.47 222.942 514.24 239.788 523.966C254.529 532.477 277.282 533.542 294.028 527.158L294.03 527.157C294.253 527.071 294.475 526.986 294.698 526.897C296.842 526.044 298.887 525.068 300.797 523.965C314.846 515.853 317.18 503.541 307.795 494.033C307.793 494.029 307.79 494.028 307.79 494.028C305.925 492.136 303.592 490.356 300.797 488.741C283.951 479.017 256.635 479.016 239.788 488.742Z" fill="black"/>
<path opacity="0.5" d="M307.797 494.034C307.977 494.238 313.87 500.455 312.308 509.401C310.816 517.961 298.83 525.166 294.699 526.898C296.844 526.045 298.888 525.07 300.798 523.966C314.847 515.854 317.182 503.542 307.797 494.034Z" fill="#F5F5F5"/>
<path opacity="0.5" d="M232.791 518.674C232.61 518.47 226.717 512.253 228.279 503.308C229.771 494.748 241.757 487.544 245.889 485.812C243.745 486.664 241.7 487.64 239.79 488.744C225.74 496.855 223.407 509.167 232.791 518.674Z" fill="#F5F5F5"/>
<path d="M298.665 522.693C314.326 513.651 314.326 498.991 298.665 489.95C283.004 480.908 257.612 480.908 241.951 489.95C226.29 498.991 226.29 513.651 241.951 522.693C257.612 531.734 283.004 531.734 298.665 522.693Z" fill="#8606E2"/>
<path opacity="0.4" d="M298.665 522.693C314.326 513.651 314.326 498.991 298.665 489.95C283.004 480.908 257.612 480.908 241.951 489.95C226.29 498.991 226.29 513.651 241.951 522.693C257.612 531.734 283.004 531.734 298.665 522.693Z" fill="white"/>
<path opacity="0.2" d="M308.589 513.235C311.812 507.277 310.761 500.709 305.44 495.139C304.456 494.109 303.321 493.114 302.043 492.164C301.051 491.421 299.965 490.707 298.796 490.024C298.156 489.65 297.498 489.293 296.821 488.953C298.487 491.696 297.876 494.635 288.432 495.186C269.949 496.265 293.372 513.928 293.372 513.928C293.372 513.928 305.286 508.176 308.589 513.235Z" fill="white"/>
<path opacity="0.5" d="M306.682 508.35C309.456 508.038 310.831 505.186 309.753 501.978C308.674 498.77 305.552 496.421 302.778 496.732C300.004 497.043 298.63 499.895 299.708 503.103C300.786 506.311 303.908 508.659 306.682 508.35Z" fill="white"/>
<path d="M277.446 523.07C276.536 516.207 246.533 497.205 246.533 497.205C246.533 497.205 239.879 494.535 242.089 489.885C240.935 490.547 239.865 491.239 238.88 491.959C238.186 492.459 237.537 492.973 236.931 493.503C227.999 501.237 227.987 511.396 236.934 519.14C237.537 519.667 238.19 520.183 238.88 520.686C239.8 521.356 240.787 522 241.855 522.621C242.873 523.218 243.936 523.771 245.034 524.287C245.908 524.701 246.817 525.09 247.738 525.452C248.654 525.815 249.593 526.153 250.55 526.466C253.401 527.402 256.409 528.116 259.501 528.616C260.168 528.724 260.843 528.821 261.514 528.908C264.462 529.287 267.459 529.476 270.465 529.47C274.154 529.463 277.839 529.164 281.414 528.572C281.415 528.569 276.589 527.584 277.446 523.07Z" fill="#8606E2"/>
<path opacity="0.3" d="M277.446 523.07C276.536 516.207 246.533 497.205 246.533 497.205C246.533 497.205 239.879 494.535 242.089 489.885C240.935 490.547 239.865 491.239 238.88 491.959C238.186 492.459 237.537 492.973 236.931 493.503C227.999 501.237 227.987 511.396 236.934 519.14C237.537 519.667 238.19 520.183 238.88 520.686C239.8 521.356 240.787 522 241.855 522.621C242.873 523.218 243.936 523.771 245.034 524.287C245.908 524.701 246.817 525.09 247.738 525.452C248.654 525.815 249.593 526.153 250.55 526.466C253.401 527.402 256.409 528.116 259.501 528.616C260.168 528.724 260.843 528.821 261.514 528.908C264.462 529.287 267.459 529.476 270.465 529.47C274.154 529.463 277.839 529.164 281.414 528.572C281.415 528.569 276.589 527.584 277.446 523.07Z" fill="white"/>
<path d="M249.168 494.122C237.976 500.584 237.523 510.893 247.803 517.669C248.239 517.956 248.698 518.241 249.173 518.516C260.841 525.253 279.751 525.253 291.419 518.516C303.087 511.779 303.091 500.859 291.423 494.124C290.947 493.849 290.454 493.584 289.956 493.332C278.219 487.396 260.361 487.661 249.168 494.122Z" fill="#8606E2"/>
<path opacity="0.2" d="M249.168 494.122C237.976 500.584 237.523 510.893 247.803 517.669C248.239 517.956 248.698 518.241 249.173 518.516C260.841 525.253 279.751 525.253 291.419 518.516C303.087 511.779 303.091 500.859 291.423 494.124C290.947 493.849 290.454 493.584 289.956 493.332C278.219 487.396 260.361 487.661 249.168 494.122Z" fill="black"/>
<path d="M250.117 494.66C238.965 501.099 238.965 511.538 250.117 517.977C261.269 524.416 279.351 524.416 290.504 517.977C301.656 511.538 301.656 501.099 290.504 494.66C279.351 488.223 261.269 488.223 250.117 494.66Z" fill="#8606E2"/>
<path opacity="0.5" d="M250.117 494.66C238.965 501.099 238.965 511.538 250.117 517.977C261.269 524.416 279.351 524.416 290.504 517.977C301.656 511.538 301.656 501.099 290.504 494.66C279.351 488.223 261.269 488.223 250.117 494.66Z" fill="black"/>
<path d="M250.117 499.26C261.269 492.821 279.351 492.821 290.504 499.26C295.064 501.893 297.757 505.195 298.588 508.618C297.757 512.042 295.064 515.344 290.504 517.977C279.352 524.416 261.27 524.416 250.117 517.977C245.556 515.344 242.863 512.041 242.033 508.618C242.864 505.195 245.557 501.893 250.117 499.26Z" fill="#8606E2"/>
<path opacity="0.35" d="M250.117 499.26C261.269 492.821 279.351 492.821 290.504 499.26C295.064 501.893 297.757 505.195 298.588 508.618C297.757 512.042 295.064 515.344 290.504 517.977C279.352 524.416 261.27 524.416 250.117 517.977C245.556 515.344 242.863 512.041 242.033 508.618C242.864 505.195 245.557 501.893 250.117 499.26Z" fill="black"/>
<path d="M288.292 511.286C288.289 510.73 288.299 508.462 288.294 507.878C288.285 506.48 287.326 505.125 285.246 503.907C285.223 503.89 285.196 503.874 285.173 503.861C281.338 501.647 277.376 501.936 273.846 502.825C273.836 502.827 273.827 502.827 273.816 502.83C272.316 503.208 270.891 503.696 269.589 504.142C267.791 504.767 266.316 505.274 265.053 505.546C265.05 505.548 265.05 505.548 265.046 505.55C264.259 505.718 263.55 505.796 262.89 505.755C262.259 505.718 261.673 505.561 261.104 505.281C261.152 505.249 261.195 505.215 261.246 505.183C261.386 505.089 261.537 504.998 261.695 504.906C262.094 504.676 262.491 504.478 262.89 504.312C265.115 503.371 267.256 503.415 269.239 504.168L272.901 500.474V497.086C269.647 495.982 266.264 495.866 262.89 496.723C261.826 496.993 260.764 497.363 259.707 497.824L256.046 495.709L251.677 498.232V501.621L253.173 502.486C252.745 503.15 252.528 503.813 252.53 504.463C252.533 505.026 252.536 507.277 252.535 507.845C252.532 509.246 253.539 510.595 255.647 511.812C257.682 512.988 259.707 513.477 261.679 513.549L261.683 513.546C262.082 513.563 262.49 513.559 262.89 513.541C265.175 513.433 267.365 512.821 269.371 512.141C269.8 511.998 270.219 511.852 270.632 511.707L266.947 515.402V518.791C272.15 520.876 277.229 519.886 281.067 518.18L284.682 520.267L289.052 517.744V514.355L287.551 513.49C288.042 512.753 288.296 512.013 288.292 511.286ZM279.077 510.994C278.742 511.188 278.401 511.357 278.063 511.502C275.465 512.614 272.788 512.376 270.918 511.608C274.34 510.402 277.197 509.346 279.632 510.642C279.46 510.759 279.278 510.877 279.077 510.994Z" fill="#8606E2"/>
<path d="M273.848 502.824C273.837 502.826 273.828 502.826 273.817 502.828C272.317 503.207 270.892 503.694 269.59 504.141C267.792 504.765 266.317 505.273 265.055 505.544C265.051 505.547 265.051 505.547 265.047 505.549C264.26 505.717 263.551 505.795 262.891 505.754C262.152 505.711 261.473 505.514 260.813 505.134C259.407 504.323 259.203 503.134 261.246 501.793C261.386 501.698 261.537 501.608 261.695 501.516C262.094 501.286 262.491 501.087 262.89 500.922C265.115 499.981 267.256 500.025 269.239 500.778L272.901 497.084C269.647 495.981 266.264 495.865 262.89 496.721C261.826 496.991 260.764 497.362 259.707 497.822L256.046 495.708L251.677 498.231L255.296 500.321C255.296 500.321 255.285 500.332 255.262 500.349C251.59 503.14 251.514 506.035 255.647 508.421C257.682 509.597 259.707 510.086 261.679 510.157L261.683 510.155C262.082 510.173 262.49 510.168 262.889 510.15C265.174 510.042 267.364 509.429 269.37 508.75C273.563 507.349 276.96 505.696 279.784 507.326C281.677 508.418 281.152 509.792 279.074 510.992C278.739 511.186 278.399 511.355 278.06 511.5C275.402 512.638 272.657 512.364 270.783 511.551L266.944 515.4C272.147 517.485 277.227 516.495 281.064 514.788L284.68 516.876L289.049 514.353L285.434 512.265C289.069 509.453 289.487 506.39 285.242 503.904C285.219 503.887 285.192 503.872 285.171 503.858C281.339 501.647 277.376 501.936 273.848 502.824Z" fill="#8606E2"/>
<g opacity="0.3">
<path d="M273.848 502.824C273.837 502.826 273.828 502.826 273.817 502.828C272.317 503.207 270.892 503.694 269.59 504.141C267.792 504.765 266.317 505.273 265.055 505.544C265.051 505.547 265.051 505.547 265.047 505.549C264.26 505.717 263.551 505.795 262.891 505.754C262.152 505.711 261.473 505.514 260.813 505.134C259.407 504.323 259.203 503.134 261.246 501.793C261.386 501.698 261.537 501.608 261.695 501.516C262.094 501.286 262.491 501.087 262.89 500.922C265.115 499.981 267.256 500.025 269.239 500.778L272.901 497.084C269.647 495.981 266.264 495.865 262.89 496.721C261.826 496.991 260.764 497.362 259.707 497.822L256.046 495.708L251.677 498.231L255.296 500.321C255.296 500.321 255.285 500.332 255.262 500.349C251.59 503.14 251.514 506.035 255.647 508.421C257.682 509.597 259.707 510.086 261.679 510.157L261.683 510.155C262.082 510.173 262.49 510.168 262.889 510.15C265.174 510.042 267.364 509.429 269.37 508.75C273.563 507.349 276.96 505.696 279.784 507.326C281.677 508.418 281.152 509.792 279.074 510.992C278.739 511.186 278.399 511.355 278.06 511.5C275.402 512.638 272.657 512.364 270.783 511.551L266.944 515.4C272.147 517.485 277.227 516.495 281.064 514.788L284.68 516.876L289.049 514.353L285.434 512.265C289.069 509.453 289.487 506.39 285.242 503.904C285.219 503.887 285.192 503.872 285.171 503.858C281.339 501.647 277.376 501.936 273.848 502.824Z" fill="white"/>
</g>
<path opacity="0.45" d="M251.679 498.231L256.09 496.232L259.709 497.822L256.048 495.708L251.679 498.231Z" fill="#F5F5F5"/>
<path opacity="0.45" d="M262.385 496.86C264.741 496.35 268.553 496.205 271.777 497.177L269.241 500.778L272.902 497.086C269.004 495.841 265.551 495.927 262.385 496.86Z" fill="#F5F5F5"/>
<path opacity="0.45" d="M285.174 503.861C285.197 503.874 285.224 503.89 285.245 503.907C289.491 506.392 289.072 509.455 285.437 512.268C288.657 508.758 288.077 506.311 284.577 504.291C281.086 502.276 276.614 502.298 273.846 502.824C277.376 501.936 281.339 501.647 285.174 503.861Z" fill="#F5F5F5"/>
<path opacity="0.45" d="M285.438 512.268L288.21 514.398L284.685 516.878L289.054 514.355L285.438 512.268Z" fill="#F5F5F5"/>
<path opacity="0.45" d="M278.063 511.501C274.224 513.321 271.098 512.109 271.098 512.109L266.947 515.402L270.786 511.554C272.66 512.366 275.405 512.639 278.063 511.501Z" fill="#F5F5F5"/>
<path opacity="0.45" d="M265.047 505.549C263.396 506.198 261.017 506.087 259.815 505.052C258.552 503.966 259.362 502.802 261.247 501.791C259.203 503.132 259.407 504.322 260.814 505.133C261.474 505.514 262.153 505.71 262.892 505.753C263.551 505.795 264.26 505.717 265.047 505.549Z" fill="#F5F5F5"/>
<path opacity="0.45" d="M255.263 500.349C254.954 500.623 252.324 503.074 253.484 505.526C254.717 508.141 258.572 509.818 261.684 510.156L261.68 510.158C259.708 510.086 257.684 509.596 255.648 508.422C251.515 506.035 251.591 503.14 255.263 500.349Z" fill="#F5F5F5"/>
<path d="M301.306 491.833C299.242 488.352 295.811 485.081 291.002 482.304C274.154 472.577 246.84 472.577 229.992 482.304C225.182 485.081 221.751 488.352 219.687 491.833H217.357V500.647H217.387C217.697 506.775 221.892 512.849 229.992 517.526C246.839 527.252 274.154 527.252 291.002 517.526C299.102 512.849 303.327 506.775 303.637 500.646V491.832L301.306 491.833Z" fill="#8606E2"/>
<path opacity="0.25" d="M301.306 491.833C299.242 488.352 295.811 485.081 291.002 482.304C274.154 472.577 246.84 472.577 229.992 482.304C225.182 485.081 221.751 488.352 219.687 491.833H217.357V500.647H217.387C217.697 506.775 221.892 512.849 229.992 517.526C246.839 527.252 274.154 527.252 291.002 517.526C299.102 512.849 303.327 506.775 303.637 500.646V491.832L301.306 491.833Z" fill="black"/>
<path opacity="0.1" d="M260.498 475.008C249.458 475.008 238.415 477.44 229.991 482.304C225.181 485.081 221.75 488.352 219.686 491.833H217.355V500.647H217.385C217.696 506.774 221.89 512.849 229.99 517.526C238.414 522.39 249.456 524.821 260.497 524.821L260.498 475.008Z" fill="black"/>
<path opacity="0.1" d="M236.936 479.052C234.48 479.978 232.149 481.059 229.993 482.304C225.182 485.081 221.751 488.352 219.687 491.833H217.356V500.647H217.386C217.697 506.774 221.891 512.849 229.991 517.526C232.148 518.771 234.479 519.851 236.934 520.779V479.052H236.936Z" fill="black"/>
<path opacity="0.5" d="M284.058 479.052C286.513 479.978 288.844 481.059 291.001 482.304C295.811 485.081 299.242 488.352 301.305 491.833H303.636V500.647C303.325 506.774 299.101 512.849 291.001 517.527C288.844 518.772 286.512 519.852 284.058 520.779V479.052Z" fill="#8606E2"/>
<path d="M229.991 474.226C213.144 483.952 213.146 499.723 229.991 509.449C244.732 517.96 267.486 519.025 284.231 512.642L284.234 512.641C284.457 512.555 284.679 512.469 284.902 512.38C287.046 511.527 289.09 510.552 291.001 509.448C305.049 501.337 307.384 489.025 298 479.517C297.998 479.513 297.995 479.512 297.995 479.512C296.13 477.619 293.797 475.839 291.001 474.225C274.155 464.501 246.839 464.499 229.991 474.226Z" fill="#8606E2"/>
<path opacity="0.2" d="M229.991 474.226C213.144 483.952 213.146 499.723 229.991 509.449C244.732 517.96 267.486 519.025 284.231 512.642L284.234 512.641C284.457 512.555 284.679 512.469 284.902 512.38C287.046 511.527 289.09 510.552 291.001 509.448C305.049 501.337 307.384 489.025 298 479.517C297.998 479.513 297.995 479.512 297.995 479.512C296.13 477.619 293.797 475.839 291.001 474.225C274.155 464.501 246.839 464.499 229.991 474.226Z" fill="black"/>
<path opacity="0.5" d="M297.999 479.518C298.18 479.722 304.072 485.938 302.511 494.885C301.019 503.445 289.032 510.649 284.902 512.38C287.046 511.527 289.09 510.552 291 509.448C305.049 501.338 307.384 489.026 297.999 479.518Z" fill="#F5F5F5"/>
<path opacity="0.5" d="M222.994 504.157C222.813 503.954 216.921 497.737 218.483 488.791C219.974 480.23 231.961 473.026 236.093 471.294C233.948 472.147 231.904 473.122 229.994 474.226C215.944 482.338 213.609 494.651 222.994 504.157Z" fill="#F5F5F5"/>
<path d="M260.513 514.956C282.66 514.956 300.615 504.59 300.615 491.803C300.615 479.016 282.66 468.65 260.513 468.65C238.365 468.65 220.411 479.016 220.411 491.803C220.411 504.59 238.365 514.956 260.513 514.956Z" fill="#8606E2"/>
<path opacity="0.4" d="M260.513 514.956C282.66 514.956 300.615 504.59 300.615 491.803C300.615 479.016 282.66 468.65 260.513 468.65C238.365 468.65 220.411 479.016 220.411 491.803C220.411 504.59 238.365 514.956 260.513 514.956Z" fill="white"/>
<path opacity="0.2" d="M222.232 498.718C219.008 492.761 220.06 486.193 225.381 480.622C226.365 479.592 227.5 478.597 228.778 477.647C229.77 476.904 230.856 476.19 232.025 475.508C232.665 475.134 233.321 474.777 234 474.437C232.333 477.179 232.945 480.118 242.389 480.669C260.872 481.749 237.449 499.413 237.449 499.413C237.449 499.413 225.535 493.659 222.232 498.718Z" fill="white"/>
<path opacity="0.5" d="M224.139 493.833C221.365 493.522 219.99 490.669 221.068 487.462C222.146 484.254 225.269 481.904 228.043 482.215C230.816 482.527 232.191 485.379 231.113 488.587C230.035 491.793 226.913 494.143 224.139 493.833Z" fill="white"/>
<path d="M253.375 508.553C254.285 501.69 284.288 482.688 284.288 482.688C284.288 482.688 290.942 480.018 288.732 475.368C289.886 476.03 290.956 476.722 291.941 477.442C292.635 477.943 293.284 478.456 293.891 478.986C302.823 486.72 302.835 496.88 293.888 504.623C293.285 505.15 292.632 505.666 291.942 506.168C291.022 506.838 290.035 507.482 288.967 508.103C287.949 508.7 286.886 509.253 285.788 509.769C284.914 510.183 284.005 510.572 283.084 510.934C282.168 511.298 281.23 511.635 280.272 511.948C277.421 512.884 274.413 513.598 271.321 514.098C270.654 514.206 269.979 514.304 269.308 514.39C266.36 514.769 263.363 514.958 260.357 514.952C256.669 514.945 252.983 514.646 249.408 514.054C249.408 514.054 254.232 513.066 253.375 508.553Z" fill="#8606E2"/>
<path opacity="0.3" d="M253.375 508.553C254.285 501.69 284.288 482.688 284.288 482.688C284.288 482.688 290.942 480.018 288.732 475.368C289.886 476.03 290.956 476.722 291.941 477.442C292.635 477.943 293.284 478.456 293.891 478.986C302.823 486.72 302.835 496.88 293.888 504.623C293.285 505.15 292.632 505.666 291.942 506.168C291.022 506.838 290.035 507.482 288.967 508.103C287.949 508.7 286.886 509.253 285.788 509.769C284.914 510.183 284.005 510.572 283.084 510.934C282.168 511.298 281.23 511.635 280.272 511.948C277.421 512.884 274.413 513.598 271.321 514.098C270.654 514.206 269.979 514.304 269.308 514.39C266.36 514.769 263.363 514.958 260.357 514.952C256.669 514.945 252.983 514.646 249.408 514.054C249.408 514.054 254.232 513.066 253.375 508.553Z" fill="white"/>
<path d="M281.652 479.606C292.843 486.068 293.297 496.376 283.017 503.153C282.58 503.44 282.122 503.725 281.647 504C269.979 510.736 251.069 510.736 239.401 504C227.733 497.263 227.729 486.342 239.396 479.606C239.871 479.332 240.364 479.067 240.862 478.815C252.601 472.88 270.46 473.144 281.652 479.606Z" fill="#8606E2"/>
<path opacity="0.2" d="M281.652 479.606C292.843 486.068 293.297 496.376 283.017 503.153C282.58 503.44 282.122 503.725 281.647 504C269.979 510.736 251.069 510.736 239.401 504C227.733 497.263 227.729 486.342 239.396 479.606C239.871 479.332 240.364 479.067 240.862 478.815C252.601 472.88 270.46 473.144 281.652 479.606Z" fill="black"/>
<path d="M280.704 480.144C291.856 486.582 291.856 497.022 280.704 503.46C269.552 509.899 251.47 509.899 240.317 503.46C229.165 497.022 229.165 486.582 240.317 480.144C251.47 473.705 269.552 473.705 280.704 480.144Z" fill="#8606E2"/>
<path opacity="0.5" d="M280.704 480.144C291.856 486.582 291.856 497.022 280.704 503.46C269.552 509.899 251.47 509.899 240.317 503.46C229.165 497.022 229.165 486.582 240.317 480.144C251.47 473.705 269.552 473.705 280.704 480.144Z" fill="black"/>
<path d="M280.704 484.743C269.552 478.304 251.47 478.304 240.317 484.743C235.756 487.376 233.064 490.678 232.233 494.102C233.064 497.526 235.757 500.828 240.317 503.46C251.469 509.899 269.551 509.899 280.703 503.46C285.264 500.828 287.957 497.526 288.786 494.102C287.957 490.678 285.264 487.376 280.704 484.743Z" fill="#8606E2"/>
<path opacity="0.35" d="M280.704 484.743C269.552 478.304 251.47 478.304 240.317 484.743C235.756 487.376 233.064 490.678 232.233 494.102C233.064 497.526 235.757 500.828 240.317 503.46C251.469 509.899 269.551 509.899 280.703 503.46C285.264 500.828 287.957 497.526 288.786 494.102C287.957 490.678 285.264 487.376 280.704 484.743Z" fill="black"/>
<path d="M278.494 496.768C278.492 496.212 278.501 493.944 278.497 493.36C278.486 491.962 277.528 490.607 275.448 489.389C275.425 489.372 275.398 489.356 275.376 489.343C271.54 487.129 267.579 487.418 264.049 488.307C264.038 488.309 264.03 488.309 264.019 488.312C262.518 488.69 261.093 489.178 259.792 489.624C257.993 490.249 256.519 490.756 255.256 491.028C255.252 491.03 255.252 491.03 255.249 491.032C254.46 491.2 253.752 491.279 253.092 491.238C252.462 491.2 251.875 491.043 251.306 490.764C251.354 490.731 251.398 490.697 251.449 490.665C251.588 490.571 251.739 490.48 251.897 490.388C252.296 490.158 252.693 489.96 253.092 489.794C255.316 488.853 257.458 488.897 259.442 489.65L263.103 485.956V482.568C259.85 481.464 256.468 481.348 253.092 482.205C252.029 482.475 250.966 482.845 249.91 483.306L246.248 481.192L241.878 483.714V487.103L243.374 487.968C242.946 488.633 242.729 489.295 242.732 489.945C242.734 490.508 242.738 492.76 242.736 493.328C242.733 494.728 243.74 496.077 245.848 497.294C247.884 498.47 249.908 498.96 251.88 499.031L251.884 499.028C252.283 499.046 252.691 499.042 253.091 499.023C255.376 498.915 257.567 498.303 259.572 497.623C260.001 497.48 260.42 497.334 260.834 497.189L257.148 500.884V504.273C262.351 506.358 267.43 505.368 271.269 503.662L274.885 505.749L279.254 503.226V499.838L277.754 498.972C278.245 498.236 278.498 497.497 278.494 496.768ZM269.28 496.478C268.945 496.672 268.606 496.841 268.266 496.985C265.668 498.097 262.991 497.86 261.122 497.091C264.543 495.885 267.4 494.829 269.835 496.125C269.664 496.242 269.482 496.361 269.28 496.478Z" fill="#8606E2"/>
<path d="M264.051 488.307C264.039 488.309 264.032 488.309 264.021 488.312C262.521 488.69 261.095 489.178 259.794 489.624C257.996 490.249 256.521 490.756 255.258 491.028C255.255 491.03 255.255 491.03 255.251 491.032C254.462 491.2 253.754 491.279 253.095 491.238C252.355 491.194 251.676 490.998 251.017 490.618C249.611 489.806 249.407 488.617 251.451 487.276C251.591 487.182 251.742 487.091 251.9 487C252.299 486.769 252.696 486.57 253.095 486.405C255.319 485.464 257.46 485.508 259.444 486.262L263.106 482.568C259.852 481.464 256.469 481.348 253.095 482.205C252.031 482.475 250.969 482.845 249.912 483.306L246.251 481.192L241.88 483.714L245.499 485.804C245.499 485.804 245.488 485.815 245.466 485.832C241.793 488.623 241.717 491.519 245.85 493.904C247.886 495.08 249.911 495.569 251.883 495.641L251.886 495.638C252.285 495.655 252.693 495.651 253.092 495.635C255.378 495.526 257.568 494.913 259.573 494.234C263.767 492.832 267.164 491.18 269.987 492.81C271.879 493.903 271.356 495.276 269.278 496.476C268.943 496.671 268.604 496.839 268.264 496.984C265.606 498.123 262.861 497.849 260.987 497.036L257.148 500.884C262.351 502.969 267.43 501.979 271.268 500.273L274.884 502.36L279.253 499.838L275.637 497.75C279.272 494.938 279.691 491.874 275.444 489.389C275.421 489.372 275.395 489.356 275.373 489.343C271.543 487.13 267.58 487.419 264.051 488.307Z" fill="#8606E2"/>
<g opacity="0.3">
<path d="M264.051 488.307C264.039 488.309 264.032 488.309 264.021 488.312C262.521 488.69 261.095 489.178 259.794 489.624C257.996 490.249 256.521 490.756 255.258 491.028C255.255 491.03 255.255 491.03 255.251 491.032C254.462 491.2 253.754 491.279 253.095 491.238C252.355 491.194 251.676 490.998 251.017 490.618C249.611 489.806 249.407 488.617 251.451 487.276C251.591 487.182 251.742 487.091 251.9 487C252.299 486.769 252.696 486.57 253.095 486.405C255.319 485.464 257.46 485.508 259.444 486.262L263.106 482.568C259.852 481.464 256.469 481.348 253.095 482.205C252.031 482.475 250.969 482.845 249.912 483.306L246.251 481.192L241.88 483.714L245.499 485.804C245.499 485.804 245.488 485.815 245.466 485.832C241.793 488.623 241.717 491.519 245.85 493.904C247.886 495.08 249.911 495.569 251.883 495.641L251.886 495.638C252.285 495.655 252.693 495.651 253.092 495.635C255.378 495.526 257.568 494.913 259.573 494.234C263.767 492.832 267.164 491.18 269.987 492.81C271.879 493.903 271.356 495.276 269.278 496.476C268.943 496.671 268.604 496.839 268.264 496.984C265.606 498.123 262.861 497.849 260.987 497.036L257.148 500.884C262.351 502.969 267.43 501.979 271.268 500.273L274.884 502.36L279.253 499.838L275.637 497.75C279.272 494.938 279.691 491.874 275.444 489.389C275.421 489.372 275.395 489.356 275.373 489.343C271.543 487.13 267.58 487.419 264.051 488.307Z" fill="white"/>
</g>
<path opacity="0.45" d="M241.882 483.714L246.293 481.715L249.912 483.306L246.25 481.192L241.882 483.714Z" fill="#F5F5F5"/>
<path opacity="0.45" d="M252.587 482.343C254.943 481.832 258.756 481.688 261.979 482.66L259.443 486.262L263.104 482.569C259.207 481.324 255.755 481.409 252.587 482.343Z" fill="#F5F5F5"/>
<path opacity="0.45" d="M275.377 489.344C275.4 489.357 275.426 489.372 275.448 489.39C279.693 491.876 279.275 494.939 275.641 497.751C278.861 494.242 278.281 491.796 274.781 489.775C271.29 487.758 266.818 487.781 264.05 488.307C267.58 487.419 271.543 487.13 275.377 489.344Z" fill="#F5F5F5"/>
<path opacity="0.45" d="M275.641 497.75L278.413 499.881L274.887 502.362L279.256 499.839L275.641 497.75Z" fill="#F5F5F5"/>
<path opacity="0.45" d="M268.266 496.984C264.427 498.804 261.301 497.592 261.301 497.592L257.15 500.886L260.989 497.037C262.863 497.849 265.608 498.123 268.266 496.984Z" fill="#F5F5F5"/>
<path opacity="0.45" d="M255.25 491.033C253.599 491.681 251.219 491.572 250.017 490.536C248.754 489.449 249.565 488.285 251.45 487.275C249.406 488.616 249.609 489.804 251.016 490.616C251.675 490.998 252.354 491.193 253.093 491.236C253.753 491.279 254.462 491.2 255.25 491.033Z" fill="#F5F5F5"/>
<path opacity="0.45" d="M245.466 485.832C245.157 486.106 242.525 488.558 243.687 491.01C244.919 493.624 248.775 495.302 251.886 495.639L251.883 495.642C249.911 495.57 247.886 495.08 245.85 493.905C241.718 491.519 241.793 488.623 245.466 485.832Z" fill="#F5F5F5"/>
<path d="M222.394 487.448L223.481 479.196L224.569 487.448L238.863 488.077L224.569 488.704L223.481 496.956L222.394 488.704L208.099 488.077L222.394 487.448Z" fill="white"/>
<g opacity="0.3">
<path d="M480.92 504.207C480.859 504.207 480.796 504.191 480.741 504.159L457.388 490.676C457.277 490.612 457.208 490.494 457.208 490.364C457.208 490.235 457.277 490.117 457.388 490.053L486.58 473.199C486.692 473.134 486.828 473.134 486.939 473.199L510.292 486.683C510.403 486.746 510.471 486.865 510.471 486.994C510.471 487.123 510.402 487.241 510.292 487.305L481.101 504.159C481.044 504.191 480.982 504.207 480.92 504.207ZM458.286 490.366L480.92 503.434L509.393 486.995L486.758 473.927L458.286 490.366Z" fill="#8606E2"/>
</g>
<path d="M480.92 500.478L480.918 379.605L463.403 369.493L463.405 490.366L480.92 500.478Z" fill="#8606E2"/>
<path opacity="0.2" d="M480.92 500.478L480.918 379.605L463.403 369.493L463.405 490.366L480.92 500.478Z" fill="black"/>
<path d="M480.92 500.478L504.273 486.995L504.277 366.125L480.918 379.605L480.92 500.478Z" fill="#8606E2"/>
<path d="M504.277 366.125L486.762 356.012L463.403 369.493L480.918 379.605L504.277 366.125Z" fill="#8606E2"/>
<path opacity="0.25" d="M504.277 366.125L486.762 356.012L463.403 369.493L480.918 379.605L504.277 366.125Z" fill="white"/>
<path opacity="0.3" d="M504.277 366.124L480.686 379.128L473.025 374.851L463.402 369.493L472.853 375.148L480.601 379.773C480.417 382.402 480.367 489.794 480.403 492.423C480.443 495.109 480.568 497.793 480.919 500.478C481.269 497.793 481.393 495.108 481.432 492.422C481.465 489.876 481.416 382.57 481.246 380.025L504.277 366.124Z" fill="white"/>
<g opacity="0.3">
<path d="M437.134 529.488C437.072 529.488 437.01 529.473 436.954 529.44L413.601 515.957C413.49 515.893 413.423 515.775 413.423 515.646C413.423 515.518 413.492 515.399 413.601 515.335L442.794 498.482C442.906 498.418 443.041 498.418 443.153 498.482L466.506 511.965C466.617 512.029 466.686 512.147 466.686 512.276C466.686 512.405 466.617 512.523 466.506 512.587L437.315 529.441C437.257 529.473 437.195 529.488 437.134 529.488ZM414.499 515.646L437.133 528.714L465.605 512.275L442.972 499.208L414.499 515.646Z" fill="#8606E2"/>
</g>
<path d="M437.134 525.758L437.13 453.238L419.616 443.125L419.619 515.646L437.134 525.758Z" fill="#8606E2"/>
<path opacity="0.1" d="M437.134 525.758L437.13 453.238L419.616 443.125L419.619 515.646L437.134 525.758Z" fill="white"/>
<path d="M437.134 525.758L460.487 512.275L460.489 439.756L437.13 453.238L437.134 525.758Z" fill="#8606E2"/>
<path opacity="0.3" d="M437.134 525.758L460.487 512.275L460.489 439.756L437.13 453.238L437.134 525.758Z" fill="white"/>
<path d="M460.489 439.756L442.975 429.644L419.616 443.125L437.13 453.238L460.489 439.756Z" fill="#8606E2"/>
<path opacity="0.55" d="M460.489 439.756L442.975 429.644L419.616 443.125L437.13 453.238L460.489 439.756Z" fill="white"/>
<path opacity="0.3" d="M437.441 453.668L460.489 439.756L436.895 452.763C434.352 451.321 431.794 449.904 429.238 448.484L419.616 443.125L429.067 448.78C431.65 450.328 434.23 451.88 436.826 453.405C436.744 456.132 436.66 469.286 436.635 472.012C436.607 474.794 436.595 506.282 436.618 509.065C436.633 511.847 436.679 514.629 436.772 517.411C436.842 520.194 436.955 522.976 437.134 525.758C437.312 522.976 437.425 520.194 437.495 517.411C437.586 514.629 437.632 511.847 437.646 509.065C437.668 506.282 437.655 474.794 437.627 472.012C437.602 469.373 437.521 456.307 437.441 453.668Z" fill="white"/>
<g opacity="0.3">
<path d="M393.347 554.769C393.285 554.769 393.222 554.753 393.167 554.72L369.814 541.237C369.703 541.173 369.634 541.055 369.634 540.926C369.634 540.797 369.703 540.679 369.814 540.615L399.006 523.761C399.118 523.697 399.253 523.697 399.366 523.761L422.719 537.244C422.83 537.308 422.898 537.426 422.898 537.555C422.898 537.684 422.83 537.803 422.719 537.866L393.527 554.72C393.471 554.753 393.408 554.769 393.347 554.769ZM370.712 540.927L393.347 553.996L421.819 537.557L399.185 524.488L370.712 540.927Z" fill="#8606E2"/>
</g>
<path d="M393.346 551.038L393.343 525.553L375.829 515.441L375.832 540.927L393.346 551.038Z" fill="#8606E2"/>
<path opacity="0.45" d="M393.346 551.038L393.343 525.553L375.829 515.441L375.832 540.927L393.346 551.038Z" fill="black"/>
<path d="M393.346 551.038L416.699 537.556L416.703 512.071L393.343 525.553L393.346 551.038Z" fill="#8606E2"/>
<path opacity="0.3" d="M393.346 551.038L416.699 537.556L416.703 512.071L393.343 525.553L393.346 551.038Z" fill="black"/>
<path d="M416.703 512.071L399.187 501.959L375.829 515.441L393.343 525.553L416.703 512.071Z" fill="#8606E2"/>
<path opacity="0.15" d="M416.703 512.071L399.187 501.959L375.829 515.441L393.343 525.553L416.703 512.071Z" fill="black"/>
<path opacity="0.3" d="M416.703 512.071L393.113 525.076L385.451 520.799L375.828 515.441L385.28 521.096L393.022 525.717C392.844 527.318 392.794 544.473 392.83 546.073C392.87 547.729 392.996 549.384 393.346 551.04C393.696 549.384 393.82 547.729 393.859 546.073C393.892 544.555 393.846 527.483 393.688 525.964L416.703 512.071Z" fill="white"/>
<g opacity="0.3">
<path d="M524.708 478.927C524.646 478.927 524.583 478.911 524.528 478.878L501.175 465.395C501.064 465.332 500.995 465.213 500.995 465.084C500.995 464.955 501.064 464.837 501.175 464.773L530.367 447.919C530.48 447.855 530.615 447.855 530.727 447.919L554.08 461.402C554.191 461.466 554.259 461.584 554.259 461.713C554.259 461.843 554.191 461.961 554.08 462.025L524.887 478.878C524.832 478.911 524.769 478.927 524.708 478.927ZM502.073 465.085L524.708 478.154L553.181 461.715L530.547 448.646L502.073 465.085Z" fill="#8606E2"/>
</g>
<path d="M524.708 475.198L524.704 307.877L507.19 297.765L507.193 465.086L524.708 475.198Z" fill="#8606E2"/>
<path opacity="0.3" d="M524.708 475.198L524.704 307.877L507.19 297.765L507.193 465.086L524.708 475.198Z" fill="white"/>
<path d="M524.708 475.198L548.061 461.715L548.064 294.396L524.704 307.877L524.708 475.198Z" fill="#8606E2"/>
<path opacity="0.55" d="M524.708 475.198L548.061 461.715L548.064 294.396L524.704 307.877L524.708 475.198Z" fill="white"/>
<path d="M548.064 294.396L530.548 284.283L507.19 297.765L524.704 307.877L548.064 294.396Z" fill="#8606E2"/>
<path opacity="0.75" d="M548.064 294.396L530.548 284.283L507.19 297.765L524.704 307.877L548.064 294.396Z" fill="white"/>
<path opacity="0.3" d="M525.014 308.309L548.064 294.397L524.47 307.403C521.927 305.962 519.369 304.545 516.813 303.125L507.19 297.766L516.642 303.421C519.225 304.969 521.805 306.521 524.401 308.046C524.319 311.136 524.234 349.89 524.21 352.979C524.182 356.125 524.17 453.179 524.193 456.324C524.208 459.469 524.254 462.616 524.346 465.761C524.416 468.906 524.529 472.053 524.708 475.198C524.886 472.053 524.998 468.906 525.068 465.761C525.16 462.616 525.206 459.469 525.22 456.324C525.243 453.179 525.23 356.125 525.201 352.979C525.177 349.976 525.094 311.311 525.014 308.309Z" fill="white"/>
<path opacity="0.5" d="M118.153 204.828L50.4952 243.891L84.3259 181.744L118.153 204.828Z" fill="#8606E2"/>
<path opacity="0.3" d="M118.153 233.237L50.4952 272.299L84.3259 210.153L118.153 233.237Z" fill="#8606E2"/>
<path opacity="0.15" d="M118.153 261.645L50.4952 300.708L84.3259 238.561L118.153 261.645Z" fill="#8606E2"/>
<path opacity="0.2" d="M271.97 342.585C277.358 337.939 284.504 333.582 293.202 329.637C302.977 325.204 314.731 321.275 322.893 316.453C333.5 310.187 337.544 302.634 336.769 295.034C336.332 290.729 333.767 285.956 323.982 282.784C321.477 281.973 318.425 281.278 315.137 281.119C310.31 280.885 306.125 281.83 302.755 282.849C284.779 288.29 277.146 296.648 271.116 304.771C265.085 312.892 257.761 317.599 244.597 325.254C238.964 328.529 232.921 331.736 227.6 335.052C227.557 335.079 227.514 335.105 227.471 335.133C224.784 336.818 221.823 338.38 219.707 340.187C216.331 343.071 213.36 346.045 212.144 349.193C210.928 352.34 211.535 355.689 215.124 358.824C216.048 359.631 217.25 360.458 219.303 361.007C221.041 361.471 223.216 361.686 225.317 361.757C229.598 361.901 233.735 361.495 237.231 360.81C240.727 360.125 243.642 359.173 246.333 358.169C258.066 353.791 265.536 348.131 271.97 342.585Z" fill="black"/>
<path d="M216.84 182.527C215.855 185.142 212.984 190.695 213.164 191.396C213.654 193.314 213.749 194.483 213.326 196.72C213.072 198.058 201.503 202.606 201.503 202.606L201.222 200.776C201.033 199.543 201.187 198.283 201.679 197.137C203.019 194.008 205.756 187.168 206.608 181.643L216.84 182.527Z" fill="#FFA8A7"/>
<path d="M213.508 195.546L201.266 201.05L201.504 202.607C201.504 202.607 213.074 198.059 213.327 196.722C213.406 196.291 213.463 195.909 213.508 195.546Z" fill="#F28F8F"/>
<path d="M176.381 219.081L172.702 256.876C172.523 258.708 173.716 259.893 175.209 260.98L178.961 263.664C179.997 264.407 180.588 264.68 182.006 264.577C182.626 264.538 183.699 264.14 184.213 263.914C184.247 263.909 184.273 263.895 184.3 263.88L184.526 263.778L227.435 244.278C230.57 242.853 232.706 239.864 233.04 236.437L236.392 202.022C236.468 201.239 236.007 200.224 235.367 199.767L228.959 195.191C228.321 194.73 227.215 194.621 226.5 194.951L177.826 217.072C177.46 217.229 177.122 217.545 176.862 217.903C176.602 218.269 176.418 218.693 176.381 219.081Z" fill="#37474F"/>
<path d="M176.381 219.081L172.702 256.876C172.523 258.708 173.716 259.893 175.209 260.98L178.961 263.664C179.997 264.407 180.588 264.68 182.006 264.577C182.626 264.538 183.699 264.14 184.213 263.914L184.214 263.898C182.558 264.486 181.391 263.54 181.574 261.666L185.041 226.055C185.099 225.461 185.371 224.82 185.766 224.268L176.863 217.903C176.602 218.269 176.418 218.693 176.381 219.081Z" fill="#263238"/>
<path d="M185.039 226.055C185.154 224.87 186.135 223.499 187.218 223.007L233.222 202.099C235.041 201.273 236.37 202.224 236.177 204.211L233.043 236.432C232.71 239.861 230.571 242.85 227.436 244.276L184.526 263.777C182.708 264.603 181.379 263.654 181.572 261.665L185.039 226.055Z" fill="#455A64"/>
<path d="M234.412 203.611C234.381 203.656 234.399 203.808 234.377 204.036L231.244 236.258C230.974 239.034 229.229 241.475 226.688 242.631L183.779 262.133C183.569 262.228 183.425 262.258 183.346 262.267C183.366 262.219 183.348 262.068 183.371 261.842L186.838 226.231C186.898 225.618 187.406 224.907 187.967 224.652L233.971 203.747C234.191 203.645 234.336 203.618 234.412 203.611ZM234.456 201.802C234.084 201.802 233.668 201.897 233.223 202.101L187.219 223.007C186.136 223.499 185.155 224.871 185.04 226.055L181.573 261.666C181.426 263.168 182.148 264.077 183.294 264.077C183.665 264.077 184.081 263.98 184.527 263.778L227.438 244.276C230.573 242.85 232.711 239.86 233.045 236.432L236.178 204.211C236.322 202.711 235.6 201.802 234.456 201.802Z" fill="#37474F"/>
<path d="M231.035 196.674L182.249 219.097C180.847 219.741 179.893 221.082 179.743 222.618L175.957 261.515L176.62 261.991L180.446 222.686C180.571 221.405 181.375 220.276 182.544 219.738L231.697 197.146L231.035 196.674Z" fill="#8606E2"/>
<path opacity="0.2" d="M180.528 220.523C180.094 221.132 179.818 221.851 179.743 222.617L175.957 261.515L176.62 261.991L180.446 222.686C180.508 222.045 180.74 221.445 181.103 220.936L180.528 220.523Z" fill="black"/>
<path opacity="0.2" d="M181.102 220.936C181.466 220.426 181.959 220.008 182.544 219.738L231.697 197.146L231.035 196.674L182.249 219.097C181.551 219.418 180.961 219.916 180.528 220.523" fill="black"/>
<path d="M214.166 199.907L213.597 205.76L215.757 207.305L216.514 199.532C216.553 199.134 216.286 198.943 215.923 199.109L214.166 199.907Z" fill="#8606E2"/>
<path opacity="0.4" d="M214.166 199.907L213.597 205.76L215.757 207.305L216.514 199.532C216.553 199.134 216.286 198.943 215.923 199.109L214.166 199.907Z" fill="black"/>
<path d="M197.519 204.124L196.596 213.599L198.658 215.076L200.212 214.368L200.969 206.597C201.008 206.197 201.338 205.736 201.703 205.57L213.476 200.222L215.922 199.11C216.286 198.945 216.553 199.134 216.514 199.533L215.757 207.305L217.315 206.597L218.237 197.125C218.24 197.085 218.241 197.041 218.238 197C218.227 196.623 218.005 196.185 217.711 195.977L216.833 195.346C216.508 195.113 215.946 195.058 215.579 195.224L198.249 203.098C197.883 203.267 197.557 203.726 197.519 204.124Z" fill="#8606E2"/>
<path opacity="0.2" d="M199.58 205.602L198.658 215.077L200.212 214.369L200.969 206.598C201.008 206.199 201.338 205.737 201.703 205.571L213.476 200.223L215.922 199.111C216.286 198.946 216.553 199.135 216.514 199.534L215.757 207.306L217.315 206.598L218.237 197.126C218.24 197.086 218.241 197.043 218.238 197.002C218.214 196.688 217.966 196.555 217.641 196.703L200.312 204.577C199.949 204.744 199.618 205.204 199.58 205.602Z" fill="black"/>
<path d="M211.629 199.47C211.882 199.479 212.127 199.552 212.329 199.707C212.645 199.176 213.257 198.835 213.874 198.845C214.146 198.85 214.46 198.96 214.53 199.222C214.553 199.309 214.546 199.4 214.538 199.491C214.454 200.363 214.334 201.231 214.178 202.092C214.065 202.714 213.907 203.381 213.429 203.796C213.037 204.136 212.46 204.245 211.971 204.07C211.795 204.482 211.438 204.806 211.025 204.972C210.928 205.011 209.711 205.117 209.786 204.974C209.329 205.829 208.321 206.71 207.018 206.451C207.018 206.451 206.694 207.386 204.977 207.185C203.258 206.984 202.498 205.089 202.498 205.089C202.595 204.559 202.777 204.347 203.368 204.118C203.661 204.005 203.976 203.873 204.255 203.733C204.659 203.532 204.921 203.063 205.212 202.72C205.508 202.372 205.852 202.043 206.28 201.879C206.708 201.716 207.238 201.751 207.571 202.064C207.609 201.71 207.847 201.412 208.093 201.154C208.315 200.922 208.591 200.691 208.923 200.656C209.02 200.646 209.804 200.782 209.709 200.987C209.944 200.48 210.271 199.992 210.75 199.704C211.011 199.545 211.325 199.459 211.629 199.47Z" fill="#FFA8A7"/>
<path d="M218.562 181.644C217.813 185.107 215.931 188.217 216.768 191.126C217.332 193.092 217.486 192.89 217.259 194.893C217.174 195.636 216.87 196.813 216.616 197.516C216.465 197.935 216.318 198.353 216.166 198.772C216.007 199.211 215.845 199.653 215.615 200.06C215.318 200.584 214.91 201.039 214.525 201.495C213.846 202.297 213.141 203.097 212.27 203.685C212.223 203.716 212.174 203.744 212.12 203.761C211.904 203.832 211.658 203.733 211.505 203.566C210.749 202.735 211.32 201.526 211.717 200.686C212.16 199.75 212.681 198.803 212.659 197.737C212.656 197.606 212.648 197.188 212.66 196.529C212.654 196.531 211.59 196.263 211.59 196.263C211.59 196.263 208.133 195.431 208.07 193.757C208.007 192.085 209.336 190.472 210.332 188.514C211.353 186.508 211.746 185.27 212.766 180.201L218.562 181.644Z" fill="#FFA8A7"/>
<path d="M215.615 200.059C214.827 201.342 213.819 202.485 212.69 203.482C212.501 203.626 212.338 203.874 211.995 203.903C210.382 203.599 211.142 201.468 211.684 200.53C212.127 199.641 212.631 198.751 212.659 197.736C212.727 198.755 212.27 199.717 211.858 200.612C211.435 201.484 210.678 203.268 211.986 203.663C213.358 202.847 214.592 201.331 215.615 200.059Z" fill="#F28F8F"/>
<path d="M212.385 196.204C211.964 195.99 211.502 195.832 211.103 195.574C210.793 195.372 210.534 195.096 210.326 194.792C209.823 194.055 209.375 193.087 209.521 192.177C209.53 192.122 209.467 192.021 209.434 192.114C209.064 193.137 209.348 194.302 209.899 195.212C210.158 195.638 210.543 195.979 210.964 196.238C211.181 196.372 211.415 196.473 211.664 196.536C211.946 196.607 212.147 196.613 212.41 196.49C212.506 196.446 212.465 196.244 212.385 196.204Z" fill="#F28F8F"/>
<path d="M239.118 112.215C231.644 111.639 225.676 113.123 221.813 122.953C217.45 134.055 213.154 142.619 210.992 150.698C208.828 158.776 205.633 184.33 205.633 184.33C205.633 184.33 211.28 189.248 217.494 187.005L226.899 157.961L239.118 134.458V112.215Z" fill="#E6E6E6"/>
<path d="M323.98 295.576C324.503 295.212 325.267 296.559 325.285 297.4C325.336 299.814 323.712 303.349 320.189 306.476C316.667 309.603 308.216 312.929 305.782 314.167C303.349 315.404 299.914 318.905 297.755 320.612C293.821 323.719 290.194 324.173 288.005 323.572C287.146 323.337 286.643 322.563 286.275 321.861C285.4 320.194 285.359 319.783 285.549 319.694L323.98 295.576Z" fill="#37474F"/>
<path d="M283.347 314.642C283.895 316.444 285.127 319.269 286.272 320.78C287.454 321.725 289.179 321.674 290.439 321.412C293.76 320.721 296.436 319.005 299.176 316.606C300.819 315.169 302.612 313.609 304.918 312.483C307.452 311.246 313.182 308.772 315.669 307.429C317.78 306.288 320.229 304.363 321.659 302.391C322.868 300.725 324.402 297.671 324.248 296.103C323.134 292.851 321.852 291.261 319.591 291.209C317.203 291.155 314.518 292.38 310.816 294.093C309.708 294.607 308.332 295.293 307.729 295.547C305.447 296.51 303.348 297.47 301.659 298.275C300.213 298.965 298.789 299.626 297.151 299.639C296.371 299.645 295.736 299.561 295.112 299.094C294.35 298.527 293.744 297.42 293.048 297.726C293.048 297.726 282.04 306.576 281.111 307.225C280.042 307.976 281.689 309.186 283.347 314.642Z" fill="#455A64"/>
<path d="M308.608 294.911C309.094 294.948 309.728 295.24 310.099 295.475C310.606 295.796 311.029 296.139 311.445 296.575C311.952 297.105 311.256 297.655 310.561 297.11C310.084 296.736 309.568 296.301 308.747 295.908C308.355 295.72 307.645 295.585 307.271 295.743C306.988 295.863 306.619 296.022 306.619 296.022C306.527 295.47 307.963 294.861 308.608 294.911Z" fill="#FAFAFA"/>
<path d="M302.764 297.332C303.171 297.042 303.591 296.96 304.102 297.043C304.705 297.14 305.224 297.46 305.68 297.846C306.05 298.159 306.91 299.011 307.192 299.409C307.46 299.783 306.513 300.294 306.17 299.915C305.829 299.543 305.182 298.863 304.757 298.51C304.497 298.293 303.426 297.518 302.72 297.774L302.419 297.92C302.339 297.782 302.471 297.584 302.583 297.481C302.64 297.426 302.7 297.377 302.764 297.332Z" fill="#FAFAFA"/>
<path d="M299.492 299.033C299.866 298.967 300.082 298.895 300.435 299.047C300.767 299.191 301.215 299.472 301.475 299.73C302.191 300.445 302.431 300.822 302.855 301.537C303.155 302.043 302.145 302.43 301.922 302.104C301.218 301.077 300.822 300.369 299.867 299.865C299.08 299.45 298.587 299.468 298.587 299.468C298.562 299.362 298.694 299.274 298.792 299.238C298.946 299.182 299.329 299.06 299.492 299.033Z" fill="#FAFAFA"/>
<path d="M273.54 294.558C273.54 294.558 279.722 305.494 281.428 307.93C281.974 308.71 283.719 308.169 284.718 308.07C285.717 307.971 287.296 307.817 288.37 308.119C291.547 309.01 293.352 308.626 292.6 304.382C292.445 303.514 292.738 302.936 293.768 302.588C294.538 302.326 295.421 302.241 296.044 301.708C296.113 301.577 295.955 301.447 295.822 301.381C294.802 300.883 294.225 300.528 293.514 298.986C291.314 294.213 289.301 284.385 289.301 284.385L273.54 294.558Z" fill="#FFA8A7"/>
<path d="M226.716 319.015C228.609 315.987 229.633 310.157 233.8 298.31L249.25 309.624L240.4 326.878C239.898 327.743 239.879 329.044 239.703 329.297C237.639 332.264 226.716 319.015 226.716 319.015Z" fill="#FFA8A7"/>
<path d="M220.993 325.474C221.016 325.299 220.923 323.871 220.968 323.7C221.37 322.163 222.32 321.738 223.539 320.879C225.052 319.814 226.517 318.54 226.905 318.001C227.314 317.435 227.392 317.142 228.027 316.884C229.107 316.445 230.844 316.41 232.982 317.534C236.487 319.374 237.558 321.592 237.355 323.995C237.202 325.826 237.049 328.263 238.664 329.353C239.335 329.806 240.398 326.878 240.398 326.878C241.394 328.547 239.995 330.858 239.266 334.239C238.765 336.559 238.887 337.569 239.168 339.925C239.522 342.894 239.932 342.882 241.509 343.088C242.867 343.266 246.717 343.008 249.059 344.644C252.288 346.899 251.426 349.898 251.426 349.898C251.008 351.039 247.497 356.576 234.669 354.509C230.949 353.909 223.133 348.059 223.252 347.513C223.363 347.005 223.24 346.345 223.222 345.833C223.178 344.521 223.121 343.21 223.064 341.899C223.012 340.704 223.134 339.313 222.846 338.152C222.59 337.118 222.468 336.128 222.368 335.054C222.122 332.421 221.877 329.787 221.631 327.154C221.56 326.396 220.891 326.222 220.993 325.474Z" fill="#455A64"/>
<path d="M219.377 324.955C218.112 326.179 218.882 329.73 220.579 333.993C221.331 335.884 222.732 339.139 222.321 342.6C221.91 346.06 221.838 347.695 222.729 349.317C224.124 351.854 231.582 355.101 235.977 356.118C235.977 356.118 231.95 351.063 231.509 343.424C231.066 335.787 230.483 330.863 226.991 327.476C222.575 323.193 219.377 324.955 219.377 324.955Z" fill="#263238"/>
<path d="M251.426 349.899C251.426 349.899 248.853 354.72 238.929 354.562C235.023 354.5 232.932 352.597 232.835 346.659C232.719 339.502 232.143 332.275 229.829 328.722C227.514 325.169 223.828 323.447 220.968 323.7C220.471 323.78 219.843 324.254 219.377 324.954C219.377 324.954 222.239 324.014 226.692 327.709C229.979 330.437 230.868 336.135 230.819 343.212C230.797 346.257 230.613 349.711 231.504 352.021C232.326 354.15 234.149 355.61 236.242 356.197C241.638 357.713 249.021 355.215 250.889 352.935C251.961 351.414 251.426 349.899 251.426 349.899Z" fill="#37474F"/>
<path d="M239.503 341.789C239.503 341.789 240.227 342.3 240.306 342.973C240.385 343.646 240.152 345.201 238.742 346.081C238.145 346.454 237.624 346.324 238.573 345.069C239.522 343.815 239.503 341.789 239.503 341.789Z" fill="#FAFAFA"/>
<path d="M238.97 338.085C238.97 338.085 239.285 338.288 239.364 339.283C239.407 339.816 238.577 341.964 237.533 342.476C236.488 342.988 237.053 341.784 237.506 341.193C238.003 340.544 238.878 339.071 238.97 338.085Z" fill="#FAFAFA"/>
<path d="M239.322 333.993C239.322 333.993 239.661 334.087 239.299 335.456C239.176 335.918 237.81 337.274 237.136 337.355C236.463 337.435 236.136 337.099 236.962 336.499C237.613 336.028 239.196 334.657 239.322 333.993Z" fill="#FAFAFA"/>
<path d="M264.643 181.042C264.643 181.042 270.647 188.237 274.277 201.695C278.684 218.032 280.389 230.597 281.766 239.715C282.633 245.444 283.462 250.97 285.457 261.985C287.351 272.454 292.058 295.101 292.058 295.101C292.058 295.101 291.231 298.553 286.573 300.591C281.916 302.629 276.876 301.847 276.876 301.847C276.876 301.847 273.682 296.393 267.024 283.543C262.506 274.825 261.762 270.077 260.888 265.614C260.234 262.254 259.456 255.694 259.52 252.676L234.528 210.209C234.528 210.209 231.849 207.42 229.514 201.558C225.981 192.69 230.492 179.914 230.492 179.914L264.643 181.042Z" fill="#37474F"/>
<path d="M264.643 181.042C264.643 181.042 270.647 188.237 274.277 201.695C278.684 218.032 280.389 230.597 281.766 239.715C282.633 245.444 283.462 250.97 285.457 261.985C287.351 272.454 292.058 295.101 292.058 295.101C292.058 295.101 291.231 298.553 286.573 300.591C281.916 302.629 276.876 301.847 276.876 301.847C276.876 301.847 273.682 296.393 267.024 283.543C262.506 274.825 261.762 270.077 260.888 265.614C260.234 262.254 259.456 255.694 259.52 252.676L234.528 210.209C234.528 210.209 231.849 207.42 229.514 201.558C225.981 192.69 230.492 179.914 230.492 179.914L264.643 181.042Z" fill="#37474F"/>
<path d="M281.277 236.444C279.962 227.666 278.18 216.162 274.277 201.695C273.151 197.52 271.796 193.95 270.464 191.009L238.763 190.452C236.404 195.964 234.537 202.852 239.7 211.265L241.059 221.301L259.522 252.674C259.458 255.693 260.235 262.253 260.889 265.612C261.763 270.074 262.508 274.822 267.025 283.54C267.224 283.923 267.409 284.278 267.601 284.647C269.604 281.659 272.732 276.813 273.928 273.983C275.745 269.681 276.989 261.392 278.894 250.893C279.594 247.025 280.502 241.417 281.277 236.444Z" fill="#263238"/>
<path d="M243.807 181.042C242.24 182.649 238.336 188.032 237.699 196.318C237.429 199.826 238.427 206.44 242.525 211.415C243.78 229.794 247.412 265.191 247.412 265.191C242.556 270.191 241.298 273.417 238.486 282.38C236.78 287.822 231.802 304.271 229.878 310.408C241.659 310.919 243.878 321.014 243.878 321.014C243.878 321.014 258.159 297.994 265.366 284.989C270.694 275.376 271.375 273.085 272.822 267.359C274.268 261.633 274.54 256.323 276.291 244.365C278.042 232.406 281.148 215.933 282.005 204.16C282.862 192.388 283.023 179.911 283.023 179.911L243.807 181.042Z" fill="#37474F"/>
<path d="M228.227 195.447C229.419 195.106 231.114 193.966 231.756 192.942C232.141 192.326 232.373 191.45 232.668 190.341C232.99 189.13 233.39 187.621 234.151 185.924L235.059 186.331C234.332 187.956 233.959 189.359 233.63 190.598C233.313 191.788 233.064 192.727 232.6 193.47C231.839 194.69 229.867 196.069 228.313 196.441C228.279 196.108 228.249 195.777 228.227 195.447Z" fill="#263238"/>
<path d="M251.831 205.978C251.578 205.972 251.363 205.95 251.195 205.914C249.753 205.595 248.631 204.626 246.398 201.769C244.696 199.593 244.871 198.03 245.158 195.442C245.264 194.492 246.265 189.411 246.328 188.072L247.282 188.603C247.217 189.973 246.254 194.587 246.147 195.552C245.861 198.125 245.732 199.3 247.182 201.156C249.248 203.797 250.234 204.682 251.409 204.942C252.547 205.199 257.592 204.363 258.937 203.433C259.712 202.893 261.013 196.253 261.773 190.408L262.76 190.537C262.376 193.491 261.006 203.212 259.503 204.252C258.168 205.175 253.835 206.031 251.831 205.978Z" fill="#263238"/>
<path d="M230.238 117.547C226.871 123.983 227.289 129.748 228.259 138.777C229.155 147.104 229.784 152.262 230.551 162.563C231.427 174.331 229.86 181.753 229.86 181.753C229.86 181.753 230.193 186.74 244.865 190.476C270.65 197.044 283.024 189.56 283.024 189.56C283.024 189.56 283.646 175.038 282.646 156.043C281.526 134.763 281.155 131.649 279.51 126.588C278.3 123.791 276.012 121.277 272.913 119.869C270.354 118.707 264.223 116.701 260.585 115.297C252.118 112.03 242.331 112.233 242.331 112.233C234.989 111.738 231.986 114.205 230.238 117.547Z" fill="#F5F5F5"/>
<path d="M240.529 113.376C241.076 113.376 241.655 113.397 242.25 113.436L242.303 113.44L242.356 113.439C242.364 113.439 242.475 113.436 242.677 113.436C244.303 113.436 252.788 113.58 260.151 116.423C261.624 116.991 263.524 117.665 265.361 118.317C268.097 119.288 270.927 120.293 272.415 120.968C275.048 122.163 277.22 124.365 278.381 127.016C279.931 131.8 280.303 134.458 281.442 156.107C282.305 172.51 281.949 185.71 281.843 188.818C280.126 189.647 274.448 191.97 264.743 191.97C258.685 191.97 252.096 191.074 245.162 189.308C233.02 186.216 231.293 182.375 231.086 181.759C231.353 180.356 232.554 173.24 231.752 162.474C231.103 153.754 230.553 148.714 229.858 142.333L229.457 138.649C228.488 129.639 228.096 124.242 231.305 118.107C232.53 115.766 234.583 113.376 240.529 113.376ZM240.529 112.17C234.48 112.17 231.835 114.493 230.237 117.547C226.87 123.983 227.288 129.748 228.258 138.777C229.154 147.104 229.783 152.262 230.55 162.563C231.427 174.331 229.858 181.753 229.858 181.753C229.858 181.753 230.19 186.74 244.863 190.476C252.726 192.478 259.344 193.175 264.742 193.175C277.047 193.175 283.022 189.56 283.022 189.56C283.022 189.56 283.644 175.038 282.644 156.043C281.525 134.763 281.152 131.649 279.507 126.588C278.298 123.792 276.01 121.277 272.911 119.869C270.35 118.707 264.221 116.701 260.583 115.297C253.055 112.392 244.484 112.23 242.675 112.23C242.449 112.23 242.329 112.233 242.329 112.233C241.7 112.191 241.1 112.17 240.529 112.17Z" fill="#E0E0E0"/>
<path d="M261.221 108.007L260.527 115.835C256.244 116.769 245.833 116.099 243.88 113.438L244.29 106.264L261.221 108.007Z" fill="#FFA8A7"/>
<path d="M272.379 87.9414C272.379 87.9414 274.367 89.4453 275.876 94.6419L272.93 96.8031C271.96 93.1525 270.914 89.4344 272.379 87.9414Z" fill="#F28F8F"/>
<path d="M264.782 73.396C272.095 73.882 273.318 77.6929 272.231 90.1654C274.798 102.007 271.253 106.691 269.727 108.242C266.28 110.088 262.776 110.394 258.015 109.153C254.386 108.207 245.193 105.48 241.342 99.776C236.812 93.0646 235.628 82.8594 240.453 79.0617C247.243 73.7155 261.87 73.203 264.782 73.396Z" fill="#FFA8A7"/>
<path d="M269.727 108.242C268.881 109.099 263.988 110.649 260.973 110.319L261.222 108.007C261.222 108.007 265.409 108.79 269.727 108.242Z" fill="#F28F8F"/>
<path d="M265.547 82.0105C265.391 82.546 265.158 83.0597 264.859 83.5301C264.037 84.8241 262.862 85.52 261.609 86.3051C262.065 87.8307 262.557 89.4093 262.577 91.0278C262.583 91.5451 262.542 92.0927 262.249 92.5256C261.734 93.2902 260.866 93.2155 260.466 92.5063C259.986 91.6549 259.649 90.7685 258.978 90.0292C258.201 89.1742 257.14 88.5265 255.973 88.412C251.562 87.9826 251.545 94.8508 253.314 97.176C256.209 100.982 258.586 98.54 258.586 98.54C258.586 98.54 260.074 104.41 255.82 106.953C255.82 106.953 248.967 108.633 244.29 106.264C242.149 101.859 239.262 99.2877 236.963 94.5963C232.942 86.3895 234.868 79.1812 237.608 77.6991C236.838 73.8664 239.169 70.1001 244.127 67.7616C249.014 65.4558 255.767 66.6316 260.964 67.4637C264.051 67.9582 267.245 67.7773 270.257 66.9379C270.684 66.8185 271.116 66.6859 271.559 66.6871C272.001 66.6895 272.47 66.8499 272.726 67.2117C273.06 67.6832 272.943 68.3429 272.687 68.8603C272.432 69.3777 272.053 69.8359 271.864 70.3823C272.935 70.0904 274.054 70.8876 274.536 71.8874C275.213 73.2875 274.932 75.0326 274.045 76.3098C273.159 77.5869 271.744 78.4287 270.254 78.8713C268.763 79.3127 267.189 79.3863 265.635 79.3754C265.843 80.2413 265.795 81.153 265.547 82.0105Z" fill="#263238"/>
<path d="M260.824 112.495C261.942 112.44 263.156 114.749 265.35 117.033C265.35 117.033 259.167 120.619 249.943 119.23C240.721 117.841 238.951 112.228 238.951 112.228C238.951 112.228 241.059 110.61 242.17 109.518C243.52 108.192 244.181 108.17 244.181 108.17L244.073 110.059C244.073 110.059 245.842 111.89 251.463 113.028C257.085 114.164 260.824 112.495 260.824 112.495Z" fill="#E6E6E6"/>
<path d="M293.467 166.806C293.467 166.806 290.83 153.584 288.908 144.314C286.986 135.044 287.73 124.336 273.138 120.668C270.725 124.35 269.151 129.99 269.965 137.025C270.779 144.059 273.989 155.092 274.795 158.821C275.603 162.55 278.336 169.976 281.814 175.144C286.439 182.016 295.065 193.642 298.557 197.914C300.173 199.892 301.575 201.894 303.062 203.997C304.613 206.19 306.671 207.894 308.509 209.855C309.357 210.761 310.575 211.41 311.767 211.742C312.55 211.962 313.328 211.66 314.071 211.865C314.841 212.076 315.306 212.787 316.216 212.812C317.226 212.84 318.047 212.143 318.96 212.231C319.916 212.323 320.847 212.669 321.848 212.643C322.75 212.619 323.365 212.491 324.228 212.852C324.935 213.149 325.924 214.084 326.729 213.607C327.632 213.07 327.357 212.085 327.037 211.271C326.473 209.835 324.891 208.425 323.544 207.711C321.984 206.883 320.636 205.705 318.981 205.061C317.484 204.48 316.175 203.199 315.095 202C314.341 201.162 313.848 199.868 315.377 199.85C317.179 199.83 319.414 200.513 321.054 199.375C322.189 198.587 321.804 197.584 320.704 197.108C318.864 196.309 317.191 195.42 315.474 194.356C313.765 193.295 312.186 192.062 310.453 191.054C309.552 190.529 308.562 190.091 307.591 189.688C304.874 188.559 303.691 185.841 302.321 183.441C300.412 180.095 295.606 171.255 293.467 166.806Z" fill="#FFA8A7"/>
<path d="M272.431 152.673C272.431 152.673 269.873 142.617 269.217 138.415C268.559 134.214 268.187 123.285 272.539 119.705C275.681 120.47 284.084 121.965 286.505 129.869C288.926 137.774 292.579 158.592 292.579 158.592L303.52 184.433C303.52 184.433 303.563 186.84 298.979 189.945C294.395 193.052 292.057 191.993 292.057 191.993C292.057 191.993 283.023 178.318 278.639 171.578C275.696 167.05 274.972 164.05 272.431 152.673Z" fill="#E6E6E6"/>
<path d="M189.765 109.466L189.785 93.9233L202.857 92.5461C203.141 92.5159 203.397 92.5786 203.608 92.7028C204.241 93.0743 210.252 96.5536 210.46 96.6742C211.1 97.042 211.335 97.9706 210.74 98.5966L196.626 113.444L189.765 109.466Z" fill="#8606E2"/>
<path d="M148.759 144.533L148.758 96.4378C148.758 95.7396 149.249 94.8893 149.853 94.5408L189.073 71.9428C189.678 71.593 190.657 71.5978 191.257 71.9536L197.356 75.5559C197.958 75.9117 198.445 76.7656 198.445 77.4638L198.446 125.559C198.446 126.257 197.955 127.108 197.351 127.456L158.131 150.054C157.525 150.404 156.547 150.399 155.947 150.043L149.848 146.441C149.247 146.086 148.759 145.231 148.759 144.533Z" fill="#8606E2"/>
<path opacity="0.15" d="M157.952 150.141C157.431 150.342 157.036 150.05 157.033 149.421L157.036 101.328C157.037 100.977 157.159 100.591 157.359 100.248L149.056 95.397C148.87 95.7322 148.755 96.1013 148.758 96.4402V144.537C148.757 145.233 149.243 146.085 149.847 146.443L155.944 150.044C156.493 150.364 157.349 150.401 157.952 150.141Z" fill="black"/>
<path d="M209.72 96.5224L198.447 97.7103L198.446 77.4639C198.446 76.7657 197.955 76.4822 197.351 76.832L158.131 99.4288C157.527 99.7785 157.036 100.628 157.036 101.326L157.037 149.421C157.037 150.119 157.527 150.403 158.132 150.053L197.352 127.455C197.958 127.105 198.449 126.256 198.449 125.558L198.447 111.527L210.741 98.5943C211.53 97.7657 210.858 96.4018 209.72 96.5224Z" fill="#8606E2"/>
<path opacity="0.35" d="M209.72 96.5224L198.447 97.7103L198.446 77.4639C198.446 76.7657 197.955 76.4822 197.351 76.832L158.131 99.4288C157.527 99.7785 157.036 100.628 157.036 101.326L157.037 149.421C157.037 150.119 157.527 150.403 158.132 150.053L197.352 127.455C197.958 127.105 198.449 126.256 198.449 125.558L198.447 111.527L210.741 98.5943C211.53 97.7657 210.858 96.4018 209.72 96.5224Z" fill="white"/>
<path d="M189.159 118.258C189.244 118.035 189.244 117.807 189.149 117.7L187.47 115.839C187.092 115.414 187.017 114.603 187.264 113.663C187.275 113.645 187.276 113.631 187.277 113.617C187.277 113.617 187.277 113.617 187.283 113.609C187.523 112.692 188.044 111.846 188.645 111.407L191.331 109.454C191.489 109.342 191.613 109.115 191.642 108.89C191.785 107.759 191.857 106.591 191.86 105.439C191.864 104.334 191.794 103.253 191.653 102.213C191.625 102.03 191.504 101.941 191.346 102.007L188.663 103.142C188.065 103.386 187.545 103.154 187.308 102.523C187.3 102.499 187.297 102.481 187.289 102.457C187.043 101.817 187.122 100.901 187.504 100.052L189.187 96.2642C189.281 96.0508 189.287 95.8144 189.196 95.6974C188.236 94.4118 187.054 93.5013 185.67 93.0152C185.546 92.967 185.379 93.0695 185.253 93.2637L183.135 96.7177C182.664 97.4835 182.002 97.9743 181.408 97.9948C181.398 97.9984 181.39 97.9888 181.379 97.9936C180.787 98.0009 180.383 97.5329 180.318 96.778L180.016 93.371C179.999 93.1708 179.879 93.0804 179.727 93.1238C178.135 93.6556 176.323 94.7 174.724 95.9977C174.576 96.1207 174.455 96.3511 174.437 96.573L174.121 100.338C174.06 101.167 173.646 102.102 173.06 102.769C173.049 102.787 173.039 102.791 173.027 102.809C172.432 103.466 171.769 103.743 171.303 103.51L169.195 102.491C169.07 102.428 168.9 102.527 168.77 102.715C167.39 104.791 166.2 107.062 165.232 109.46C165.141 109.679 165.146 109.911 165.241 110.019L166.915 111.875C167.292 112.28 167.363 113.119 167.117 114.045C167.114 114.073 167.108 114.096 167.101 114.119C166.849 115.054 166.346 115.859 165.746 116.298L163.044 118.264C162.897 118.373 162.767 118.608 162.744 118.825C162.599 119.969 162.523 121.132 162.521 122.284C162.519 123.422 162.589 124.504 162.731 125.482C162.757 125.679 162.884 125.759 163.038 125.688L165.73 124.563C166.323 124.315 166.842 124.559 167.093 125.205C167.091 125.219 167.1 125.229 167.099 125.242C167.348 125.9 167.271 126.803 166.889 127.652L165.21 131.444C165.11 131.668 165.105 131.889 165.19 132.015C166.153 133.305 167.341 134.207 168.721 134.702C168.846 134.75 169.017 134.638 169.139 134.44L171.257 130.985C171.727 130.219 172.391 129.728 172.983 129.721C172.992 129.717 173.007 129.717 173.016 129.714C173.604 129.703 174.004 130.165 174.073 130.926L174.374 134.333C174.391 134.533 174.506 134.632 174.664 134.58C175.46 134.315 176.299 133.93 177.161 133.436C178.02 132.936 178.862 132.357 179.666 131.706C179.815 131.583 179.93 131.348 179.953 131.131L180.269 127.366C180.336 126.528 180.738 125.61 181.326 124.944C181.341 124.931 181.357 124.918 181.362 124.909C181.958 124.239 182.611 123.965 183.088 124.194L185.195 125.228C185.314 125.285 185.489 125.191 185.616 124.998C187.001 122.914 188.187 120.652 189.159 118.258ZM177.184 123.744C173.092 126.09 169.776 123.564 169.788 118.113C169.796 112.657 173.126 106.302 177.215 103.951C181.298 101.609 184.612 104.148 184.605 109.604C184.596 115.06 181.263 121.398 177.184 123.744Z" fill="white"/>
</svg>
