<svg id="SvgjsSvg2340" width="360" height="360" xmlns="http://www.w3.org/2000/svg" version="1.1" xmlns:xlink="http://www.w3.org/1999/xlink" xmlns:svgjs="http://svgjs.com/svgjs"><defs id="SvgjsDefs2341"></defs><g id="SvgjsG2342" transform="matrix(1,0,0,1,0,0)"><svg xmlns="http://www.w3.org/2000/svg" xmlns:xlink="http://www.w3.org/1999/xlink" data-name="Layer 1" viewBox="0 0 566.87 597" width="360" height="360"><defs><linearGradient id="a" x1="439.57" x2="408.81" y1="173.09" y2="132.08" gradientUnits="userSpaceOnUse"><stop offset="0" stop-color="#000000" class="stopColor000000 svgShape"></stop><stop offset="1" stop-opacity="0" stop-color="#000000" class="stopColor000000 svgShape"></stop></linearGradient><linearGradient id="k" x1="435.97" x2="636.56" y1="487.63" y2="487.63" xlink:href="#a"></linearGradient><linearGradient id="c" x1="516.72" x2="516.39" y1="425.71" y2="455.87" gradientUnits="userSpaceOnUse"><stop offset="0" stop-color="#b566ff" class="stopColor68e1fd svgShape"></stop><stop offset="1" stop-color="#ad55ff" class="stopColor69b9eb svgShape"></stop></linearGradient><linearGradient id="b" x1="526.21" x2="519.59" y1="502.46" y2="479.52" gradientUnits="userSpaceOnUse"><stop offset="0" stop-color="#000000" class="stopColor000000 svgShape"></stop><stop offset=".84" stop-opacity="0" stop-color="#000000" class="stopColor000000 svgShape"></stop></linearGradient><linearGradient id="l" x1="453.47" x2="654.07" y1="442.99" y2="442.99" xlink:href="#a"></linearGradient><linearGradient id="d" x1="446.86" x2="467.85" y1="454.96" y2="483.47" gradientUnits="userSpaceOnUse"><stop offset=".32" stop-color="#ffffff" stop-opacity="0" class="stopColorfff svgShape"></stop><stop offset="1" stop-color="#ffffff" class="stopColorfff svgShape"></stop></linearGradient><linearGradient id="m" x1="576.06" x2="553.12" y1="363.13" y2="394.01" xlink:href="#a"></linearGradient><linearGradient id="n" x1="585" x2="529.49" y1="365.73" y2="428.53" xlink:href="#b"></linearGradient><linearGradient id="o" x1="568.56" x2="595.47" y1="417.37" y2="425.22" xlink:href="#a"></linearGradient><linearGradient id="p" x1="505.06" x2="504.72" y1="341.38" y2="371.54" xlink:href="#c"></linearGradient><linearGradient id="q" x1="426.09" x2="583.17" y1="383.74" y2="383.74" xlink:href="#c"></linearGradient><linearGradient id="r" x1="446.67" x2="647.26" y1="361.15" y2="361.15" xlink:href="#a"></linearGradient><linearGradient id="s" x1="435.78" x2="463.1" y1="369.82" y2="402.29" xlink:href="#d"></linearGradient><linearGradient id="t" x1="522.95" x2="522.61" y1="299.22" y2="329.38" xlink:href="#c"></linearGradient><linearGradient id="u" x1="548.03" x2="527.85" y1="294.1" y2="331.66" xlink:href="#b"></linearGradient><linearGradient id="v" x1="441.41" x2="642" y1="318.98" y2="318.98" xlink:href="#a"></linearGradient><linearGradient id="w" x1="427.12" x2="445.32" y1="325.75" y2="358.26" xlink:href="#d"></linearGradient><linearGradient id="x" x1="520.25" x2="527.49" y1="283.65" y2="322.25" xlink:href="#b"></linearGradient><linearGradient id="y" x1="521.15" x2="602.57" y1="299.6" y2="288.5" xlink:href="#a"></linearGradient><linearGradient id="z" x1="437.54" x2="638.13" y1="274.18" y2="274.18" xlink:href="#a"></linearGradient><linearGradient id="A" x1="507.46" x2="488.76" y1="207.81" y2="277.17" xlink:href="#a"></linearGradient><linearGradient id="B" x1="489.72" x2="504.8" y1="232.61" y2="286.89" xlink:href="#d"></linearGradient><linearGradient id="e" x1="492.12" x2="587.92" y1="254.72" y2="254.72" gradientUnits="userSpaceOnUse"><stop offset="0" stop-color="#41007e" class="stopColor183866 svgShape"></stop><stop offset="1" stop-color="#7100db" class="stopColor1a7fc1 svgShape"></stop></linearGradient><linearGradient id="C" x1="186.49" x2="186.43" y1="583.94" y2="461.77" xlink:href="#e"></linearGradient><linearGradient id="D" x1="464.41" x2="416.53" y1="654.66" y2="424.56" xlink:href="#a"></linearGradient><linearGradient id="E" x1="254.17" x2="280.55" y1="291.54" y2="1291.15" gradientUnits="userSpaceOnUse"><stop offset="0" stop-color="#b566ff" class="stopColor68e1fd svgShape"></stop><stop offset=".2" stop-color="#992dff" class="stopColor5db4cf svgShape"></stop><stop offset=".46" stop-color="#7900eb" class="stopColor50819b svgShape"></stop><stop offset=".69" stop-color="#6200bd" class="stopColor475c76 svgShape"></stop><stop offset=".87" stop-color="#52009f" class="stopColor41455e svgShape"></stop><stop offset=".99" stop-color="#4c0093" class="stopColor3f3d56 svgShape"></stop></linearGradient><linearGradient id="h" x1="292.06" x2="305.8" y1="429" y2="92.97" gradientUnits="userSpaceOnUse"><stop offset=".32" stop-color="#ffffff" stop-opacity="0" class="stopColorfff svgShape"></stop><stop offset=".54" stop-color="#ffffff" class="stopColorfff svgShape"></stop></linearGradient><linearGradient id="f" x1="513.23" x2="519.09" y1="347.46" y2="172.56" gradientUnits="userSpaceOnUse"><stop offset=".02" stop-color="#b566ff" class="stopColor68e1fd svgShape"></stop><stop offset="1" stop-color="#ffffff" class="stopColorfff svgShape"></stop></linearGradient><linearGradient id="F" x1="515.48" x2="515.88" y1="287.92" y2="247.5" gradientUnits="userSpaceOnUse"><stop offset=".66" stop-color="#ffffff" stop-opacity="0" class="stopColorfff svgShape"></stop><stop offset="1" stop-color="#ffffff" class="stopColorfff svgShape"></stop></linearGradient><linearGradient id="G" x1="499.58" x2="545.7" y1="291.65" y2="291.65" xlink:href="#a"></linearGradient><linearGradient id="H" x1="109.39" x2="480.56" y1="441.35" y2="441.35" xlink:href="#c"></linearGradient><linearGradient id="I" x1="357.46" x2="309.57" y1="676.92" y2="446.82" xlink:href="#a"></linearGradient><linearGradient id="g" x1="462.76" x2="495.08" y1="471.46" y2="146.81" gradientUnits="userSpaceOnUse"><stop offset="0" stop-color="#ffffff" stop-opacity="0" class="stopColorfff svgShape"></stop><stop offset=".54" stop-color="#ffffff" class="stopColorfff svgShape"></stop></linearGradient><linearGradient id="J" x1="379.08" x2="407.19" y1="354.47" y2="415.57" xlink:href="#a"></linearGradient><linearGradient id="K" x1="428.64" x2="456.74" y1="331.67" y2="392.77" xlink:href="#a"></linearGradient><linearGradient id="L" x1="550.23" x2="546.58" y1="441.28" y2="351.66" gradientUnits="userSpaceOnUse"><stop offset="0" stop-color="#ffffff" stop-opacity="0" class="stopColorfff svgShape"></stop><stop offset=".67" stop-color="#ffffff" class="stopColorfff svgShape"></stop></linearGradient><linearGradient id="M" x1="516.4" x2="589.72" y1="327.8" y2="443.89" gradientTransform="rotate(10.41 569.066 410.996)" xlink:href="#a"></linearGradient><linearGradient id="N" x1="559.38" x2="583.81" y1="378.86" y2="491.72" xlink:href="#a"></linearGradient><linearGradient id="O" x1="569.27" x2="593.7" y1="376.72" y2="489.58" xlink:href="#a"></linearGradient><linearGradient id="P" x1="520.33" x2="472.44" y1="643.02" y2="412.92" xlink:href="#a"></linearGradient><linearGradient id="Q" x1="383.76" x2="389.63" y1="343.12" y2="168.22" xlink:href="#f"></linearGradient><linearGradient id="R" x1="383.02" x2="389.03" y1="358.01" y2="199.52" xlink:href="#g"></linearGradient><linearGradient id="S" x1="368.14" x2="414.25" y1="314.82" y2="314.82" xlink:href="#a"></linearGradient><linearGradient id="T" x1="277.27" x2="288.92" y1="218.59" y2="281.34" xlink:href="#a"></linearGradient><linearGradient id="U" x1="225.99" x2="178.1" y1="704.28" y2="474.18" xlink:href="#a"></linearGradient><linearGradient id="V" x1="379.7" x2="331.81" y1="672.29" y2="442.19" xlink:href="#a"></linearGradient><linearGradient id="W" x1="563.15" x2="429.17" y1="174.79" y2="145.4" xlink:href="#a"></linearGradient><linearGradient id="X" x1="503.6" x2="459.85" y1="200.71" y2="138.5" xlink:href="#a"></linearGradient><linearGradient id="i" x1="302.1" x2="350.21" y1="148.28" y2="148.28" gradientUnits="userSpaceOnUse"><stop offset="0" stop-color="#d9b1ff" class="stopColorecc4d7 svgShape"></stop><stop offset=".42" stop-color="#e1c1ff" class="stopColorefd4d1 svgShape"></stop><stop offset="1" stop-color="#dfbcff" class="stopColorf2eac9 svgShape"></stop></linearGradient><linearGradient id="Y" x1="321.77" x2="455.51" y1="156.55" y2="190.59" gradientTransform="rotate(73.53 346.937 162.95)" xlink:href="#a"></linearGradient><linearGradient id="Z" x1="423.01" x2="110.61" y1="119.89" y2="259.34" gradientTransform="rotate(73.53 337.011 158.29)" xlink:href="#h"></linearGradient><linearGradient id="aa" x1="324.74" x2="464.34" y1="164.06" y2="98.3" gradientTransform="rotate(73.53 337.011 158.29)" xlink:href="#h"></linearGradient><linearGradient id="ab" x1="323.41" x2="284.92" y1="149.72" y2="120.69" xlink:href="#a"></linearGradient><linearGradient id="ac" x1="315.79" x2="367.17" y1="127.63" y2="205.69" xlink:href="#d"></linearGradient><linearGradient id="ad" x1="367.57" x2="415.68" y1="175.2" y2="175.2" xlink:href="#i"></linearGradient><linearGradient id="ae" x1="286.99" x2="288.88" y1="126.27" y2="132.8" xlink:href="#i"></linearGradient><linearGradient id="j" x1="473.58" x2="495.88" y1="73.48" y2="96.28" gradientUnits="userSpaceOnUse"><stop offset="0" stop-color="#d9b1ff" class="stopColorecc4d7 svgShape"></stop><stop offset="1" stop-color="#dfbcff" class="stopColorf2eac9 svgShape"></stop></linearGradient><linearGradient id="af" x1="448.89" x2="491.17" y1="25.5" y2="68.73" xlink:href="#j"></linearGradient><linearGradient id="ag" x1="498.2" x2="504.84" y1="58.86" y2="58.86" xlink:href="#j"></linearGradient></defs><path fill="#b566ff" d="M86.21 153.19c-10 37.7-49.91 74.1-57.31 112.39-6.86 35.48 16.44 70.34 44.79 92.76s62.33 36.93 90.28 59.83c27.6 22.63 48.23 52.55 73.83 77.43s59.4 45.43 94.89 41.62c61.17-6.58 90.92-75.85 135.12-118.64 37.22-36 93.78-62.92 98.73-114.49 3-31.21-15.26-60.1-33.13-85.86-34.8-50.23-102.05-52.78-157.8-79.38-56.68-27.02-249.88-134.64-289.4 14.34Z" opacity=".18" class="color68e1fd svgShape"></path><path fill="#b566ff" d="m327.4 109.19-27.06 25.18a18.06 18.06 0 0 1-13.89 4.78L239.54 135l-2.93 28.91s52.57 8.21 60.07 6 53.93-37.4 53.93-37.4l6.85-38.6c-9.85-.04-24 8.16-30.06 15.28Z" class="color68e1fd svgShape"></path><path fill="#b566ff" d="m327.4 109.19-27.06 25.18a18.06 18.06 0 0 1-13.89 4.78L239.54 135l-2.93 28.91s52.57 8.21 60.07 6 53.93-37.4 53.93-37.4l6.85-38.6c-9.85-.04-24 8.16-30.06 15.28Z" class="color68e1fd svgShape"></path><path fill="url(#a)" d="m436.79 109.19-27.06 25.18a18.06 18.06 0 0 1-13.89 4.78L348.93 135 346 163.91s52.57 8.21 60.07 6 53.93-37.4 53.93-37.4l6.85-38.6c-9.85-.04-24 8.16-30.06 15.28Z" transform="translate(-109.39)"></path><path fill="#b566ff" d="M506.73 487.71c0 16.85-44.7 30.52-99.83 30.52s-99.83-13.67-99.83-30.52c0-1.62-.79-16.77 0-18.32 7.46-14.6 50-12.21 99.83-12.21 48.24 0 90.52-1.7 99.83 12.21 1.33 1.99 0 16.21 0 18.32Z" class="color68e1fd svgShape"></path><path fill="url(#k)" d="M616.12 487.71c0 16.85-44.7 30.52-99.83 30.52s-99.83-13.67-99.83-30.52c0-1.62-.79-16.77 0-18.32 7.46-14.6 50-12.21 99.83-12.21 48.24 0 90.52-1.7 99.83 12.21 1.33 1.99 0 16.21 0 18.32Z" transform="translate(-109.39)"></path><ellipse cx="406.9" cy="469.39" fill="#b566ff" rx="99.83" ry="30.52" class="color68e1fd svgShape"></ellipse><path fill="url(#c)" d="M595.81 464.38a7.67 7.67 0 0 1-1 3.69c-6 11.13-38.89 19.63-78.54 19.63s-72.51-8.5-78.54-19.63a7.78 7.78 0 0 1-1-3.69c0-12.89 35.61-23.33 79.52-23.33s79.56 10.44 79.56 23.33Z" transform="translate(-109.39)"></path><path fill="#b566ff" d="M485.44 468.07c-6 11.13-38.89 19.63-78.54 19.63s-72.51-8.5-78.54-19.63c6-11.13 38.89-19.65 78.54-19.65s72.52 8.52 78.54 19.65Z" class="color68e1fd svgShape"></path><path fill="url(#b)" d="M594.83 468.07c-6 11.13-38.89 19.63-78.54 19.63s-72.51-8.5-78.54-19.63c6-11.13 38.89-19.65 78.54-19.65s72.52 8.52 78.54 19.65Z" transform="translate(-109.39)"></path><path fill="#b566ff" d="M524.45 443.06c0 16.86-44.7 30.52-99.83 30.52s-99.83-13.66-99.83-30.52c0-1.62-.79-16.77 0-18.32 7.46-14.6 50-12.2 99.83-12.2 48.24 0 90.52-1.7 99.83 12.2 1.33 1.99 0 16.26 0 18.32Z" class="color68e1fd svgShape"></path><path fill="url(#l)" d="M633.84 443.06c0 16.86-44.7 30.52-99.83 30.52s-99.83-13.66-99.83-30.52c0-1.62-.79-16.77 0-18.32 7.46-14.6 50-12.2 99.83-12.2 48.24 0 90.52-1.7 99.83 12.2 1.33 1.99 0 16.26 0 18.32Z" transform="translate(-109.39)"></path><ellipse cx="424.62" cy="424.74" fill="#b566ff" rx="99.83" ry="30.52" class="color68e1fd svgShape"></ellipse><ellipse cx="424.62" cy="424.74" fill="url(#d)" rx="99.83" ry="30.52" style="isolation:isolate"></ellipse><path fill="url(#m)" d="M613.53 419.74a7.74 7.74 0 0 1-1 3.68c-6 11.13-38.9 19.64-78.55 19.64s-72.5-8.51-78.53-19.64a7.63 7.63 0 0 1-1-3.68c0-12.89 35.6-23.34 79.51-23.34s79.57 10.45 79.57 23.34Z" transform="translate(-109.39)"></path><path fill="url(#n)" d="M612.55 423.42c-6 11.13-38.9 19.64-78.55 19.64s-72.5-8.51-78.53-19.64c6-11.13 38.89-19.64 78.53-19.64s72.53 8.51 78.55 19.64Z" transform="translate(-109.39)"></path><path fill="#b566ff" d="M495.06 403.38c0 16.86-44.69 30.52-99.82 30.52s-99.83-13.66-99.83-30.52c0-1.61-.79-16.77 0-18.31 7.46-14.6 50-12.21 99.83-12.21 48.24 0 90.52-1.7 99.82 12.21 1.33 1.98 0 16.2 0 18.31Z" class="color68e1fd svgShape"></path><path fill="url(#o)" d="M604.45 403.38c0 16.86-44.69 30.52-99.82 30.52s-99.83-13.66-99.83-30.52c0-1.61-.79-16.77 0-18.31 7.46-14.6 50-12.21 99.83-12.21 48.24 0 90.52-1.7 99.82 12.21 1.33 1.98 0 16.2 0 18.31Z" transform="translate(-109.39)"></path><ellipse cx="395.24" cy="385.07" fill="#b566ff" rx="99.83" ry="30.52" class="color68e1fd svgShape"></ellipse><path fill="url(#p)" d="M584.15 380.06a7.71 7.71 0 0 1-1 3.68c-6 11.13-38.9 19.64-78.55 19.64s-72.5-8.51-78.53-19.64a7.61 7.61 0 0 1-1-3.68c0-12.89 35.61-23.33 79.52-23.33s79.56 10.44 79.56 23.33Z" transform="translate(-109.39)"></path><path fill="url(#q)" d="M583.17 383.74c-6 11.13-38.9 19.64-78.55 19.64s-72.5-8.51-78.53-19.64c6-11.13 38.88-19.64 78.53-19.64s72.53 8.51 78.55 19.64Z" transform="translate(-109.39)"></path><path fill="#b566ff" d="M512.96 361.22c0 16.85-44.7 30.52-99.83 30.52s-99.83-13.67-99.83-30.52c0-1.62-.79-16.77 0-18.32 7.46-14.6 50-12.2 99.83-12.2 48.24 0 90.52-1.7 99.83 12.2 1.33 1.99 0 16.21 0 18.32Z" class="color68e1fd svgShape"></path><path fill="url(#r)" d="M622.35 361.22c0 16.85-44.7 30.52-99.83 30.52s-99.83-13.67-99.83-30.52c0-1.62-.79-16.77 0-18.32 7.46-14.6 50-12.2 99.83-12.2 48.24 0 90.52-1.7 99.83 12.2 1.33 1.99 0 16.21 0 18.32Z" transform="translate(-109.39)"></path><ellipse cx="413.13" cy="342.9" fill="#b566ff" rx="99.83" ry="30.52" class="color68e1fd svgShape"></ellipse><ellipse cx="413.13" cy="342.9" fill="url(#s)" rx="99.83" ry="30.52" style="isolation:isolate"></ellipse><path fill="url(#t)" d="M602 337.89a7.67 7.67 0 0 1-1 3.69c-6 11.13-38.9 19.64-78.54 19.64S450 352.71 444 341.58a7.67 7.67 0 0 1-1-3.69c0-12.88 35.6-23.33 79.52-23.33S602 325 602 337.89Z" transform="translate(-109.39)"></path><path fill="url(#u)" d="M601.06 341.58c-6 11.13-38.9 19.64-78.54 19.64S450 352.71 444 341.58c6-11.13 38.89-19.64 78.54-19.64s72.46 8.51 78.52 19.64Z" transform="translate(-109.39)"></path><path fill="#b566ff" d="M512.96 319.06c0 16.85-44.7 30.52-99.83 30.52s-99.83-13.67-99.83-30.52c0-1.62-.79-16.77 0-18.32 7.46-14.6 50-12.2 99.83-12.2 48.24 0 90.52-1.71 99.83 12.2 1.33 1.99 0 16.26 0 18.32Z" class="color68e1fd svgShape"></path><path fill="url(#v)" d="M622.35 319.06c0 16.85-44.7 30.52-99.83 30.52s-99.83-13.67-99.83-30.52c0-1.62-.79-16.77 0-18.32 7.46-14.6 50-12.2 99.83-12.2 48.24 0 90.52-1.71 99.83 12.2 1.33 1.99 0 16.26 0 18.32Z" transform="translate(-109.39)"></path><ellipse cx="413.13" cy="300.74" fill="#b566ff" rx="99.83" ry="30.52" class="color68e1fd svgShape"></ellipse><ellipse cx="413.13" cy="300.74" fill="url(#w)" rx="99.83" ry="30.52" style="isolation:isolate"></ellipse><path fill="url(#x)" d="M602 295.73a7.67 7.67 0 0 1-1 3.69c-6 11.13-38.9 19.63-78.54 19.63S450 310.55 444 299.42a7.67 7.67 0 0 1-1-3.69c0-12.89 35.6-23.33 79.52-23.33S602 282.84 602 295.73Z" transform="translate(-109.39)"></path><path fill="url(#y)" d="M601.06 299.42c-6 11.13-38.9 19.63-78.54 19.63S450 310.55 444 299.42c6-11.13 38.89-19.65 78.54-19.65s72.46 8.52 78.52 19.65Z" transform="translate(-109.39)"></path><path fill="#b566ff" d="M486.27 274.26c0 16.85-44.7 30.52-99.83 30.52s-99.83-13.67-99.83-30.52c0-1.62-.79-16.77 0-18.32 7.46-14.6 50-12.21 99.83-12.21 48.24 0 90.52-1.7 99.83 12.21 1.34 1.99 0 16.21 0 18.32Z" class="color68e1fd svgShape"></path><path fill="url(#z)" d="M595.66 274.26c0 16.85-44.7 30.52-99.83 30.52S396 291.11 396 274.26c0-1.62-.79-16.77 0-18.32 7.46-14.6 50-12.21 99.83-12.21 48.24 0 90.52-1.7 99.83 12.21 1.34 1.99 0 16.21 0 18.32Z" transform="translate(-109.39)"></path><ellipse cx="386.44" cy="255.94" fill="#b566ff" rx="99.83" ry="30.52" class="color68e1fd svgShape"></ellipse><path fill="url(#A)" d="M575.36 250.93a7.68 7.68 0 0 1-1 3.69c-6 11.13-38.89 19.63-78.54 19.63s-72.51-8.5-78.54-19.63a7.78 7.78 0 0 1-1-3.69c0-12.89 35.61-23.33 79.52-23.33s79.56 10.4 79.56 23.33Z" transform="translate(-109.39)"></path><path fill="#b566ff" d="M464.98 254.62c-6 11.13-38.89 19.63-78.54 19.63s-72.51-8.5-78.54-19.63c6-11.13 38.89-19.65 78.54-19.65s72.52 8.52 78.54 19.65Z" class="color68e1fd svgShape"></path><path fill="url(#B)" d="M574.37 254.62c-6 11.13-38.89 19.63-78.54 19.63s-72.51-8.5-78.54-19.63c6-11.13 38.89-19.65 78.54-19.65s72.52 8.52 78.54 19.65Z" transform="translate(-109.39)" style="isolation:isolate"></path><path fill="url(#e)" d="M535.22 230.72c3.13 1.56 5.69 4.83 5.31 8.32-.21 2-1.37 3.91-1.28 5.94.08 2.19 1.58 4.05 2.31 6.11 1.69 4.78-1 10.3-5.27 13.08a28.57 28.57 0 0 1-7 3.05 181.16 181.16 0 0 1-40.84 8.11c-7.36.59-14.82.74-21.94 2.69-4.53 1.24-8.85 3.19-13.39 4.44a7.06 7.06 0 0 1-3.43.32c-2.28-.53-3.62-3.15-3.37-5.49a10.3 10.3 0 0 1 3.4-6c3.67-3.57 8.42-5.74 12.71-8.54 5.5-3.58 10.24-8.19 15.26-12.44 4.38-3.7 9-7.14 13.59-10.57 5.63-4.2 11.32-8.43 17.63-11.5s17.78-1 16.68-1c.29 2.64 7.41 2.36 9.63 3.48Z" opacity=".19" transform="translate(-109.39)"></path><path fill="#30005d" d="M333.61 198.87s-84.86-7.13-87.26 38.18l-6.46 10.59 46.72 26.62s-3.89-11.14 6.75-16.56 53.58-8.06 60.23-20.65-19.98-38.18-19.98-38.18Z" class="color25233a svgShape"></path><path fill="#4c0093" d="M348.27 210.05s-54.28 21.38-58.9 44.56-2.76 19.65-2.76 19.65l20 14.13 29.31-4.95s6-13.22 25.14-16.76 46.28-9.33 52.15-24.46 4.9-32.17 4.9-32.17Z" class="color3f3d56 svgShape"></path><ellipse cx="186.47" cy="560.54" fill="url(#C)" opacity=".19" rx="183.77" ry="36.46"></ellipse><path fill="#b566ff" d="m323.71 557.51-15.84 4.63a26.26 26.26 0 0 1-33.17-20.56l-12.21-66.05 61.29-23.39 16.36 77.72a23.69 23.69 0 0 1-16.43 27.65Z" class="color68e1fd svgShape"></path><path fill="url(#D)" d="m433.1 557.51-15.49-96.78 16.07-6.18 15.85 75.31a23.69 23.69 0 0 1-16.43 27.65Z" transform="translate(-109.39)"></path><path fill="#b566ff" d="m139.41 547.3-16.45 1.26a26.36 26.36 0 0 1-28.27-27l1.55-67.16 64.75-10.19.14 79.44a23.61 23.61 0 0 1-21.72 23.65Z" class="color68e1fd svgShape"></path><path fill="url(#E)" d="m248.8 547.3 4.6-97.91 17-2.73.13 77a23.61 23.61 0 0 1-21.73 23.64Z" transform="translate(-109.39)"></path><path fill="#b566ff" d="M369.73 357.71c-11.43 73.34-89.52 130.08-184.12 130.08S12.86 431.05 1.43 357.71c11.43-73.32 89.51-130.06 184.18-130.06s172.69 56.74 184.12 130.06Z" class="color68e1fd svgShape"></path><path fill="url(#h)" d="M479.12 357.71C467.69 431.05 389.6 487.79 295 487.79s-172.75-56.74-184.18-130.08c11.43-73.32 89.51-130.06 184.18-130.06s172.69 56.74 184.12 130.06Z" transform="translate(-109.39)" style="isolation:isolate"></path><path fill="url(#f)" d="M482.5 277.07s8.56-32.1 42.3-29.25 29.9 50.46 0 76c0 .04-33-40.72-42.3-46.75Z" transform="translate(-109.39)" style="isolation:isolate"></path><path fill="url(#F)" d="M482.5 277.07s8.56-32.1 42.3-29.25 29.9 50.46 0 76c0 .04-33-40.72-42.3-46.75Z" transform="translate(-109.39)" style="isolation:isolate"></path><path fill="#b566ff" d="M390.19 285.6s6-22.37 29.47-20.38 20.83 35.16 0 53c0-.02-22.99-28.42-29.47-32.62Z" class="color68e1fd svgShape"></path><path fill="url(#G)" d="M499.58 285.6s6-22.37 29.47-20.38 20.83 35.16 0 53c0-.02-22.99-28.42-29.47-32.62Z" transform="translate(-109.39)"></path><path fill="url(#H)" d="M480.56 376.32c0 82.1-83.1 148.68-185.56 148.68s-185.61-66.58-185.61-148.68a120.73 120.73 0 0 1 1.43-18.61c11.43 73.34 89.51 130.08 184.18 130.08s172.72-56.74 184.15-130.08a120.73 120.73 0 0 1 1.41 18.61Z" transform="translate(-109.39)"></path><path fill="url(#I)" d="M480.56 376.32C480.56 458.42 397.47 525 295 525s-185.61-66.58-185.61-148.68a121.86 121.86 0 0 1 1.43-18.6C122.25 431.05 200.33 487.8 295 487.8a226 226 0 0 0 67.09-10c8.54-6-2.57-36.76-2.81-37.46l16.14 8.39 15.46 17.73c47.5-23 81.08-62.58 88.27-108.72a120.6 120.6 0 0 1 1.41 18.58Z" transform="translate(-109.39)"></path><path fill="#b566ff" d="M482.09 393.84a115.2 115.2 0 0 1-10.7 48.59c-19 41-61.22 69.45-110.29 69.45a122.07 122.07 0 0 1-87.94-37 116.11 116.11 0 0 1-33.06-81.07c0-65.2 54.18-118 121-118s120.99 52.83 120.99 118.03Z" class="color68e1fd svgShape"></path><path fill="url(#g)" d="M591.48 393.84a115.2 115.2 0 0 1-10.7 48.59c-19 41-61.22 69.45-110.29 69.45a122.07 122.07 0 0 1-87.94-37 116.11 116.11 0 0 1-33.06-81.07c0-65.2 54.18-118 121-118s120.99 52.83 120.99 118.03Z" transform="translate(-109.39)" style="isolation:isolate"></path><ellipse cx="386.56" cy="370.73" fill="#b566ff" rx="8.79" ry="8.86" class="color68e1fd svgShape"></ellipse><ellipse cx="443.21" cy="363.36" fill="#b566ff" rx="8.79" ry="8.86" class="color68e1fd svgShape"></ellipse><ellipse cx="386.56" cy="370.73" fill="url(#J)" rx="8.79" ry="8.86"></ellipse><ellipse cx="443.21" cy="363.36" fill="url(#K)" rx="8.79" ry="8.86"></ellipse><path fill="#b566ff" d="m455.41 385.32 9.38 50.77a41 41 0 0 1-10.58 3.5C435.85 443 418.74 433.8 416 419s9.92-29.63 28.28-33.07a40.87 40.87 0 0 1 11.13-.61Z" class="color68e1fd svgShape"></path><path fill="url(#L)" d="m564.8 385.32 9.38 50.77a41 41 0 0 1-10.58 3.5c-18.36 3.41-35.47-5.79-38.21-20.59s9.92-29.63 28.28-33.07a40.87 40.87 0 0 1 11.13-.61Z" transform="translate(-109.39)" style="isolation:isolate"></path><ellipse cx="568.84" cy="410.83" fill="#b566ff" rx="13.69" ry="25.89" transform="rotate(-10.41 514.374 1011.378)" class="color68e1fd svgShape"></ellipse><ellipse cx="568.84" cy="410.83" fill="url(#M)" rx="13.69" ry="25.89" transform="rotate(-10.41 514.374 1011.378)"></ellipse><path fill="url(#N)" d="M567.85 409.35c1.41 4.94 1.77 9.17.8 9.45s-2.91-3.49-4.32-8.43-1.77-9.16-.8-9.44 2.91 3.49 4.32 8.42Z" transform="translate(-109.39)"></path><path fill="url(#O)" d="M577.54 406.32c1.45 5 1.83 9.36.86 9.65s-2.93-3.58-4.37-8.63-1.83-9.37-.86-9.65 2.93 3.58 4.37 8.63Z" transform="translate(-109.39)"></path><path fill="url(#P)" d="m580.94 440.31-.16 2.12c-19 41-61.22 69.45-110.29 69.45a122.07 122.07 0 0 1-87.94-37s9.25-13.34 77.1-1.9 121.29-32.67 121.29-32.67Z" transform="translate(-109.39)"></path><path fill="url(#Q)" d="M418.18 304.5s-8.55-32.1-42.3-29.24-29.9 50.46 0 76c0 .04 33-40.72 42.3-46.76Z" transform="translate(-109.39)" style="isolation:isolate"></path><path fill="url(#R)" d="M418.18 304.5s-8.55-32.1-42.3-29.24-29.9 50.46 0 76c0 .04 33-40.72 42.3-46.76Z" transform="translate(-109.39)" style="isolation:isolate"></path><path fill="#b566ff" d="M304.86 308.76s-6-22.36-29.47-20.37-20.83 35.15 0 53c0-.02 22.99-28.39 29.47-32.63Z" class="color68e1fd svgShape"></path><path fill="url(#S)" d="M414.25 308.76s-6-22.36-29.47-20.37-20.83 35.15 0 53c0-.02 22.99-28.39 29.47-32.63Z" transform="translate(-109.39)"></path><path fill="#30005d" d="m252.61 268.07-8.64 3.86-8.61 3.86c-50.35-30-95.44-29.48-119.12-26.11a105 105 0 0 0-17.38 3.77l25.11-10s14.51-6.05 53.44-3.79c49.38 2.84 75.2 28.41 75.2 28.41Z" class="color25233a svgShape"></path><path fill="#b566ff" d="m252.61 268.07-8.64 3.86-21-14.47c-33.54-20.36-94.67-11.85-94.67-11.85l-12.11 4.07a105 105 0 0 0-17.38 3.77l25.11-10s14.51-6.05 53.44-3.79c49.43 2.84 75.25 28.41 75.25 28.41Z" class="color68e1fd svgShape"></path><path fill="url(#T)" d="m362 268.07-8.64 3.86-21-14.47c-33.54-20.36-94.67-11.85-94.67-11.85l-12.11 4.07a105 105 0 0 0-17.38 3.77l25.11-10s14.51-6.05 53.44-3.79c49.43 2.84 75.25 28.41 75.25 28.41Z" transform="translate(-109.39)"></path><path fill="#b566ff" d="m230.88 579.66-16.42 1.65A26.35 26.35 0 0 1 185.61 555v-67.21l64.5-11.7 2 79.42a23.61 23.61 0 0 1-21.23 24.15ZM67.22 562.2l-16.41 1.64a26.35 26.35 0 0 1-28.88-26.33V406.83l64.5 51.8.15 6.25 1.81 73.16a23.63 23.63 0 0 1-21.17 24.16Z" class="color68e1fd svgShape"></path><path fill="url(#U)" d="M176.61 562.2s3.8-82 9-91.08 10.39-6.24 10.39-6.24l1.81 73.16a23.63 23.63 0 0 1-21.2 24.16Z" transform="translate(-109.39)"></path><path fill="url(#V)" d="m340.27 579.66 2.34-98 16.92-3.12 1.91 77a23.61 23.61 0 0 1-21.17 24.12Z" transform="translate(-109.39)"></path><path fill="#b566ff" d="m330.94 159.46-1.66 36.19s1.69 19.77 18.32 21.78 70.55-7.38 70.55-7.38 3.66-63.64 0-78.22-3.6-34.56-19.9-34.89c-8.17-.17-29.54-4.54-40.79-3a26.47 26.47 0 0 0-22.74 23.51c-1.11 10.46-2.47 24.69-3.78 42.01Z" class="color68e1fd svgShape"></path><path fill="url(#W)" d="m440.33 159.46-1.66 36.19s1.69 19.77 18.32 21.78 70.55-7.38 70.55-7.38 3.66-63.64 0-78.22-3.6-34.56-19.9-34.89c-8.17-.17-29.54-4.54-40.79-3a26.47 26.47 0 0 0-22.74 23.51c-1.11 10.46-2.47 24.69-3.78 42.01Z" transform="translate(-109.39)"></path><path fill="#b566ff" d="M389.4 109.49c4.46-9.13 17.1-10.44 23-2.17 3.69 5.19 6.36 12.94 5.77 24.51-1.06 20.84-16.38 41-27.33 52.9a30.58 30.58 0 0 1-24.67 9.83L300.69 187l3-26 59.87 1.5Z" class="color68e1fd svgShape"></path><path fill="#b566ff" d="M389.4 109.49c4.46-9.13 17.1-10.44 23-2.17 3.69 5.19 6.36 12.94 5.77 24.51-1.06 20.84-16.38 41-27.33 52.9a30.58 30.58 0 0 1-24.67 9.83L300.69 187l3-26 59.87 1.5Z" class="color68e1fd svgShape"></path><path fill="#b566ff" d="M389.4 109.49c4.46-9.13 17.1-10.44 23-2.17 3.69 5.19 6.36 12.94 5.77 24.51-1.06 20.84-16.38 41-27.33 52.9a30.58 30.58 0 0 1-24.67 9.83L300.69 187l3-26 59.87 1.5Z" class="color68e1fd svgShape"></path><path fill="url(#X)" d="M498.79 109.49c4.46-9.13 17.1-10.44 23-2.17 3.69 5.19 6.36 12.94 5.77 24.51-1.06 20.84-16.38 41-27.33 52.9a30.58 30.58 0 0 1-24.67 9.83L410.08 187l3-26 59.87 1.5Z" transform="translate(-109.39)"></path><path fill="url(#i)" d="M308.46 142c-2.76 1.33-5.71 3.19-6.36 6.2a33.18 33.18 0 0 0 7.17-.73l-6.27 6.47a1.93 1.93 0 0 0-.71 1.22c0 1.05 1.43 1.36 2.47 1.27a56.52 56.52 0 0 0 10.33-1.78c.24 1.65-2.29 2.31-2.85 3.88-.5 1.38.84 2.85 2.27 3.13a10.33 10.33 0 0 0 4.31-.58c4.69-1.13 9.6-.47 14.42-.34s10-.43 13.73-3.51a5.84 5.84 0 0 0 1.94-2.55 8.38 8.38 0 0 0 .16-3.2c-.19-3 1.82-9.29.83-11.8-.94-2.35-5.25-4-7.49-4.37-13.79-2.31-28.88 4.29-33.95 6.69Z" transform="translate(-109.39)"></path><ellipse cx="346.93" cy="162.95" fill="#b566ff" rx="67.58" ry="50.82" transform="rotate(-73.53 292.239 236.155)" class="color68e1fd svgShape"></ellipse><ellipse cx="346.93" cy="162.95" fill="url(#Y)" rx="67.58" ry="50.82" transform="rotate(-73.53 292.239 236.155)"></ellipse><ellipse cx="337.01" cy="158.28" fill="#b566ff" rx="67.58" ry="50.92" transform="rotate(-73.53 282.33 231.484)" class="color68e1fd svgShape"></ellipse><ellipse cx="337.01" cy="158.28" fill="url(#Z)" rx="67.58" ry="50.92" transform="rotate(-73.53 282.33 231.484)" style="isolation:isolate"></ellipse><ellipse cx="337.01" cy="158.28" fill="url(#aa)" rx="67.58" ry="50.92" transform="rotate(-73.53 282.33 231.484)" style="isolation:isolate"></ellipse><path fill="url(#ab)" d="M370.31 168.44c-9.12 30.3-33.12 49.78-53.6 43.52-.72-.22-1.43-.47-2.12-.74-19-7.61-27.22-36.21-18.44-65.42 9.12-30.28 33.12-49.77 53.6-43.52a27.14 27.14 0 0 1 8.43 4.31c14.4 10.86 19.87 36.12 12.13 61.85Z" transform="translate(-109.39)"></path><path fill="#b566ff" d="M260.92 168.44c-9.12 30.3-33.12 49.78-53.6 43.52-.72-.22-1.43-.47-2.12-.74-14.39-10.86-19.87-36.12-12.13-61.85 9.13-30.29 33.12-49.78 53.6-43.52.72.22 1.43.47 2.12.74 14.4 10.86 19.87 36.12 12.13 61.85Z" class="color68e1fd svgShape"></path><path fill="url(#ac)" d="M370.31 168.44c-9.12 30.3-33.12 49.78-53.6 43.52-.72-.22-1.43-.47-2.12-.74-14.39-10.86-19.87-36.12-12.13-61.85 9.13-30.29 33.12-49.78 53.6-43.52.72.22 1.43.47 2.12.74 14.4 10.86 19.87 36.12 12.13 61.85Z" transform="translate(-109.39)" style="isolation:isolate"></path><path fill="url(#ad)" d="M373.93 169c-2.76 1.33-5.7 3.19-6.36 6.2a33.18 33.18 0 0 0 7.17-.73l-6.24 6.42a1.94 1.94 0 0 0-.7 1.23c0 1 1.42 1.35 2.46 1.27a56.52 56.52 0 0 0 10.33-1.78c.24 1.65-2.29 2.31-2.85 3.88-.5 1.38.84 2.85 2.27 3.13a10.49 10.49 0 0 0 4.31-.58c4.69-1.14 9.6-.47 14.42-.35s10-.42 13.74-3.51a5.78 5.78 0 0 0 1.93-2.55 8.37 8.37 0 0 0 .16-3.2c-.19-3 1.82-9.29.83-11.79-.93-2.35-5.25-4-7.49-4.37-13.81-2.39-28.91 4.25-33.98 6.73Z" transform="translate(-109.39)"></path><path fill="url(#ae)" d="M296.79 124a96.47 96.47 0 0 1 1.25 9.79c.31 4.81-4.77 1.64-4.77 1.64s3 3.84 2.39 6-3.58 0-3.58 0 1.47 3.18 1.12 5.19-4.31.38-4.31.38 2.17 2.56 1.74 4.86-3.47 1.77-3.47 1.77-5.61-3.16-4-7.68-.83-11.56 1.83-12.9 4.34-7 7.16-7.59a22.61 22.61 0 0 0 4.64-1.46Z" transform="translate(-109.39)"></path><path fill="url(#j)" d="M472.33 102.42a5.67 5.67 0 0 0 4.05.56 75.65 75.65 0 0 0 24.22-7.23c-2.71-7.4-1.56-15.59-2.21-23.46-.23-2.64-1-5.69-3.36-6.77-1.75-.79-3.79-.23-5.55.53A26.71 26.71 0 0 0 474.92 83c-1 3.3-.87 6.79-1.77 10.1-.73 2.64-3.98 7.03-.82 9.32Z" transform="translate(-109.39)"></path><path fill="url(#af)" d="M455 31.05s-6.43 34.92.53 45.48 17 13.34 27 5.91a91.56 91.56 0 0 0 17.08-17.3s6.33-.88 8.58-6.31-4.13-8.44-7.56-6.18 6.31-15.07 2.07-17.09S478 3.66 455 31.05Z" transform="translate(-109.39)"></path><path fill="#4c0093" d="M370.35 2.08a25.91 25.91 0 0 0-10.15 1.06c-8.44 2.27-16.71 6.32-25.43 5.72-1.72-.12-3.7-.33-4.92.9a3.74 3.74 0 0 0-.2 4.44 10.8 10.8 0 0 0 3.49 3.19c-2 .95-2.16 4.06-.71 5.75s3.86 2.21 6.08 2.2c-1.94.44-2.31 3.43-.9 4.85s3.68 1.51 5.61 1a45 45 0 0 0 6.4-2.74c6-2.57 12.7-2.7 19.19-2.26 6.78.46 14.25 1.91 18.35 7.37a13.58 13.58 0 0 1 2.11 11.83c-1.29 4.34-4.8 8.25-4.17 12.74 3.05-.72 3.76-5.47 6.81-6.14 2.41-.54 4.49-.73 6.57 2.19.63.88 2.34-2.45 3-3.32 2.3-3.12 4.64-6.33 5.71-10.06a16.68 16.68 0 0 0-3.65-15.49 10.34 10.34 0 0 1-2.13-2.73 16 16 0 0 1-.57-3.61c-.59-3.56-3.56-6.17-6.39-8.39Q387.35 5 379.89 0c-1.09 2.7-.4 4.91-3 4.8-1.76-.07-4.41-2.44-6.54-2.72ZM388.51 76.22a5.47 5.47 0 0 1-1.71-5.4 8.91 8.91 0 0 1 3.22-4.88 18.51 18.51 0 0 1 4.59-2.71c-.08 1.31-6.57 12.63-6.1 12.99Z" class="color3f3d56 svgShape"></path><path fill="url(#ag)" d="M499.69 57.93a4.22 4.22 0 0 1 .76-2.09 2.71 2.71 0 0 1 .93-.58 4 4 0 0 1 1.81-.42 1.76 1.76 0 0 1 1.52 1 2.28 2.28 0 0 1 .12 1 6.83 6.83 0 0 1-4.91 6 1.24 1.24 0 0 1-.76 0 1.21 1.21 0 0 1-.63-.7 2.58 2.58 0 0 1-.06-2.37c.46-.69 1.02-.94 1.22-1.84Z" transform="translate(-109.39)"></path></svg></g></svg>