<svg width="441" height="342" viewBox="0 0 441 342" fill="none" xmlns="http://www.w3.org/2000/svg">
<path d="M76.6408 152.339H26.5273V340.658H76.6408V152.339Z" fill="#CC85FF"/>
<path d="M348.169 214.962H298.056V339.618H348.169V214.962Z" fill="#CC85FF"/>
<path d="M424.701 116.983H374.587V339.618H424.701V116.983Z" fill="#CC85FF"/>
<path d="M263.271 125.064H213.157V339.618H263.271V125.064Z" fill="#CC85FF"/>
<path d="M162.735 64.3195H112.622V339.618H162.735V64.3195Z" fill="#CC85FF"/>
<path d="M441.215 340.907C441.215 341.043 342.438 341.152 220.619 341.152C98.7567 341.152 0 341.042 0 340.907C0 340.771 98.7558 340.661 220.619 340.661C342.438 340.661 441.215 340.771 441.215 340.907Z" fill="#263238"/>
<path d="M288.814 340.907H366.461C367.945 340.907 369.117 339.651 369.013 338.174L365.137 283.329C365.042 281.994 363.931 280.957 362.589 280.956L291.306 280.855C289.938 280.853 288.809 281.928 288.747 283.293L286.259 338.239C286.192 339.693 287.356 340.907 288.814 340.907Z" fill="#263238"/>
<path d="M299.526 340.907C299.645 340.907 299.743 327.486 299.743 310.934C299.743 294.377 299.645 280.958 299.526 280.958C299.407 280.958 299.31 294.376 299.31 310.934C299.31 327.486 299.406 340.907 299.526 340.907Z" fill="#455A64"/>
<path d="M300.445 282.381C300.438 282.384 300.478 282.459 300.562 282.6C300.661 282.76 300.786 282.964 300.942 283.219C301.3 283.784 301.803 284.571 302.44 285.574C303.761 287.606 305.677 290.547 308.265 294.032C310.879 297.484 314.158 301.537 318.573 305.247C320.772 307.103 323.265 308.837 326.026 310.33C328.795 311.788 331.916 312.949 335.266 313.219C338.622 313.499 341.896 312.745 344.8 311.57C347.711 310.378 350.322 308.777 352.561 306.961C357.05 303.304 360.014 298.882 361.827 294.945C363.653 290.984 364.303 287.471 364.571 285.07C364.624 284.465 364.685 283.929 364.712 283.463C364.717 283.004 364.722 282.61 364.726 282.282C364.726 281.982 364.726 281.743 364.726 281.555C364.723 281.392 364.718 281.308 364.711 281.308C364.703 281.308 364.694 281.392 364.681 281.555C364.67 281.742 364.656 281.981 364.638 282.28C364.622 282.607 364.604 282.999 364.582 283.455C364.542 283.919 364.468 284.45 364.402 285.051C364.084 287.433 363.394 290.909 361.548 294.817C359.716 298.702 356.755 303.057 352.309 306.652C350.09 308.437 347.51 310.009 344.64 311.178C341.777 312.329 338.57 313.062 335.3 312.788C332.029 312.526 328.96 311.391 326.223 309.955C323.492 308.484 321.016 306.775 318.829 304.942C314.436 301.279 311.146 297.267 308.509 293.848C305.898 290.396 303.943 287.483 302.58 285.48C301.913 284.498 301.389 283.724 301.015 283.171C300.843 282.925 300.707 282.729 300.599 282.575C300.504 282.442 300.452 282.376 300.445 282.381Z" fill="#455A64"/>
<path d="M332.578 313.268C332.578 315.232 334.173 316.824 336.142 316.824C338.11 316.824 339.705 315.233 339.705 313.268C339.705 311.304 338.109 309.711 336.142 309.711C334.174 309.711 332.578 311.304 332.578 313.268Z" fill="#455A64"/>
<path d="M311.728 269.789C313.219 268.412 315.315 267.901 317.337 267.702C322.214 267.218 327.581 268.23 331.842 270.646C336.104 273.061 339.24 277.084 341.324 281.511L338.524 284.435C337.38 279.832 334.825 275.825 330.861 273.21C326.897 270.595 322.684 269.395 317.993 270.149C316.914 270.322 315.39 270.724 314.495 271.349C312.665 272.627 312.384 274.114 312.706 276.011C313.184 278.816 313.891 280.035 315.093 281.539C313.032 281.588 312.55 281.599 310.49 281.647C309.97 279.62 309.445 277.564 309.482 275.471C309.521 273.38 310.19 271.211 311.728 269.789Z" fill="#263238"/>
<path d="M233.76 312.129H204.323V323.705H233.76V312.129Z" fill="#FAFAFA"/>
<path d="M295.547 310.141H203.098V312.566H295.547V310.141Z" fill="#455A64"/>
<path d="M295.547 323.188H203.526V325.613H295.547V323.188Z" fill="#455A64"/>
<path d="M233.76 310.718L233.899 325.151H295.546V310.718H233.76Z" fill="#455A64"/>
<path d="M248.743 317.921C248.743 319.904 247.251 321.512 245.411 321.512C243.571 321.512 242.078 319.904 242.078 317.921C242.078 315.937 243.57 314.329 245.411 314.329C247.252 314.329 248.743 315.937 248.743 317.921Z" fill="#263238"/>
<path d="M245.41 322.028C243.288 322.028 241.562 320.185 241.562 317.92C241.562 315.655 243.288 313.812 245.41 313.812C247.533 313.812 249.259 315.655 249.259 317.92C249.26 320.185 247.533 322.028 245.41 322.028ZM245.41 314.845C243.857 314.845 242.596 316.225 242.596 317.921C242.596 319.616 243.857 320.996 245.41 320.996C246.962 320.996 248.225 319.616 248.225 317.921C248.225 316.225 246.962 314.845 245.41 314.845Z" fill="#E0E0E0"/>
<path d="M231.549 320.867C231.549 321.016 225.5 321.136 218.041 321.136C210.579 321.136 204.532 321.017 204.532 320.867C204.532 320.719 210.579 320.599 218.041 320.599C225.5 320.598 231.549 320.719 231.549 320.867Z" fill="#263238"/>
<path d="M231.549 318.851C231.549 318.999 225.5 319.12 218.041 319.12C210.579 319.12 204.532 319 204.532 318.851C204.532 318.702 210.579 318.582 218.041 318.582C225.5 318.582 231.549 318.702 231.549 318.851Z" fill="#263238"/>
<path d="M231.549 316.834C231.549 316.982 225.5 317.103 218.041 317.103C210.579 317.103 204.532 316.983 204.532 316.834C204.532 316.686 210.579 316.565 218.041 316.565C225.5 316.566 231.549 316.686 231.549 316.834Z" fill="#263238"/>
<path d="M231.549 314.818C231.549 314.966 225.5 315.087 218.041 315.087C210.579 315.087 204.532 314.966 204.532 314.818C204.532 314.67 210.579 314.549 218.041 314.549C225.5 314.549 231.549 314.67 231.549 314.818Z" fill="#263238"/>
<path d="M288.711 313.788H260.93V321.512H288.711V313.788Z" fill="white"/>
<path d="M265.257 320.727C265.109 320.727 264.988 319.349 264.988 317.65C264.988 315.95 265.108 314.573 265.257 314.573C265.406 314.573 265.527 315.95 265.527 317.65C265.526 319.349 265.406 320.727 265.257 320.727Z" fill="#E0E0E0"/>
<path d="M268.931 320.727C268.782 320.727 268.661 319.349 268.661 317.65C268.661 315.95 268.781 314.573 268.931 314.573C269.079 314.573 269.199 315.95 269.199 317.65C269.199 319.349 269.079 320.727 268.931 320.727Z" fill="#E0E0E0"/>
<path d="M272.604 320.727C272.456 320.727 272.335 319.349 272.335 317.65C272.335 315.95 272.455 314.573 272.604 314.573C272.753 314.573 272.873 315.95 272.873 317.65C272.873 319.349 272.753 320.727 272.604 320.727Z" fill="#E0E0E0"/>
<path d="M276.277 320.727C276.129 320.727 276.008 319.349 276.008 317.65C276.008 315.95 276.128 314.573 276.277 314.573C276.426 314.573 276.547 315.95 276.547 317.65C276.546 319.349 276.426 320.727 276.277 320.727Z" fill="#E0E0E0"/>
<path d="M279.951 320.727C279.802 320.727 279.681 319.349 279.681 317.65C279.681 315.95 279.802 314.573 279.951 314.573C280.1 314.573 280.221 315.95 280.221 317.65C280.22 319.349 280.1 320.727 279.951 320.727Z" fill="#E0E0E0"/>
<path d="M283.624 320.727C283.476 320.727 283.354 319.349 283.354 317.65C283.354 315.95 283.475 314.573 283.624 314.573C283.773 314.573 283.894 315.95 283.894 317.65C283.893 319.349 283.773 320.727 283.624 320.727Z" fill="#E0E0E0"/>
<path d="M237.671 327.175H208.234V338.75H237.671V327.175Z" fill="#FAFAFA"/>
<path d="M299.459 325.187H207.009V327.612H299.459V325.187Z" fill="#8605E2"/>
<path d="M299.459 338.234H207.437V340.658H299.459V338.234Z" fill="#8605E2"/>
<path d="M237.671 325.764L237.81 340.197H299.458V325.764H237.671Z" fill="#8605E2"/>
<path d="M252.654 332.965C252.654 334.949 251.162 336.557 249.322 336.557C247.481 336.557 245.989 334.949 245.989 332.965C245.989 330.981 247.481 329.374 249.322 329.374C251.162 329.374 252.654 330.982 252.654 332.965Z" fill="#263238"/>
<path d="M249.322 337.073C247.199 337.073 245.473 335.23 245.473 332.965C245.473 330.7 247.199 328.858 249.322 328.858C251.445 328.858 253.171 330.7 253.171 332.965C253.171 335.23 251.445 337.073 249.322 337.073ZM249.322 329.89C247.77 329.89 246.507 331.269 246.507 332.965C246.507 334.661 247.77 336.04 249.322 336.04C250.874 336.04 252.137 334.661 252.137 332.965C252.137 331.269 250.873 329.89 249.322 329.89Z" fill="#E0E0E0"/>
<path d="M235.46 335.912C235.46 336.06 229.411 336.181 221.952 336.181C214.49 336.181 208.443 336.061 208.443 335.912C208.443 335.764 214.49 335.643 221.952 335.643C229.411 335.644 235.46 335.764 235.46 335.912Z" fill="#263238"/>
<path d="M235.46 333.896C235.46 334.044 229.411 334.165 221.952 334.165C214.49 334.165 208.443 334.044 208.443 333.896C208.443 333.748 214.49 333.627 221.952 333.627C229.411 333.627 235.46 333.748 235.46 333.896Z" fill="#263238"/>
<path d="M235.46 331.879C235.46 332.028 229.411 332.149 221.952 332.149C214.49 332.149 208.443 332.028 208.443 331.879C208.443 331.731 214.49 331.61 221.952 331.61C229.411 331.61 235.46 331.731 235.46 331.879Z" fill="#263238"/>
<path d="M235.46 329.863C235.46 330.011 229.411 330.132 221.952 330.132C214.49 330.132 208.443 330.012 208.443 329.863C208.443 329.713 214.49 329.594 221.952 329.594C229.411 329.594 235.46 329.714 235.46 329.863Z" fill="#263238"/>
<path d="M292.622 328.833H264.842V336.558H292.622V328.833Z" fill="white"/>
<path d="M269.169 335.772C269.02 335.772 268.899 334.395 268.899 332.695C268.899 330.996 269.019 329.618 269.169 329.618C269.317 329.618 269.438 330.996 269.438 332.695C269.438 334.395 269.317 335.772 269.169 335.772Z" fill="#E0E0E0"/>
<path d="M272.842 335.772C272.693 335.772 272.572 334.395 272.572 332.695C272.572 330.996 272.693 329.618 272.842 329.618C272.99 329.618 273.111 330.996 273.111 332.695C273.111 334.395 272.99 335.772 272.842 335.772Z" fill="#E0E0E0"/>
<path d="M276.515 335.772C276.367 335.772 276.246 334.395 276.246 332.695C276.246 330.995 276.367 329.618 276.515 329.618C276.664 329.618 276.784 330.995 276.784 332.695C276.784 334.395 276.664 335.772 276.515 335.772Z" fill="#E0E0E0"/>
<path d="M280.189 335.772C280.04 335.772 279.919 334.395 279.919 332.695C279.919 330.996 280.039 329.618 280.189 329.618C280.337 329.618 280.457 330.996 280.457 332.695C280.457 334.395 280.337 335.772 280.189 335.772Z" fill="#E0E0E0"/>
<path d="M283.862 335.772C283.714 335.772 283.593 334.395 283.593 332.695C283.593 330.995 283.713 329.618 283.862 329.618C284.011 329.618 284.132 330.995 284.132 332.695C284.132 334.395 284.011 335.772 283.862 335.772Z" fill="#E0E0E0"/>
<path d="M287.535 335.772C287.387 335.772 287.266 334.395 287.266 332.695C287.266 330.996 287.386 329.618 287.535 329.618C287.684 329.618 287.805 330.996 287.805 332.695C287.805 334.395 287.684 335.772 287.535 335.772Z" fill="#E0E0E0"/>
<path d="M383.049 0H358.965L288.689 42.2143C288.952 42.609 297.247 48.596 308.082 56.3279L206.314 243.349L121.144 205.806L45.7297 341.088H86.9375L138.9 246.352L217.059 282.488L250.191 286.435L339.878 78.9014C351.148 86.875 359.805 92.98 359.805 92.98H383.888C383.888 92.98 376.865 34.1482 376.865 33.6808C376.865 33.2134 383.049 0 383.049 0Z" fill="#8605E2"/>
<path opacity="0.3" d="M383.049 0H358.965L288.689 42.2143C288.952 42.609 297.247 48.596 308.082 56.3279L206.314 243.349L121.144 205.806L45.7297 341.088H86.9375L138.9 246.352L217.059 282.488L250.191 286.435L339.878 78.9014C351.148 86.875 359.805 92.98 359.805 92.98H383.888C383.888 92.98 376.865 34.1482 376.865 33.6808C376.865 33.2134 383.049 0 383.049 0Z" fill="black"/>
<path d="M70.1104 341.088L145.826 204.647L230.694 243.349L340.142 42.2144L372.729 59.3012L250.19 286.435L163.281 246.352L111.318 341.088H70.1104Z" fill="#8605E2"/>
<path d="M312.773 42.2143C313.548 43.3756 383.889 92.98 383.889 92.98L383.05 0L312.773 42.2143Z" fill="#8605E2"/>
<path d="M312.772 42.2142C312.772 42.3502 307.381 42.4597 300.731 42.4597C294.08 42.4597 288.69 42.3493 288.69 42.2142C288.69 42.0792 294.08 41.9688 300.731 41.9688C307.38 41.9688 312.772 42.0792 312.772 42.2142Z" fill="#263238"/>
<path d="M331.586 56.7207C331.586 56.8567 326.195 56.9662 319.546 56.9662C312.894 56.9662 307.504 56.8557 307.504 56.7207C307.504 56.5848 312.894 56.4752 319.546 56.4752C326.195 56.4743 331.586 56.5848 331.586 56.7207Z" fill="#263238"/>
<path d="M150.715 140.933C150.715 140.933 149.254 141.567 149.026 139.621C148.797 137.673 152.864 133.618 154.165 132.331C155.465 131.043 157.324 131.319 158.974 131.687C160.624 132.054 167.375 132.733 169.616 134.168C171.856 135.603 175.285 142.802 176 143.144C176.715 143.486 197.779 144.581 197.779 144.581L196.873 161.812C196.873 161.812 176.199 157.88 172.105 155.324C168.01 152.768 168.548 151.75 167.384 149.366C166.22 146.982 164.971 144.451 164.971 144.451L163.035 144.131L159.932 145.84C159.932 145.84 159.566 150.213 156.496 150.102L154.99 149.311C154.99 149.311 153.987 150.469 152.843 148.678C151.699 146.887 151.916 146.553 151.916 146.553C151.916 146.553 150.712 148.039 149.411 146.196C148.11 144.353 150.715 140.933 150.715 140.933Z" fill="#AE7461"/>
<path d="M173.408 148.248C173.411 148.261 173.333 148.285 173.18 148.319C173.028 148.356 172.795 148.385 172.493 148.386C171.894 148.392 170.984 148.245 170.015 147.683C169.05 147.136 168.039 146.152 167.39 144.778C166.721 143.412 166.393 141.732 166.301 139.95L166.635 140.153C165.25 140.793 163.619 141.204 161.91 141.263C160.712 141.309 159.536 141.176 158.44 140.899C157.915 140.744 157.309 140.664 156.852 140.163C156.608 139.925 156.551 139.429 156.798 139.148C157.023 138.869 157.308 138.77 157.543 138.67C159.439 137.903 161.182 137.306 162.66 136.856C164.138 136.405 165.351 136.101 166.193 135.909C167.036 135.72 167.508 135.644 167.515 135.676C167.524 135.711 167.067 135.85 166.242 136.094C165.417 136.341 164.223 136.696 162.767 137.187C161.31 137.677 159.59 138.304 157.716 139.089C157.487 139.182 157.269 139.288 157.168 139.426C157.073 139.561 157.078 139.709 157.211 139.859C157.486 140.18 158.034 140.294 158.558 140.433C159.613 140.691 160.742 140.817 161.894 140.772C163.537 140.715 165.104 140.328 166.44 139.724L166.759 139.58L166.774 139.927C166.85 141.673 167.147 143.294 167.758 144.606C168.351 145.928 169.271 146.87 170.171 147.43C171.071 147.998 171.925 148.185 172.502 148.229C173.081 148.27 173.402 148.21 173.408 148.248Z" fill="#6F4439"/>
<path d="M162.744 136.433C162.784 136.483 162.032 136.889 160.755 136.819C160.128 136.813 159.389 136.706 158.608 136.759C157.811 136.794 157.067 137.132 156.452 137.84C155.172 139.267 153.641 140.21 152.488 140.69C151.327 141.179 150.548 141.279 150.536 141.225C150.514 141.148 151.251 140.929 152.341 140.375C153.43 139.822 154.844 138.894 156.097 137.499C156.428 137.157 156.797 136.808 157.249 136.61C157.69 136.4 158.156 136.324 158.582 136.306C159.44 136.276 160.168 136.423 160.777 136.472C161.996 136.626 162.715 136.362 162.744 136.433Z" fill="#6F4439"/>
<path d="M158.404 141.024C158.519 141.062 157.667 143 155.719 144.654C153.784 146.326 151.737 146.872 151.716 146.752C151.658 146.611 153.549 145.883 155.398 144.281C157.265 142.7 158.273 140.945 158.404 141.024Z" fill="#6F4439"/>
<path d="M159.162 143.666C159.285 143.68 159.008 145.376 157.775 147.042C156.557 148.719 155.021 149.496 154.971 149.382C154.886 149.26 156.228 148.34 157.377 146.752C158.545 145.178 159.019 143.623 159.162 143.666Z" fill="#6F4439"/>
<path d="M222.778 107.352L203.929 141.298L174.674 140.796L172.476 158.331L202.665 165.719L215.095 152.097L222.778 107.352Z" fill="#E0E0E0"/>
<path d="M206.282 147.059C206.136 147.072 205.954 145.677 205.301 144.1C204.663 142.516 203.816 141.391 203.929 141.299C204.017 141.21 205.082 142.245 205.757 143.915C206.444 145.577 206.408 147.062 206.282 147.059Z" fill="#263238"/>
<path d="M229.945 47.2685C227.56 47.5848 225.076 45.8767 224.522 43.5408C223.967 41.204 225.42 38.5659 227.693 37.7804C226.178 36.2867 225.76 33.8007 226.703 31.8953C227.646 29.9909 229.879 28.8116 231.988 29.1043C232.037 27.0073 233.254 24.9745 235.083 23.9396C236.911 22.9048 239.284 22.9039 241.113 23.9378C243.396 21.9087 247.138 21.7661 249.571 23.6139C251.605 23.2004 253.85 24.2437 254.842 26.0641C255.833 27.8844 255.491 30.3327 254.037 31.8113" fill="#263238"/>
<path d="M250.715 28.4303L249.637 28.4511C238.782 28.6607 229.909 37.1526 229.245 47.9682C228.629 58.0275 228.077 69.149 228.248 74.5356C228.603 85.6892 239.817 87.2084 239.817 87.2084L239.132 100.63L240.458 110.86L266.245 99.2665L267.701 50.6082C268.477 39.0061 262.357 28.8835 250.715 28.4303Z" fill="#AE7461"/>
<path d="M239.724 87.1941C239.724 87.1941 246.87 87.485 254.288 82.6328C254.288 82.6328 250.824 91.2711 239.65 90.4827L239.724 87.1941Z" fill="#6F4439"/>
<path d="M232.874 59.3399C232.861 60.1821 233.564 60.8874 234.445 60.9176C235.324 60.9478 236.049 60.2916 236.062 59.4494C236.076 58.6072 235.373 57.901 234.494 57.8708C233.613 57.8405 232.888 58.4986 232.874 59.3399Z" fill="#263238"/>
<path d="M231.753 53.3802C231.955 53.5842 233.147 52.6674 234.865 52.639C236.58 52.5852 237.858 53.4435 238.041 53.2301C238.13 53.1347 237.921 52.7637 237.365 52.3756C236.817 51.9885 235.887 51.6203 234.818 51.6458C233.748 51.6722 232.856 52.0829 232.346 52.4955C231.825 52.91 231.654 53.2896 231.753 53.3802Z" fill="#263238"/>
<path d="M247.422 58.984C247.409 59.8252 248.112 60.5315 248.992 60.5608C249.871 60.591 250.597 59.9348 250.61 59.0925C250.623 58.2513 249.92 57.5441 249.041 57.5139C248.161 57.4846 247.435 58.1418 247.422 58.984Z" fill="#263238"/>
<path d="M248.645 53.3736C248.848 53.5775 250.041 52.6607 251.758 52.6324C253.473 52.5795 254.751 53.4368 254.934 53.2234C255.023 53.129 254.816 52.758 254.257 52.3699C253.709 51.9828 252.78 51.6146 251.71 51.64C250.641 51.6665 249.748 52.0772 249.239 52.4898C248.72 52.9034 248.547 53.2829 248.645 53.3736Z" fill="#263238"/>
<path d="M242.658 66.2097C242.665 66.1115 241.593 65.9482 239.859 65.7612C239.419 65.7253 239.003 65.646 238.922 65.3486C238.813 65.0342 238.988 64.5593 239.19 64.0456C239.582 62.9787 239.992 61.8598 240.423 60.6872C242.132 55.9058 243.36 51.9781 243.167 51.911C242.973 51.844 241.431 55.6651 239.722 60.4464C239.311 61.6248 238.918 62.7493 238.544 63.8238C238.388 64.3251 238.114 64.8945 238.35 65.5459C238.475 65.8707 238.801 66.1021 239.083 66.1719C239.366 66.2522 239.613 66.2522 239.831 66.2607C241.573 66.3192 242.653 66.306 242.658 66.2097Z" fill="#263238"/>
<path d="M247.028 46.8059C247.262 47.2364 248.726 46.736 250.537 46.6425C252.346 46.5085 253.881 46.82 254.038 46.3649C254.105 46.1487 253.776 45.7644 253.115 45.4283C252.461 45.0931 251.47 44.8429 250.384 44.91C249.299 44.9789 248.363 45.35 247.775 45.7644C247.182 46.1799 246.923 46.601 247.028 46.8059Z" fill="#263238"/>
<path d="M231.534 46.313C231.904 46.6954 233.313 46.2639 235.018 46.212C236.721 46.11 238.172 46.4131 238.495 45.9995C238.637 45.7994 238.403 45.4132 237.765 45.0572C237.137 44.7022 236.091 44.4218 234.92 44.4737C233.749 44.5276 232.74 44.8996 232.155 45.3103C231.56 45.721 231.37 46.1261 231.534 46.313Z" fill="#263238"/>
<path d="M230.222 42.8309C230.222 42.8309 233.035 35.7873 236.379 34.0916C240.427 32.0389 242.273 36.4813 246.146 35.3199C250.019 34.1586 253.883 32.189 257.922 35.1169C262.342 38.3215 260.346 40.6678 260.711 45.6134C262.191 65.6621 265.973 71.2658 266.835 61.7929C266.93 60.7552 269.793 59.8752 270.135 55.4914C270.578 49.8065 270.663 42.913 269.316 38.9107C268.18 35.5371 266.196 33.2305 262.669 30.7123C257.102 26.7373 249.561 26.7959 244.452 27.4086C239.342 28.0214 229.585 34.0925 230.222 42.8309Z" fill="#263238"/>
<path d="M266.114 61.502C266.151 59.7789 267.612 58.39 269.333 58.5203C271.422 58.678 273.764 59.8148 273.71 64.1165C273.614 71.7483 265.957 70.078 265.947 69.859C265.94 69.7107 266.046 64.6953 266.114 61.502Z" fill="#AE7461"/>
<path d="M267.647 67.0085C267.681 66.9849 267.779 67.1038 268.003 67.2086C268.22 67.3115 268.598 67.3861 268.998 67.2417C269.809 66.9556 270.506 65.6847 270.56 64.309C270.588 63.6151 270.45 62.9513 270.211 62.4009C269.985 61.8391 269.628 61.4454 269.222 61.3679C268.818 61.2697 268.528 61.5086 268.431 61.722C268.326 61.9344 268.373 62.0874 268.332 62.0997C268.31 62.1186 268.169 61.9694 268.234 61.655C268.267 61.5039 268.36 61.3245 268.541 61.181C268.726 61.0346 268.997 60.9619 269.28 60.9959C269.869 61.0441 270.393 61.5917 270.656 62.196C270.952 62.804 271.123 63.549 271.091 64.3289C271.023 65.867 270.216 67.2955 269.107 67.6005C268.567 67.7336 268.121 67.5665 267.891 67.3833C267.658 67.1935 267.62 67.0226 267.647 67.0085Z" fill="#6F4439"/>
<path d="M265.678 46.7275C264.699 47.4224 263.664 48.1409 262.47 48.2816C261.276 48.4232 259.896 47.7642 259.671 46.5849C259.569 46.0552 259.688 45.4368 259.33 45.0336C258.903 44.5521 258.136 44.7201 257.497 44.8004C255.279 45.0789 252.636 42.6798 252.028 40.5327C251.478 41.391 250.242 41.6704 249.374 41.1351C248.505 40.5997 248.186 40.291 247.5 39.5375C246.815 38.7831 245.859 38.1156 244.852 38.278C244.288 38.3686 243.766 38.7152 243.197 38.6755C242.191 38.6056 241.679 37.4424 241.508 36.451C241.336 35.4596 241.195 34.302 240.335 33.778C239.538 33.2927 238.523 33.6015 237.601 33.7554C236.68 33.9093 235.483 33.7157 235.229 32.8187C235.096 32.3485 235.289 31.8462 235.544 31.4289C236.697 29.5358 239.276 28.6549 241.35 29.4461C242.049 26.911 244.373 24.9037 246.987 24.5779C249.601 24.2513 252.348 25.625 253.651 27.91C255.238 26.4163 257.573 25.7572 259.709 26.2C261.845 26.6429 263.722 28.1762 264.582 30.1769C266.432 29.6529 268.565 30.3299 269.772 31.8226C270.979 33.3163 271.19 35.5399 270.286 37.2328C271.674 37.9891 272.877 39.3289 272.936 40.9075C272.996 42.4853 271.485 44.0885 269.951 43.7023C270.591 44.9194 270.122 46.5972 268.942 47.3072C267.762 48.0172 266.056 47.648 265.277 46.5141" fill="#263238"/>
<path d="M240.828 31.7027C240.822 31.7037 240.823 31.7509 240.833 31.8425C240.845 31.9341 240.853 32.0728 240.89 32.2485C240.966 32.5997 241.119 33.118 241.473 33.7072C241.83 34.2879 242.378 34.9554 243.203 35.4776C244.011 36.0072 245.114 36.3991 246.35 36.3084L246.217 36.1422C245.993 36.7994 246.073 37.5812 246.411 38.2449C246.733 38.921 247.231 39.5158 247.756 40.0955C248.024 40.3731 248.259 40.7017 248.628 40.9547C248.986 41.1974 249.413 41.3334 249.847 41.3796C250.711 41.4731 251.679 41.1879 252.29 40.4524L252.002 40.376C252.226 41.8885 253.119 43.3888 254.51 44.2877C255.247 44.7976 256.152 45.1006 257.036 45.06C257.92 45.0345 258.738 44.7598 259.498 44.4699L259.292 44.384C259.722 45.3244 260.368 46.1204 261.146 46.7029C261.91 47.2845 262.92 47.615 263.823 47.3752C265.619 46.9597 266.786 45.4387 267 44.0243L266.829 44.1083C267.733 44.5776 268.694 44.6059 269.463 44.4425C270.241 44.2849 270.848 43.9346 271.278 43.5918C271.71 43.2425 271.963 42.8884 272.113 42.6429C272.251 42.389 272.308 42.2483 272.3 42.2445C272.261 42.2133 272.057 42.8289 271.199 43.4899C270.77 43.8062 270.176 44.1272 269.427 44.2603C268.687 44.401 267.776 44.3528 266.941 43.9025L266.796 43.8241L266.768 43.9865C266.552 45.3065 265.427 46.7256 263.76 47.0919C262.942 47.3006 262.054 47.0041 261.33 46.4546C260.602 45.9051 259.986 45.1375 259.587 44.2537L259.524 44.114L259.381 44.1678C258.632 44.4501 257.843 44.7079 257.026 44.7296C256.208 44.7626 255.396 44.4935 254.694 44.0101C253.38 43.1603 252.542 41.7564 252.322 40.325L252.267 39.9652L252.034 40.2494C251.519 40.8792 250.653 41.1502 249.878 41.068C249.488 41.0284 249.109 40.9094 248.796 40.6998C248.492 40.4997 248.247 40.1748 247.974 39.8954C247.449 39.326 246.966 38.7539 246.66 38.125C246.339 37.5038 246.266 36.8173 246.457 36.2225L246.515 36.0393L246.323 36.0563C245.16 36.1574 244.098 35.8033 243.308 35.3076C242.502 34.8195 241.955 34.1869 241.591 33.6336C240.875 32.492 240.882 31.6838 240.828 31.7027Z" fill="#455A64"/>
<path d="M243.147 72.0683C243.184 71.7832 245.072 72.1382 246.719 70.7824C248.37 69.4294 248.543 67.3805 248.808 67.4164C248.932 67.4126 249.089 67.9338 248.95 68.7854C248.82 69.622 248.32 70.7852 247.313 71.6151C246.303 72.4422 245.127 72.6556 244.34 72.5725C243.537 72.4942 243.111 72.1949 243.147 72.0683Z" fill="#263238"/>
<path d="M188.671 180.071L203.226 164.048L215.398 127.334C217.883 120.965 220.017 112.878 223.027 106.838C224.508 103.867 227.004 101.525 230.041 100.177L235.209 97.8869L238.3 92.964C236.519 104.099 252.155 105.47 268.772 91.6459C268.772 91.6459 274.262 95.3527 281.999 101.757C285.387 104.561 288.459 107.625 289.74 112.254C292.064 120.657 282.073 145.526 271.195 168.92C267.941 175.919 252.443 207.277 252.443 207.277L246.864 211.334C246.864 211.334 197.544 196.42 193.108 188.246C188.671 180.071 188.671 180.071 188.671 180.071Z" fill="#E0E0E0"/>
<path d="M196.747 170.518C196.735 170.506 196.877 170.341 197.159 170.037C197.479 169.701 197.895 169.265 198.413 168.722C199.557 167.552 201.149 165.927 203.106 163.928L203.064 163.995C203.975 161.196 205.065 157.853 206.277 154.129C207.53 150.401 208.801 146.263 210.084 141.888C212.57 133.309 214.923 125.55 217.096 120.098C218.15 117.362 219.139 115.202 219.834 113.718C220.184 113.021 220.466 112.461 220.681 112.032C220.88 111.648 220.992 111.451 221.007 111.459C221.022 111.466 220.941 111.678 220.771 112.074C220.576 112.513 220.324 113.085 220.009 113.797C219.369 115.303 218.432 117.477 217.422 120.222C215.339 125.689 213.046 133.441 210.557 142.026C209.274 146.401 207.983 150.555 206.706 154.271C205.455 157.981 204.33 161.314 203.388 164.102L203.375 164.142L203.347 164.169C201.344 166.123 199.716 167.712 198.544 168.854C198 169.371 197.563 169.786 197.226 170.105C196.924 170.388 196.758 170.529 196.747 170.518Z" fill="#263238"/>
<path d="M242.028 109.373L224.97 179.168L207.253 187.962V170.888L237.913 107.856L242.028 109.373Z" fill="#8605E2"/>
<g opacity="0.3">
<path d="M209.402 172.884C214.238 174.7 218.594 177.574 222.866 180.476C227.137 183.379 231.407 186.354 236.147 188.409C240.886 190.465 246.197 191.56 251.257 190.518C256.318 189.477 261.045 186.027 262.712 181.146L209.402 172.884Z" fill="black"/>
</g>
<path d="M235.211 97.6697L239.571 91.0066L241.282 100.136L245.627 95.229L267.185 85.1641L270.927 93.1622L247.108 107.221L240.502 106.73L235.685 101.024L235.211 97.6697Z" fill="#E0E0E0"/>
<path d="M235.21 97.6706C235.266 97.665 235.361 98.1786 235.537 99.0473C235.753 100.089 235.997 101.264 236.268 102.566L235.836 102.502C236.206 101.826 236.6 101.107 237.01 100.358C237.661 99.2087 238.271 98.1305 238.827 97.1495L239.059 96.7378L239.214 97.1759C239.596 98.2636 239.799 99.1813 239.971 99.8187C240.133 100.457 240.234 100.82 240.191 100.838C240.149 100.855 239.967 100.516 239.733 99.8942C239.491 99.2767 239.223 98.3637 238.815 97.3298L239.202 97.3562C238.665 98.3467 238.073 99.4353 237.443 100.596C237.025 101.341 236.623 102.055 236.245 102.727L235.936 103.277L235.814 102.663C235.24 99.7818 235.093 97.6801 235.21 97.6706Z" fill="#263238"/>
<path d="M242.465 101.036L239.721 100.702C238.978 101.535 237.159 103.253 236.416 104.087L236.421 104.164C236.746 105.991 237.071 107.817 237.396 109.644C238.929 109.569 240.473 109.693 241.975 110.011C242.891 108.407 243.583 107.197 244.498 105.593L242.465 101.036Z" fill="#8605E2"/>
<path d="M247.15 203.985C247.093 204.035 246.287 203.177 244.936 201.845C243.586 200.513 241.667 198.728 239.41 196.92C237.149 195.116 234.985 193.635 233.387 192.612C231.79 191.586 230.775 190.99 230.811 190.924C230.827 190.893 231.1 191.009 231.58 191.242C232.062 191.472 232.743 191.838 233.569 192.315C235.223 193.269 237.437 194.716 239.717 196.537C241.993 198.36 243.893 200.201 245.186 201.603C245.834 202.304 246.339 202.887 246.67 203.306C247.003 203.723 247.175 203.964 247.15 203.985Z" fill="#263238"/>
<path d="M242.68 101.598L245.726 100.101L246.759 105.424L244.221 105.649L242.68 101.598Z" fill="#8605E2"/>
<path opacity="0.3" d="M245.31 97.9568V110.012L267.766 95.2083L246.868 107.352L245.31 97.9568Z" fill="black"/>
<path d="M270.926 93.1622C270.945 93.1905 270.48 93.5389 269.621 94.146C268.753 94.7408 267.484 95.5811 265.87 96.5489C262.662 98.5175 258.058 100.927 253.095 103.773C250.998 104.987 249.019 106.208 247.238 107.413L246.943 107.612L246.879 107.265C246.198 103.584 245.606 100.39 245.162 97.986L245.414 98.0653C244.443 98.9689 243.652 99.7053 243.045 100.27C242.488 100.775 242.18 101.037 242.16 101.016C242.14 100.996 242.411 100.695 242.931 100.154C243.513 99.5637 244.272 98.7942 245.203 97.8491L245.4 97.6498L245.457 97.9284C245.943 100.325 246.589 103.508 247.334 107.178L246.974 107.03C248.757 105.803 250.742 104.567 252.846 103.348C257.828 100.493 262.448 98.1361 265.692 96.2506C267.323 95.3234 268.617 94.5303 269.515 93.9864C270.406 93.4294 270.907 93.1348 270.926 93.1622Z" fill="#263238"/>
<path d="M239.753 101.721L238.494 98.6432L236.416 102.455L237.306 103.836L239.753 101.721Z" fill="#8605E2"/>
<path d="M243.197 101.276C243.303 101.374 241.8 103.108 240.184 105.418C238.559 107.721 237.438 109.723 237.31 109.657C237.195 109.603 238.132 107.473 239.781 105.135C241.421 102.792 243.106 101.186 243.197 101.276Z" fill="#263238"/>
<path d="M241.673 110.103C241.638 110.237 240.608 110.082 239.348 109.872C238.089 109.659 237.065 109.468 237.076 109.33C237.086 109.197 238.147 109.171 239.43 109.388C240.714 109.601 241.707 109.974 241.673 110.103Z" fill="#263238"/>
<path d="M128.472 153.515L114.261 113.426C113.989 112.562 114.519 111.651 115.405 111.459L148.232 102.901C149.051 102.72 149.874 103.188 150.137 103.983L165.072 149.143L211.395 179.51L209.169 181.778L197.319 178.896L128.472 153.515Z" fill="#455A64"/>
<path d="M209.171 181.778C209.166 181.785 209.084 181.74 208.931 181.647C208.755 181.537 208.533 181.396 208.256 181.22C207.638 180.817 206.778 180.255 205.686 179.541C203.434 178.046 200.23 175.916 196.283 173.293C188.344 167.959 177.427 160.625 165.367 152.523C164.527 151.956 163.692 151.393 162.914 150.868L162.845 150.82L162.818 150.742C158.456 137.604 154.548 125.835 151.716 117.31C150.336 113.082 149.219 109.66 148.435 107.257C148.067 106.097 147.777 105.183 147.568 104.526C147.481 104.235 147.41 104 147.354 103.813C147.309 103.652 147.289 103.568 147.296 103.566C147.304 103.563 147.339 103.643 147.4 103.798C147.468 103.981 147.552 104.211 147.658 104.496C147.887 105.147 148.205 106.05 148.609 107.198C149.428 109.589 150.594 112.995 152.036 117.203C154.904 125.716 158.863 137.468 163.283 150.587L163.187 150.462C163.966 150.987 164.8 151.549 165.641 152.117C177.67 160.265 188.559 167.642 196.477 173.006C200.387 175.684 203.562 177.857 205.792 179.384C206.863 180.13 207.706 180.717 208.311 181.139C208.576 181.331 208.79 181.485 208.959 181.605C209.104 181.712 209.175 181.771 209.171 181.778Z" fill="#263238"/>
<path d="M134.137 152.66C134.13 152.524 140.586 152.109 148.554 151.734C156.525 151.358 162.99 151.163 162.995 151.298C163.002 151.434 156.547 151.849 148.576 152.224C140.609 152.6 134.143 152.795 134.137 152.66Z" fill="#263238"/>
<path d="M139.37 129.777C139.943 131.595 139.621 133.314 138.652 133.618C137.684 133.922 136.435 132.694 135.863 130.876C135.29 129.057 135.612 127.338 136.581 127.034C137.549 126.731 138.798 127.958 139.37 129.777Z" fill="#E0E0E0"/>
<path d="M179.82 144.072C179.82 144.072 178.594 144.68 178.403 142.729C178.234 140.997 182.397 138.434 183.955 137.473C185.513 136.51 188.8 137.172 190.476 137.389C192.741 137.683 198.016 140.041 199.694 142.049C201.397 144.089 202.566 149.308 203.185 149.802C203.805 150.295 224.78 158.532 224.78 158.532L220.005 175.115C220.005 175.115 200.751 166.633 197.34 163.221C193.929 159.81 194.682 158.939 194.087 156.354C193.492 153.77 192.846 151.022 192.846 151.022L191.033 150.275L187.624 151.242C187.624 151.242 187.207 152.534 186.329 153.543C185.28 154.749 183.379 154.696 182.323 153.496C182.323 153.496 180.593 154.097 179.749 152.147C179.404 151.348 179.653 150.133 179.653 150.133C179.653 150.133 178.102 150.437 178.09 148.509C178.078 146.439 179.82 144.072 179.82 144.072Z" fill="#AE7461"/>
<path d="M190.742 146.267C190.739 146.348 190.038 146.322 188.959 146.558C187.888 146.786 186.429 147.346 185.174 148.448C183.919 149.551 183.18 150.926 182.819 151.958C182.449 152.997 182.386 153.694 182.305 153.687C182.251 153.687 182.188 152.967 182.487 151.854C182.776 150.751 183.51 149.258 184.848 148.079C186.188 146.902 187.764 146.364 188.896 146.217C190.042 146.06 190.749 146.214 190.742 146.267Z" fill="#6F4439"/>
<path d="M189.173 142.71C189.164 142.798 188.409 142.671 187.254 142.939C186.105 143.191 184.593 143.931 183.303 145.195C182.012 146.466 181.134 147.891 180.496 148.909C179.864 149.937 179.466 150.575 179.404 150.541C179.347 150.51 179.633 149.817 180.193 148.737C180.759 147.668 181.607 146.175 182.96 144.843C184.317 143.511 185.956 142.772 187.189 142.598C188.431 142.406 189.19 142.666 189.173 142.71Z" fill="#6F4439"/>
<path d="M188.869 138.821C188.86 138.903 188.209 138.814 187.2 139C186.194 139.174 184.849 139.693 183.586 140.619C182.32 141.547 181.346 142.614 180.632 143.375C179.923 144.142 179.471 144.613 179.417 144.568C179.366 144.527 179.72 143.981 180.367 143.149C181.018 142.326 181.973 141.193 183.295 140.222C184.621 139.25 186.077 138.748 187.151 138.657C188.232 138.552 188.883 138.77 188.869 138.821Z" fill="#6F4439"/>
<path d="M278.383 101.158C284.279 102.308 288.118 107.48 289.318 113.946C291.02 123.118 269.952 166.467 266.026 175.931C261.89 185.901 252.741 188.081 247.413 187.957C242.085 187.834 204.75 170.356 204.75 170.356L210.224 151.446L243.398 161.276L256.544 124.359" fill="#E0E0E0"/>
<path d="M256.546 124.36C256.546 124.36 256.484 124.586 256.339 125.019C256.185 125.466 255.967 126.105 255.683 126.936C255.09 128.635 254.225 131.111 253.114 134.295C250.856 140.694 247.596 149.928 243.57 161.337L243.513 161.496L243.349 161.448C233.815 158.636 222.547 155.314 210.162 151.662L210.442 151.509C208.696 157.555 206.871 163.88 204.981 170.423L204.854 170.141C213.567 174.179 222.894 178.417 232.616 182.501C236.565 184.135 240.477 185.764 244.43 187.02L245.917 187.446C246.411 187.575 246.902 187.617 247.394 187.711C248.412 187.727 249.434 187.677 250.439 187.541C252.454 187.292 254.407 186.72 256.222 185.904C259.857 184.269 262.865 181.476 264.694 178.103C265.622 176.437 266.302 174.63 267.089 172.901C267.869 171.171 268.639 169.462 269.399 167.773C275.528 154.291 280.962 142.104 284.859 131.609C286.776 126.362 288.437 121.545 289.113 117.165C289.255 116.073 289.343 115.001 289.194 114C288.998 112.993 288.773 112.027 288.467 111.131C287.877 109.33 287.089 107.77 286.199 106.492C284.412 103.913 282.253 102.595 280.763 101.948C280.007 101.627 279.407 101.43 278.996 101.334C278.588 101.226 278.381 101.158 278.381 101.158C278.381 101.158 278.594 101.192 279.009 101.285C279.425 101.366 280.033 101.547 280.801 101.856C282.316 102.478 284.521 103.786 286.355 106.382C287.268 107.667 288.079 109.241 288.688 111.057C289.005 111.963 289.239 112.936 289.444 113.955C289.608 115.006 289.522 116.094 289.384 117.203C288.727 121.636 287.084 126.463 285.184 131.729C281.323 142.256 275.918 154.466 269.811 167.959C269.053 169.648 268.286 171.358 267.51 173.087C266.728 174.808 266.057 176.608 265.102 178.332C263.236 181.785 260.144 184.665 256.419 186.342C254.558 187.18 252.559 187.766 250.499 188.022C249.47 188.163 248.426 188.213 247.378 188.197C246.853 188.104 246.305 188.052 245.797 187.919L244.283 187.487C240.288 186.218 236.38 184.591 232.423 182.953C222.689 178.864 213.364 174.621 204.647 170.572L204.463 170.486L204.52 170.289C206.417 163.75 208.252 157.428 210.006 151.383L210.069 151.165L210.287 151.23C222.662 154.915 233.92 158.267 243.448 161.104L243.227 161.216C247.318 149.83 250.629 140.614 252.923 134.228C254.074 131.058 254.969 128.593 255.583 126.902C255.888 126.077 256.122 125.445 256.287 125.001C256.45 124.574 256.546 124.36 256.546 124.36Z" fill="#263238"/>
<path d="M248.695 175.147C248.542 175.175 248.034 171.854 246.555 168.02C245.102 164.174 243.268 161.358 243.399 161.277C243.45 161.243 243.974 161.904 244.686 163.066C245.397 164.225 246.271 165.901 247.015 167.845C247.756 169.789 248.22 171.621 248.462 172.959C248.707 174.297 248.757 175.139 248.695 175.147Z" fill="#263238"/>
<path d="M276.087 101.24C276.116 101.326 274.866 101.727 272.991 102.673C272.05 103.139 270.973 103.777 269.828 104.556C268.697 105.354 267.505 106.305 266.355 107.415C265.217 108.536 264.236 109.704 263.411 110.815C262.604 111.939 261.94 112.999 261.451 113.927C260.461 115.776 260.03 117.014 259.944 116.983C259.912 116.972 259.997 116.656 260.181 116.092C260.355 115.524 260.679 114.725 261.141 113.768C261.597 112.807 262.239 111.71 263.041 110.55C263.861 109.405 264.85 108.206 266.01 107.062C267.181 105.931 268.406 104.972 269.572 104.181C270.752 103.408 271.865 102.792 272.838 102.36C273.808 101.92 274.615 101.615 275.188 101.455C275.759 101.285 276.077 101.207 276.087 101.24Z" fill="#263238"/>
<path d="M69.0975 237.239L51.1689 214.876C51.1689 214.876 120.523 157.85 127.08 153.777C132.045 150.692 142.138 146.596 151.694 149.801C161.248 153.005 177.423 164.159 183.386 167.777C189.348 171.395 241.255 203.484 246.866 211.334C246.866 211.334 235.572 231.725 228.176 235.144C222.384 237.822 205.685 233.824 195.929 227.904C186.172 221.984 141.409 183.722 141.409 183.722L69.0975 237.239Z" fill="#263238"/>
<path d="M75.7762 263.455L99.9976 280.821L146.61 205.005L193.673 226.409L162.027 173.636C162.027 173.636 136.504 173.935 132.492 173.485C127.346 172.907 117.95 181.014 112.821 190.912C108.363 199.515 75.7762 263.455 75.7762 263.455Z" fill="#263238"/>
<path d="M178.439 220.159C178.342 220.254 167.713 209.431 154.703 195.99C141.689 182.544 131.222 171.571 131.319 171.476C131.417 171.382 142.043 182.202 155.057 195.648C168.067 209.09 178.538 220.066 178.439 220.159Z" fill="#455A64"/>
<path opacity="0.3" d="M89.3848 222.224C89.3848 222.224 110.24 183.319 120.064 180.729C120.064 180.729 105.853 199.95 101.096 213.557L89.3848 222.224Z" fill="black"/>
<path d="M135.76 176.083C135.742 176.149 134.814 175.71 133.022 175.561C131.246 175.388 128.577 175.695 125.698 177.116C122.8 178.506 119.948 181.176 117.438 184.593C114.942 188.031 112.435 192.005 110.038 196.288C105.307 204.912 101.658 213.058 98.7471 218.819C97.3167 221.713 96.0935 224.023 95.2384 225.613C94.8146 226.367 94.4759 226.97 94.2205 227.426C93.983 227.837 93.8506 228.05 93.8354 228.041C93.8203 228.033 93.9234 227.805 94.1325 227.378C94.3671 226.913 94.6783 226.295 95.0681 225.524C95.8703 223.908 97.0443 221.578 98.433 218.667C101.261 212.872 104.858 204.704 109.605 196.05C112.016 191.744 114.535 187.775 117.073 184.322C119.624 180.887 122.563 178.183 125.543 176.804C128.501 175.395 131.237 175.136 133.038 175.371C134.858 175.583 135.76 176.083 135.76 176.083Z" fill="#455A64"/>
<path d="M87.6627 249.371L74.395 273.774C74.395 273.774 44.8164 270.287 42.1885 274.725L90.2519 299.251L110.2 260.795L87.6627 249.371Z" fill="#263238"/>
<path d="M90.3219 279.28C92.2792 281.044 89.6691 284.158 87.6277 282.443C85.4481 280.48 88.5604 277.311 90.4695 279.431" fill="#E0E0E0"/>
<path d="M90.2519 299.251L92.1108 295.296L45.333 273.26C45.333 273.26 42.7173 273.097 42.1885 274.725L90.2519 299.251Z" fill="#455A64"/>
<path d="M73.7413 273.132C73.6287 273.37 74.7478 274.076 75.5169 275.418C76.321 276.741 76.3967 278.059 76.6597 278.077C78.002 277.263 75.0978 272.352 73.7413 273.132Z" fill="white"/>
<path d="M67.6343 272.641C67.464 272.842 68.2767 273.758 68.5661 275.156C68.8963 276.545 68.5491 277.718 68.7884 277.827C70.3295 277.512 69.1583 272.272 67.6343 272.641Z" fill="white"/>
<path d="M61.6865 277.202C62.9825 277.369 63.1755 272.176 61.8738 272.25C61.9363 272.409 61.7565 277.053 61.6865 277.202Z" fill="white"/>
<path d="M77.0615 267.695C77.2308 267.686 81.8284 270.385 81.8994 270.525C82.6391 269.426 77.6565 266.514 77.0615 267.695Z" fill="white"/>
<path d="M69.6181 205.873L46.8829 221.872C46.8829 221.872 21.9227 205.653 17.5947 208.467L49.7739 251.725L83.8753 224.929L69.6181 205.873Z" fill="#263238"/>
<path d="M58.7117 233.855C59.6823 236.303 55.9588 237.939 54.8917 235.497C53.8104 232.773 58.0078 231.312 58.7769 234.057" fill="#E0E0E0"/>
<path d="M49.7739 251.725L53.1974 249.003L21.0637 208.546C21.0637 208.546 18.7914 207.242 17.5947 208.467L49.7739 251.725Z" fill="#455A64"/>
<path d="M46.5821 221.007C46.3758 221.17 47.0655 222.299 47.1582 223.842C47.2916 225.383 46.7732 226.598 47.0011 226.731C48.5658 226.596 48.1449 220.908 46.5821 221.007Z" fill="white"/>
<path d="M41.3265 217.863C41.0852 217.967 41.4059 219.148 41.0446 220.529C40.7239 221.92 39.8905 222.819 40.0569 223.022C41.5772 223.421 42.8562 218.207 41.3265 217.863Z" fill="white"/>
<path d="M33.9688 219.318C35.0557 220.042 37.5361 215.472 36.3366 214.962C36.3215 215.132 34.0974 219.214 33.9688 219.318Z" fill="white"/>
<path opacity="0.3" d="M174.88 216.482C174.88 216.482 148.373 196.342 142.052 188.579C135.817 180.921 132.493 173.485 132.493 173.485L174.88 216.482Z" fill="black"/>
</svg>
