<svg width="476" height="354" viewBox="0 0 476 354" fill="none" xmlns="http://www.w3.org/2000/svg">
<path d="M320.681 55.5389H213.743V129.736H320.681V55.5389Z" fill="#CCB2ED"/>
<path d="M325.911 55.5389H218.974V129.736H325.911V55.5389Z" fill="#E1CAF9"/>
<path d="M325.911 55.5389H218.974V129.736H325.911V55.5389Z" fill="#E1CAF9"/>
<path d="M320.68 124.486V60.7894L224.205 60.7894V124.486L320.68 124.486Z" fill="#CCB2ED"/>
<path d="M251.945 86.8289H237.106V102.803H251.945V86.8289Z" fill="#FFB948"/>
<path d="M245.953 83.4713H243.097V89.4502H245.953V83.4713Z" fill="white"/>
<path d="M280.666 90.22L266.119 93.1617L269.262 108.822L283.809 105.88L280.666 90.22Z" fill="#FFB948"/>
<path d="M275.357 89.0467L272.502 89.0114L272.429 94.9897L275.284 95.025L275.357 89.0467Z" fill="white"/>
<path d="M302.885 79.9626L288.338 82.9044L291.481 98.5642L306.028 95.6225L302.885 79.9626Z" fill="#FF228C"/>
<path d="M297.585 78.7719L294.729 78.7368L294.657 84.7151L297.513 84.7502L297.585 78.7719Z" fill="white"/>
<path d="M251.946 309.877H167.46V313.987H251.946V309.877Z" fill="#AD8FDB"/>
<path d="M250.918 329.399H254.791L231.578 182.672H227.703L250.918 329.399Z" fill="#AD8FDB"/>
<path d="M249.125 324.264H255.863C257.276 324.264 258.42 325.413 258.42 326.831C258.42 328.249 257.276 329.398 255.863 329.398H249.125C247.713 329.398 246.568 328.249 246.568 326.831C246.568 325.414 247.713 324.264 249.125 324.264Z" fill="#8867C6"/>
<path d="M225.491 183.509H234.195V185.822C234.195 186.626 233.545 187.279 232.743 187.279H226.943C226.141 187.279 225.491 186.626 225.491 185.822V183.509Z" fill="#8867C6"/>
<path d="M167.309 329.399H171.183L147.97 182.672H144.094L167.309 329.399Z" fill="#AD8FDB"/>
<path d="M165.517 324.264H172.255C173.668 324.264 174.812 325.413 174.812 326.831C174.812 328.249 173.668 329.398 172.255 329.398H165.517C164.104 329.398 162.96 328.249 162.96 326.831C162.96 325.414 164.104 324.264 165.517 324.264Z" fill="#8867C6"/>
<path d="M141.884 183.509H150.588V185.822C150.588 186.626 149.938 187.279 149.136 187.279H143.334C142.533 187.279 141.883 186.626 141.883 185.822V183.509H141.884Z" fill="#8867C6"/>
<path d="M50.6267 329.399H46.7527L69.9663 182.672H73.8414L50.6267 329.399Z" fill="#E1CAF9"/>
<path d="M52.4197 324.264H45.6822C44.2693 324.264 43.1248 325.413 43.1248 326.831C43.1248 328.249 44.2693 329.398 45.6822 329.398H52.4197C53.8326 329.398 54.9772 328.249 54.9772 326.831C54.9772 325.414 53.8326 324.264 52.4197 324.264Z" fill="#8867C6"/>
<path d="M76.0527 183.509H67.3484V185.822C67.3484 186.626 67.9986 187.279 68.8002 187.279H74.6009C75.4025 187.279 76.0527 186.626 76.0527 185.822V183.509Z" fill="#8867C6"/>
<path d="M134.329 309.877H49.8418V313.987H134.329V309.877Z" fill="#E1CAF9"/>
<path d="M134.235 329.399H130.361L153.575 182.672H157.45L134.235 329.399Z" fill="#E1CAF9"/>
<path d="M136.028 324.264H129.291C127.878 324.264 126.733 325.413 126.733 326.831C126.733 328.249 127.878 329.398 129.291 329.398H136.028C137.441 329.398 138.586 328.249 138.586 326.831C138.586 325.414 137.441 324.264 136.028 324.264Z" fill="#8867C6"/>
<path d="M159.661 183.509H150.957V185.822C150.957 186.626 151.607 187.279 152.409 187.279H158.21C159.011 187.279 159.661 186.626 159.661 185.822V183.509Z" fill="#8867C6"/>
<path d="M261.807 175.529H41.9568V179.173H261.807V175.529Z" fill="#E1CAF9"/>
<path d="M156.81 175.529H41.9568V179.173H156.81V175.529Z" fill="#CCB2ED"/>
<path d="M240.974 179.173H54.6423V183.509H240.974V179.173Z" fill="#AD8FDB"/>
<path d="M65.8428 144.547H69.1553C74.1771 144.547 78.248 140.461 78.248 135.42V132.095H74.9355C69.9137 132.095 65.8428 136.182 65.8428 141.222V144.547Z" fill="#2BBAA6"/>
<path d="M65.8415 153.373H62.529C57.5072 153.373 53.4363 149.287 53.4363 144.246V140.921H56.7488C61.7706 140.921 65.8415 145.008 65.8415 150.048V153.373Z" fill="#50EFAB"/>
<path d="M66.4972 162.27C66.1358 162.27 65.8438 161.977 65.8438 161.614V125.591C65.8438 125.228 66.1358 124.935 66.4972 124.935C66.8585 124.935 67.1506 125.228 67.1506 125.591V161.614C67.1506 161.977 66.8585 162.27 66.4972 162.27Z" fill="#50EFAB"/>
<path d="M79.7463 162.228C79.7463 169.574 73.8136 175.528 66.4962 175.528C59.1777 175.528 53.2461 169.573 53.2461 162.228" fill="#AD8FDB"/>
<path d="M78.8238 158.824H54.1691C52.3106 158.824 50.8047 160.337 50.8047 162.202V162.254C50.8047 164.119 52.3117 165.631 54.1691 165.631H78.8238C80.6823 165.631 82.1882 164.118 82.1882 162.254V162.202C82.1882 160.336 80.6813 158.824 78.8238 158.824Z" fill="#CCB2ED"/>
<path d="M67.1495 128.148H63.8369C58.8151 128.148 54.7443 124.062 54.7443 119.021V115.696H58.0568C63.0786 115.696 67.1495 119.782 67.1495 124.823V128.148Z" fill="#50EFAB"/>
<path d="M419.078 143.199L430.817 137.938L413.002 119.909L417.21 107.711L442.992 130.344C445.115 132.286 446.468 134.934 446.8 137.797L446.91 138.749C447.381 142.814 445.747 146.838 442.58 149.415L429.161 160.331L415.626 157.519L419.078 143.199Z" fill="url(#paint0_linear_164_1466)"/>
<path d="M250.298 170.312L230.353 164.458C230.039 164.361 229.682 164.373 229.365 164.501L226.303 165.693L221.325 167.631C220.347 168.002 219.285 167.31 219.237 166.26L217.917 138.83C217.837 137.328 219.725 136.614 220.652 137.79L228.511 147.784L232.987 153.459C233.258 153.808 233.663 154.026 234.105 154.048L238.416 154.288L250.298 170.312Z" fill="url(#paint1_linear_164_1466)"/>
<path d="M226.303 165.693L221.325 167.631C220.347 168.002 219.285 167.31 219.237 166.26L217.917 138.83C217.837 137.328 219.725 136.614 220.652 137.79L228.511 147.784L224.389 151.788L226.303 165.693Z" fill="#360C51"/>
<path d="M392.3 197.583L378.059 229.427C378.059 229.427 355.018 241.372 332.317 237.132C309.616 232.879 275.224 195.903 272.778 192.898C270.804 190.456 244.362 175.676 234.201 170.032C231.769 168.693 230.265 167.867 230.265 167.867C230.265 167.867 235.718 151.118 237.156 151.223C237.405 151.249 238.79 151.709 240.975 152.496C245.852 154.229 254.731 157.563 263.676 160.989C268.293 162.761 272.922 164.559 277.028 166.174C282.834 168.47 287.594 170.427 289.805 171.45C292.577 172.737 297.952 176.582 303.823 181.084H303.836C315.186 189.786 328.42 200.944 328.42 200.944L334.344 191.151L335.325 189.537L392.3 197.583Z" fill="#963BFF"/>
<path d="M243.116 160.627C243.116 160.627 277.674 178.65 284.853 184.85C292.03 191.05 317.572 219.871 332.597 220.709C347.621 221.548 353.277 199.267 353.277 199.267" stroke="#552084" stroke-width="1.2088" stroke-miterlimit="10"/>
<path d="M240.975 152.496L234.201 170.032C231.769 168.693 230.265 167.867 230.265 167.867C230.265 167.867 235.718 151.118 237.156 151.223C237.405 151.248 238.791 151.708 240.975 152.496Z" fill="#A566FF"/>
<path d="M303.824 181.084L264.253 182.253L274.924 166.422L277.029 166.173C282.835 168.469 287.595 170.426 289.805 171.449C292.577 172.736 297.951 176.582 303.824 181.084Z" fill="#6732B2"/>
<path d="M334.343 191.151L328.419 200.944C328.419 200.944 309.156 184.707 297.178 176.136C294.079 173.93 291.477 172.224 289.803 171.45C286.037 169.691 274.816 165.255 263.676 160.989C274.751 157.576 293.988 152.194 299.702 154.189C305.901 156.355 323.986 178.223 332.381 188.697C333.114 189.616 333.769 190.429 334.343 191.151Z" fill="#963BFF"/>
<path d="M334.344 191.151L328.42 200.944C328.42 200.944 309.157 184.707 297.18 176.136L332.382 188.697C333.115 189.616 333.77 190.429 334.344 191.151Z" fill="#6732B2"/>
<path d="M275.943 177.619L255.256 179.588C254.929 179.614 254.602 179.758 254.353 179.995L251.947 182.239L248.038 185.888C247.266 186.597 246.023 186.347 245.593 185.39L234.255 160.398C233.628 159.033 235.119 157.668 236.412 158.416L247.397 164.783L253.648 168.392C254.027 168.615 254.484 168.668 254.903 168.524L258.995 167.146L275.943 177.619Z" fill="url(#paint2_linear_164_1466)"/>
<path d="M251.947 182.239L248.038 185.888C247.266 186.597 246.023 186.347 245.593 185.39L234.255 160.398C233.628 159.033 235.119 157.668 236.412 158.416L247.397 164.783L245.043 170.033L251.947 182.239Z" fill="#360C51"/>
<path d="M297.141 176.123L267.979 181.556L261.977 182.672L255.635 163.573C255.635 163.573 257.701 162.864 260.97 161.827C261.795 161.564 262.71 161.288 263.677 160.986C274.819 165.253 286.038 169.689 289.804 171.448L297.141 176.123Z" fill="#963BFF"/>
<path d="M267.979 181.556L261.977 182.672L255.635 163.573C255.635 163.573 257.701 162.864 260.97 161.827L267.979 181.556Z" fill="#A566FF"/>
<path d="M328.42 200.944L319.742 211.492V191.552" fill="#6732B2"/>
<path d="M269.828 170.997C269.828 170.997 295.474 162.595 299.011 164.841C302.549 167.088 313.734 183.51 313.734 183.51" stroke="#552084" stroke-width="1.2088" stroke-miterlimit="10"/>
<path d="M395.838 119.884L384.475 142.843L377.731 140.879L379.105 136.127C379.105 136.127 374.541 135.099 373.943 131.139C373.361 127.17 375.388 122.088 376.73 118.816C378.071 115.544 377.327 112.839 379.899 109.365L381.702 111.23L391.116 114.888L395.838 119.884Z" fill="url(#paint3_linear_164_1466)"/>
<path d="M385.206 135.935L377.808 140.614L379.105 136.126L385.206 135.935Z" fill="#6732B2"/>
<path d="M376.146 129.289L380.092 128.868C380.092 128.868 380.18 131.366 377.988 131.337C376.252 131.316 376.146 129.289 376.146 129.289Z" fill="white"/>
<path d="M389.043 122.664C388.372 121.277 385.675 123.689 387.225 126.119" stroke="#E56184" stroke-width="0.6044" stroke-miterlimit="10" stroke-linecap="round" stroke-linejoin="round"/>
<path d="M407.099 155.924C407.067 156.239 406.699 157.422 406.093 159.214C402.761 169.139 392.3 197.589 392.3 197.589C392.3 197.589 384.63 200.261 366.152 200.934C365.482 200.955 364.843 200.955 364.184 200.945C355.724 200.825 348.562 197.98 343.434 195.059C338.014 191.997 334.877 188.87 334.877 188.87C334.877 188.87 335.299 188.044 336.045 186.622C337.203 184.385 339.139 180.649 341.4 176.436V176.425C341.541 176.165 341.682 175.904 341.812 175.643C344.538 170.583 347.643 164.937 350.369 160.343L350.38 160.332C352.327 157.042 354.079 154.284 355.356 152.677C359.521 147.421 361.425 143.664 374.234 141.101C378.539 140.254 384.1 139.527 391.413 138.94L405.769 142.502C405.769 142.502 407.326 153.904 407.099 155.924Z" fill="url(#paint4_linear_164_1466)"/>
<path d="M407.104 155.922C407.065 156.237 406.698 157.418 406.097 159.216C389.686 161.776 382.349 147.075 374.229 141.103C378.544 140.249 384.101 139.527 391.411 138.936L405.769 142.507C405.769 142.507 407.327 153.9 407.104 155.922Z" fill="url(#paint5_linear_164_1466)"/>
<path d="M404.655 101.128C398.243 100.682 389.961 86.1166 380.487 95.1349C371.014 104.153 379.24 111.172 382.093 114.533C384.945 117.894 385.1 122.737 385.1 122.737C385.1 122.737 386.779 118.165 389.75 120.514C392.721 122.863 389.409 128.005 386.749 128.189C387.424 133.97 370.272 147.904 391.523 160.376C412.774 172.848 421.331 155.276 418.181 149.036C415.031 142.797 415.741 134.629 419.435 125.759C423.129 116.891 423.143 102.414 404.655 101.128Z" fill="#FF228C"/>
<path d="M421.133 123.195C421.133 123.195 418.455 123.661 413.931 125.816C409.406 127.97 406.512 124.109 408.309 124.036C410.106 123.963 413.441 122.394 413.441 122.394C413.441 122.394 403.709 122.713 402.303 120.286C400.896 117.859 402.413 117.575 402.413 117.575C402.413 117.575 401.334 116.437 402.121 115.358C402.907 114.281 404.332 114.539 404.332 114.539C404.332 114.539 403.718 112.824 405.144 112.057C406.571 111.291 407.633 113.176 410.947 111.673C414.262 110.17 416.589 109.699 419.232 111.334C422.535 113.379 424.837 121.019 421.133 123.195Z" fill="url(#paint6_linear_164_1466)"/>
<path d="M402.412 117.574C404.414 118.661 407.005 120.019 410.85 119.21" stroke="#E56184" stroke-width="0.6044" stroke-miterlimit="10" stroke-linecap="round" stroke-linejoin="round"/>
<path d="M404.33 114.539C406.836 116.886 410.484 114.768 412.597 114.104" stroke="#E56184" stroke-width="0.6044" stroke-miterlimit="10" stroke-linecap="round" stroke-linejoin="round"/>
<path d="M368.284 164.23L341.812 175.643C344.538 170.582 347.643 164.936 350.369 160.343L350.38 160.332L368.284 164.23Z" fill="url(#paint7_linear_164_1466)"/>
<path d="M388.84 108.425C391.628 108.373 396.289 107.965 399.461 109.752C402.632 111.54 403.855 109.754 405.209 110.643C406.563 111.533 405.802 113.187 405.802 113.187C405.802 113.187 407.243 113.054 407.933 114.197C408.622 115.339 407.448 116.378 407.448 116.378C407.448 116.378 408.935 116.795 407.322 119.09C405.71 121.384 396.042 120.212 396.042 120.212C396.042 120.212 399.227 122.068 401.011 122.298C402.794 122.529 399.575 126.12 395.254 123.578C390.934 121.034 384.379 119.495 384.379 119.495" fill="url(#paint8_linear_164_1466)"/>
<path d="M407.449 116.379C405.359 117.286 402.659 118.412 398.9 117.268" stroke="#E56184" stroke-width="0.6044" stroke-miterlimit="10" stroke-linecap="round" stroke-linejoin="round"/>
<path d="M405.801 113.188C403.1 115.306 399.651 112.876 397.603 112.029" stroke="#E56184" stroke-width="0.6044" stroke-miterlimit="10" stroke-linecap="round" stroke-linejoin="round"/>
<path d="M389.365 107.423L390.23 119.665C390.282 120.401 389.853 121.086 389.168 121.358L344.778 138.94L374.228 141.102L368.283 164.23L332.86 155.784C324.936 153.894 319.686 146.338 320.657 138.222C321.389 132.109 325.533 126.951 331.331 124.94L387.143 105.942C388.188 105.584 389.286 106.317 389.365 107.423Z" fill="url(#paint9_linear_164_1466)"/>
<path d="M356.718 250.786H349.022V317.478H356.718V250.786Z" fill="#E1CAF9"/>
<path d="M365.26 247.073H340.48V254.669H365.26V247.073Z" fill="#CCB2ED"/>
<path d="M374.487 250.871H310.212C306.683 250.871 303.822 247.999 303.822 244.457C303.822 240.914 306.682 238.042 310.212 238.042H374.487V250.871Z" fill="#E1CAF9"/>
<path d="M416.036 250.871H361.309C356.41 250.871 352.79 246.287 353.908 241.5L373.613 157.111C374.419 153.661 377.484 151.222 381.014 151.222H435.741C440.639 151.222 444.259 155.806 443.142 160.593L423.436 244.982C422.63 248.431 419.566 250.871 416.036 250.871Z" fill="#E1CAF9"/>
<path d="M423.79 250.871H369.063C364.165 250.871 360.545 246.287 361.663 241.5L381.367 157.111C382.173 153.661 385.238 151.222 388.768 151.222H443.495C448.393 151.222 452.013 155.806 450.895 160.593L431.19 244.982C430.385 248.431 427.32 250.871 423.79 250.871Z" fill="#CCB2ED"/>
<path d="M374.32 329.211C366.748 330.583 367.049 322.255 369.887 320.496L352.874 318.396L335.848 320.496C338.686 322.255 339.016 330.76 331.428 329.211C328.264 328.565 327.976 325.497 328.29 323.331C328.786 319.971 331.52 317.359 334.841 316.716L345.093 314.708V309.878H360.641V314.708L370.894 316.716C374.228 317.359 376.949 319.972 377.445 323.331C377.772 325.497 377.463 328.639 374.32 329.211Z" fill="#CCB2ED"/>
<path d="M134.679 175.529H129.505L135.372 142.12H140.546L134.679 175.529Z" fill="#E1CAF9"/>
<path d="M166.385 142.12H161.21L167.077 175.529H172.252L166.385 142.12Z" fill="#E1CAF9"/>
<path d="M182.041 171.83H119.716C119.132 171.83 118.659 172.305 118.659 172.891V174.468C118.659 175.054 119.132 175.529 119.716 175.529H182.041C182.624 175.529 183.098 175.054 183.098 174.468V172.891C183.098 172.305 182.624 171.83 182.041 171.83Z" fill="#AD8FDB"/>
<path d="M195.17 157.52H103.966C102.199 157.52 100.658 156.315 100.225 154.596L84.8556 93.4864C84.24 91.0399 86.0824 88.6661 88.5965 88.6661H179.8C181.567 88.6661 183.108 89.8715 183.541 91.5904L198.911 152.7C199.525 155.145 197.683 157.52 195.17 157.52Z" fill="#6732B2"/>
<path d="M202.25 157.52H111.046C109.279 157.52 107.738 156.315 107.305 154.596L91.9357 93.4864C91.3201 91.0399 93.1625 88.6661 95.6766 88.6661H186.88C188.647 88.6661 190.189 89.8715 190.621 91.5904L205.991 152.7C206.606 155.145 204.764 157.52 202.25 157.52Z" fill="#963BFF"/>
<path d="M143.599 140.595L143.547 140.654C136.916 148.288 131.441 145.824 129.443 144.462C128.989 144.152 128.868 143.547 129.184 143.181L132.027 139.888C132.319 139.55 132.866 139.555 133.241 139.902C133.908 140.517 134.784 141.518 134.667 142.445C138.189 142.532 140.975 139.234 141.377 138.733C141.377 138.733 141.396 138.711 141.429 138.674C141.865 138.203 144.718 134.966 144.163 131.443C143.272 131.684 142.176 130.939 141.485 130.351C141.097 130.021 141.016 129.472 141.309 129.134L144.151 125.842C144.466 125.475 145.075 125.516 145.439 125.931C147.039 127.754 150.18 132.922 143.599 140.595Z" fill="white"/>
<path d="M118.818 125.59L124.537 130.307L126.477 127.948L133.224 133.491" fill="white"/>
<path d="M118.818 125.59L124.537 130.307L126.477 127.948L133.224 133.491" stroke="white" stroke-width="1.2088" stroke-miterlimit="10" stroke-linecap="round" stroke-linejoin="round"/>
<path d="M132.496 119.247L132.109 125.112L134.426 125.59L135.619 129.54" fill="white"/>
<path d="M132.496 119.247L132.109 125.112L134.426 125.59L135.619 129.54" stroke="white" stroke-width="1.2088" stroke-miterlimit="10" stroke-linecap="round" stroke-linejoin="round"/>
<path d="M183.561 131.675H159.439L159.072 130.179H183.195L183.561 131.675Z" fill="#6732B2"/>
<path d="M173.248 136.241H160.56L160.193 134.745H172.88L173.248 136.241Z" fill="#6732B2"/>
<path d="M188.738 74.9047L193.73 69.3319L197.02 76.8962L204.326 74.592L203.866 82.4158L211.812 83.9078L207.709 90.1984L214.473 95.1446L207.666 98.4609L211.702 105.729L203.75 105.311L204.13 113.234L196.857 109.179L193.495 115.944L188.565 109.179L182.232 113.234L180.775 105.311L172.921 105.729L175.27 98.4609L167.694 95.1446L173.312 90.1984L167.752 83.9078L175.351 82.4158L173.077 74.592L180.917 76.8962L182.454 69.3319L188.738 74.9047Z" fill="#FF228C"/>
<path d="M192.573 97.2241L192.854 99.6521H190.357L190.076 97.2241H192.573ZM191.171 85.6224L192.016 95.3933H190.172L188.752 85.6224H191.171Z" fill="#FDFDFD"/>
<path d="M113.879 70.8544L121.294 102.802H78.4285L71.0137 70.8544H113.879Z" fill="#FFB948"/>
<path d="M113.879 70.8544L96.154 86.8289L71.0137 70.8544H113.879Z" fill="#FF8A29"/>
<path d="M121.137 102.12L121.295 102.802H120.118L98.223 84.9775L94.9818 82.3398L93.0562 84.8591L79.3452 102.802H78.4289L78.2158 101.884L91.8143 84.0718L94.5524 80.4884L99.096 84.1772L121.137 102.12Z" fill="#FF8A29"/>
<path d="M119.912 76.246C122.264 73.5934 121.468 69.0276 118.134 66.0481C114.799 63.0687 110.189 62.8037 107.837 65.4563C105.484 68.109 106.28 72.6748 109.614 75.6542C112.949 78.6337 117.559 78.8987 119.912 76.246Z" fill="#FF228C"/>
<path d="M115.56 70.3288L115.583 71.508H116.633L116.824 72.3268H115.601L115.627 73.821H114.789L114.763 72.3268H113.204L113.23 73.821H112.392L112.366 72.3268H111.167L110.977 71.508H112.347L112.324 70.3288H111.157L110.966 69.5024H112.305L112.278 68.0006H113.116L113.143 69.5024H114.702L114.675 68.0006H115.514L115.541 69.5024H116.621L116.813 70.3288H115.56ZM114.722 70.3288H113.163L113.186 71.508H114.744L114.722 70.3288Z" fill="white"/>
<path d="M165.12 108.445H134.012L123.872 57.6716H154.98L165.12 108.445Z" fill="#E1CAF9"/>
<path d="M149.409 70.1832H134.438C133.885 70.1832 133.346 69.7336 133.236 69.1776C133.125 68.6228 133.484 68.1721 134.036 68.1721H149.008C149.56 68.1721 150.099 68.6228 150.21 69.1776C150.321 69.7336 149.963 70.1832 149.409 70.1832Z" fill="#360C51"/>
<path d="M150.793 77.1102H135.822C135.269 77.1102 134.73 76.6596 134.62 76.1047C134.508 75.5498 134.867 75.0991 135.42 75.0991H150.391C150.944 75.0991 151.483 75.5498 151.594 76.1047C151.705 76.6596 151.346 77.1102 150.793 77.1102Z" fill="#360C51"/>
<path d="M152.177 84.036H137.206C136.653 84.036 136.114 83.5864 136.004 83.0304C135.893 82.4755 136.251 82.0249 136.804 82.0249H151.775C152.328 82.0249 152.867 82.4755 152.977 83.0304C153.088 83.5853 152.73 84.036 152.177 84.036Z" fill="#360C51"/>
<path d="M153.56 90.9618H138.588C138.036 90.9618 137.497 90.5111 137.386 89.9562C137.275 89.4013 137.634 88.9507 138.187 88.9507H153.158C153.711 88.9507 154.25 89.4013 154.36 89.9562C154.472 90.5111 154.114 90.9618 153.56 90.9618Z" fill="#360C51"/>
<path d="M147.292 97.8875H139.972C139.419 97.8875 138.881 97.438 138.77 96.882C138.66 96.3271 139.018 95.8765 139.571 95.8765H146.89C147.443 95.8765 147.982 96.3271 148.092 96.882C148.204 97.438 147.846 97.8875 147.292 97.8875Z" fill="#360C51"/>
<path d="M191.714 46.1352C191.408 44.4879 190.883 42.8971 190.21 41.3714C191.295 40.2464 191.826 38.6045 191.481 36.7509C190.85 33.3619 187.603 30.6146 184.227 30.6146C183.316 30.6146 182.498 30.8285 181.788 31.1868C178.019 28.5405 173.564 26.9486 169.031 26.9486C164.342 26.9486 160.368 28.6502 157.565 31.4637C156.565 30.9382 155.472 30.6146 154.354 30.6146C150.978 30.6146 148.752 33.3619 149.382 36.7509C149.787 38.926 151.275 40.8263 153.178 41.9154C153.126 43.275 153.214 44.6834 153.484 46.1341C155.456 56.7302 165.611 65.3207 176.167 65.3207C186.724 65.3207 193.684 56.7313 191.714 46.1352Z" fill="#AD8FDB"/>
<path d="M163.946 34.4043C164.577 37.7934 162.35 40.5407 158.974 40.5407C155.597 40.5407 152.35 37.7934 151.719 34.4043C151.088 31.0152 153.315 28.2679 156.691 28.2679C160.069 28.2679 163.316 31.0152 163.946 34.4043Z" fill="#FF228C"/>
<path d="M193.819 34.4043C194.45 37.7934 192.223 40.5407 188.847 40.5407C185.471 40.5407 182.223 37.7934 181.592 34.4043C180.962 31.0152 183.188 28.2679 186.564 28.2679C189.941 28.2679 193.19 31.0152 193.819 34.4043Z" fill="#FF228C"/>
<path d="M190.452 57.9858C196.929 50.8497 195.236 38.7143 186.671 30.8804C178.105 23.0465 165.91 22.4808 159.432 29.6168C152.955 36.7528 154.648 48.8883 163.214 56.7222C171.78 64.556 183.975 65.1218 190.452 57.9858Z" fill="#CCB2ED"/>
<path d="M187.404 55.199C192.608 49.4656 191.248 39.715 184.365 33.4205C177.482 27.1259 167.684 26.671 162.48 32.4043C157.275 38.1377 158.636 47.8883 165.519 54.1828C172.402 60.4774 182.2 60.9323 187.404 55.199Z" fill="#E1CAF9"/>
<path d="M176.773 43.7875C176.919 44.5737 176.403 45.2122 175.618 45.2122C174.835 45.2122 174.081 44.5747 173.934 43.7875C173.788 43.0013 174.304 42.3628 175.088 42.3628C175.873 42.3628 176.627 43.0013 176.773 43.7875Z" fill="#AD8FDB"/>
<path d="M174.88 41.2324C174.396 41.2324 173.93 40.8382 173.84 40.3528L172.329 32.226C172.239 31.7406 172.558 31.3464 173.042 31.3464C173.525 31.3464 173.991 31.7406 174.081 32.226L175.592 40.3528C175.682 40.8382 175.363 41.2324 174.88 41.2324Z" fill="#AD8FDB"/>
<path d="M177.24 42.4073C176.903 41.9979 176.92 41.4539 177.278 41.1922L180.987 38.4091C181.345 38.1463 181.91 38.2657 182.247 38.674C182.585 39.0823 182.567 39.6275 182.209 39.8892L178.501 42.6723C178.143 42.9351 177.578 42.8156 177.24 42.4073Z" fill="#AD8FDB"/>
<path d="M280.834 274.728H284.147C289.168 274.728 293.239 270.642 293.239 265.601V262.276H289.927C284.905 262.276 280.834 266.362 280.834 271.403V274.728Z" fill="#E1CAF9"/>
<path d="M280.833 283.553H277.52C272.499 283.553 268.428 279.467 268.428 274.426V271.101H271.74C276.762 271.101 280.833 275.187 280.833 280.228V283.553Z" fill="#E1CAF9"/>
<path d="M281.488 292.45C281.127 292.45 280.835 292.156 280.835 291.794V255.771C280.835 255.408 281.127 255.115 281.488 255.115C281.85 255.115 282.142 255.408 282.142 255.771V291.794C282.142 292.156 281.85 292.45 281.488 292.45Z" fill="#E1CAF9"/>
<path d="M293.814 289.004H269.16C267.301 289.004 265.795 290.517 265.795 292.381V292.433C265.795 294.299 267.302 295.811 269.16 295.811H293.814C295.673 295.811 297.179 294.298 297.179 292.433V292.381C297.18 290.517 295.673 289.004 293.814 289.004Z" fill="#E1CAF9"/>
<path d="M282.141 258.329H278.828C273.807 258.329 269.736 254.243 269.736 249.202V245.877H273.048C278.07 245.877 282.141 249.963 282.141 255.004V258.329Z" fill="#E1CAF9"/>
<path d="M287.469 329.399H275.213C274.17 329.399 273.302 328.595 273.22 327.551L270.479 293.02H292.205L289.463 327.551C289.379 328.595 288.511 329.399 287.469 329.399Z" fill="#E1CAF9"/>
<path d="M411.486 331.031H34.2373C33.3394 331.031 32.6113 330.3 32.6113 329.399C32.6113 328.498 33.3394 327.767 34.2373 327.767H411.486C412.384 327.767 413.112 328.498 413.112 329.399C413.112 330.3 412.384 331.031 411.486 331.031Z" fill="#E1CAF9"/>
<defs>
<linearGradient id="paint0_linear_164_1466" x1="437.624" y1="-76.6218" x2="422.597" y2="327.602" gradientUnits="userSpaceOnUse">
<stop offset="1.4e-07" stop-color="white"/>
<stop offset="1" stop-color="#E1CAF9"/>
</linearGradient>
<linearGradient id="paint1_linear_164_1466" x1="236.312" y1="152.834" x2="201.059" y2="172.566" gradientUnits="userSpaceOnUse">
<stop offset="1.4e-07" stop-color="#FFC2D1"/>
<stop offset="1" stop-color="#FF88A3"/>
</linearGradient>
<linearGradient id="paint2_linear_164_1466" x1="256.507" y1="166.576" x2="231.015" y2="197.988" gradientUnits="userSpaceOnUse">
<stop offset="1.4e-07" stop-color="#FFC2D1"/>
<stop offset="1" stop-color="#FF88A3"/>
</linearGradient>
<linearGradient id="paint3_linear_164_1466" x1="375.111" y1="136.221" x2="401.736" y2="98.4172" gradientUnits="userSpaceOnUse">
<stop offset="1.4e-07" stop-color="#FFC2D1"/>
<stop offset="1" stop-color="#FF88A3"/>
</linearGradient>
<linearGradient id="paint4_linear_164_1466" x1="380.259" y1="-78.7536" x2="365.232" y2="325.47" gradientUnits="userSpaceOnUse">
<stop offset="1.4e-07" stop-color="white"/>
<stop offset="1" stop-color="#E1CAF9"/>
</linearGradient>
<linearGradient id="paint5_linear_164_1466" x1="405.259" y1="80.8515" x2="388.445" y2="158.241" gradientUnits="userSpaceOnUse">
<stop offset="1.4e-07" stop-color="white"/>
<stop offset="1" stop-color="#E1CAF9"/>
</linearGradient>
<linearGradient id="paint6_linear_164_1466" x1="418.45" y1="95.3125" x2="413.721" y2="113.048" gradientUnits="userSpaceOnUse">
<stop offset="1.4e-07" stop-color="#FFC2D1"/>
<stop offset="1" stop-color="#FF88A3"/>
</linearGradient>
<linearGradient id="paint7_linear_164_1466" x1="384.063" y1="369.649" x2="360.69" y2="209.979" gradientUnits="userSpaceOnUse">
<stop offset="1.4e-07" stop-color="white"/>
<stop offset="1" stop-color="#E1CAF9"/>
</linearGradient>
<linearGradient id="paint8_linear_164_1466" x1="418.415" y1="109.695" x2="370.861" y2="122.713" gradientUnits="userSpaceOnUse">
<stop offset="1.4e-07" stop-color="#FFC2D1"/>
<stop offset="1" stop-color="#FF88A3"/>
</linearGradient>
<linearGradient id="paint9_linear_164_1466" x1="363.538" y1="-91.0544" x2="347.802" y2="332.235" gradientUnits="userSpaceOnUse">
<stop offset="1.4e-07" stop-color="white"/>
<stop offset="1" stop-color="#E1CAF9"/>
</linearGradient>
</defs>
</svg>
