<svg width="37" height="37" viewBox="0 0 37 37" fill="none" xmlns="http://www.w3.org/2000/svg">
<path d="M10.2791 11.7735C10.1143 13.531 9.9987 16.6413 11.0364 17.9652C11.0364 17.9652 10.5479 14.5485 14.9272 10.2617C16.6905 8.536 17.0981 6.18881 16.4824 4.42842C16.1326 3.43116 15.4938 2.60733 14.9388 2.0321C14.615 1.69389 14.8636 1.136 15.3348 1.15624C18.185 1.28342 22.8042 2.07545 24.7669 7.00108C25.6283 9.16327 25.6919 11.3977 25.2814 13.6698C25.0213 15.1208 24.0963 18.3468 26.2064 18.7428C27.7125 19.0261 28.4409 17.8294 28.7675 16.968C28.9034 16.6095 29.3746 16.5199 29.6289 16.8061C32.1727 19.6996 32.3895 23.1076 31.8634 26.0416C30.8459 31.713 25.1022 35.8408 19.3961 35.8408C12.2678 35.8408 6.59355 31.7622 5.12222 24.3795C4.52964 21.3993 4.83027 15.5024 9.42636 11.3399C9.76745 11.0277 10.3253 11.3052 10.2791 11.7735Z" fill="url(#paint0_radial_164_1172)"/>
<path d="M22.0005 22.3792C19.3729 18.9972 20.5494 15.1382 21.194 13.6004C21.2807 13.3981 21.0495 13.2073 20.8674 13.3316C19.7371 14.1005 17.4218 15.91 16.3435 18.4566C14.8838 21.8994 14.9878 23.5846 15.8521 25.6427C16.3725 26.8828 15.7683 27.1459 15.4648 27.1921C15.17 27.2384 14.8982 27.0418 14.6814 26.8366C14.0578 26.2378 13.6133 25.477 13.398 24.6397C13.3518 24.4605 13.1176 24.4113 13.0107 24.5588C12.2013 25.6774 11.7821 27.4725 11.7619 28.7415C11.6983 32.6641 14.9387 35.8438 18.8584 35.8438C23.7985 35.8438 27.3973 30.3805 24.5587 25.8133C23.7349 24.4836 22.9602 23.6135 22.0005 22.3792Z" fill="url(#paint1_radial_164_1172)"/>
<defs>
<radialGradient id="paint0_radial_164_1172" cx="0" cy="0" r="1" gradientUnits="userSpaceOnUse" gradientTransform="translate(17.9843 35.9307) rotate(-179.751) scale(20.4042 33.4793)">
<stop offset="0.314" stop-color="#FF9800"/>
<stop offset="0.662" stop-color="#FF6D00"/>
<stop offset="0.972" stop-color="#F44336"/>
</radialGradient>
<radialGradient id="paint1_radial_164_1172" cx="0" cy="0" r="1" gradientUnits="userSpaceOnUse" gradientTransform="translate(19.1301 15.6263) rotate(90.5787) scale(21.3491 16.0668)">
<stop offset="0.214" stop-color="#FFF176"/>
<stop offset="0.328" stop-color="#FFF27D"/>
<stop offset="0.487" stop-color="#FFF48F"/>
<stop offset="0.672" stop-color="#FFF7AD"/>
<stop offset="0.793" stop-color="#FFF9C4"/>
<stop offset="0.822" stop-color="#FFF8BD" stop-opacity="0.804"/>
<stop offset="0.863" stop-color="#FFF6AB" stop-opacity="0.529"/>
<stop offset="0.91" stop-color="#FFF38D" stop-opacity="0.209"/>
<stop offset="0.941" stop-color="#FFF176" stop-opacity="0"/>
</radialGradient>
</defs>
</svg>
